<svg width="209" height="36" viewBox="0 0 209 36" fill="none" xmlns="http://www.w3.org/2000/svg">
<path d="M1.68359 24.2061C1.68359 23.625 1.78044 23.0269 1.97412 22.4116C2.95394 22.1382 3.87109 22.0072 4.72559 22.0186C4.50911 19.7969 4.32682 17.3701 4.17871 14.7383C4.0306 12.0951 3.92806 9.6569 3.87109 7.42383H3.854L1.41016 7.06494C1.26204 6.64339 1.14811 6.17627 1.06836 5.66357C0.988607 5.15088 0.94873 4.65527 0.94873 4.17676C0.94873 3.81217 0.977214 3.41341 1.03418 2.98047C2.25326 2.44499 4.16732 2.06901 6.77637 1.85254C9.38542 1.62467 11.9774 1.51074 14.5522 1.51074C16.284 1.51074 17.7537 1.64746 18.9614 1.9209C20.1691 2.19434 21.1774 2.81527 21.9863 3.78369C22.8066 4.74072 23.2168 6.17627 23.2168 8.09033C23.2168 11.6336 22.3623 16.2821 20.6533 22.0356C20.3685 22.9813 20.0495 23.8301 19.6963 24.582C19.3431 25.334 18.8931 25.9834 18.3462 26.5303C17.8791 27.0544 17.3949 27.4531 16.8936 27.7266C16.4036 27.9886 15.8112 28.1196 15.1162 28.1196C14.763 28.1196 14.2845 28.0627 13.6807 27.9487C12.9287 27.8006 12.2622 27.6126 11.6812 27.3848C11.1001 27.1455 10.6159 26.9062 10.2285 26.667C9.85254 26.4277 9.40251 26.1258 8.87842 25.7612C8.65055 26.0916 8.26888 26.4562 7.7334 26.855C7.20931 27.2537 6.62826 27.5955 5.99023 27.8804C5.35221 28.1652 4.75977 28.319 4.21289 28.3418C3.42676 28.0456 2.80583 27.5215 2.3501 26.7695C1.90576 26.0062 1.68359 25.1517 1.68359 24.2061ZM14.8428 21.8818C15.1618 20.3096 15.4124 18.4867 15.5947 16.4131C15.777 14.3281 15.9308 12.078 16.0562 9.6626L16.1245 8.44922C16.0562 8.32389 15.777 8.19857 15.2871 8.07324C14.8086 7.94792 14.1763 7.88525 13.3901 7.88525L12.0571 7.86816C11.4191 7.86816 10.9064 7.89665 10.519 7.95361C10.519 8.43213 10.5247 8.83659 10.5361 9.16699C10.5703 11.1494 10.5874 12.9211 10.5874 14.4819C10.5874 16.2935 10.5703 18.8683 10.5361 22.2065C12.0286 22.2065 13.4642 22.0983 14.8428 21.8818ZM26.0195 16.8916C26.0195 11.6051 26.1221 7.9707 26.3271 5.98828L24.396 5.64648C24.1226 4.59831 23.9858 3.47038 23.9858 2.2627C24.1567 2.04622 24.4757 1.77848 24.9429 1.45947C25.41 1.14046 25.9512 0.861328 26.5664 0.62207C27.193 0.382812 27.814 0.263184 28.4292 0.263184C29.8306 0.263184 30.873 0.62207 31.5566 1.33984C32.2402 2.05762 32.582 3.15706 32.582 4.63818C32.582 5.2876 32.5251 6.33577 32.4111 7.78271C32.2972 9.21826 32.132 10.762 31.9155 12.4141C31.6991 14.0547 31.4484 15.5187 31.1636 16.8062C31.1636 16.8745 31.2035 16.9372 31.2832 16.9941C31.363 17.0511 31.4484 17.0796 31.5396 17.0796C31.6421 17.0796 31.7104 17.0397 31.7446 16.96C32.2004 15.1484 32.6561 13.6331 33.1118 12.4141C33.5675 11.195 34.2568 10.1126 35.1797 9.16699C36.1025 8.22135 37.2988 7.74854 38.7686 7.74854C40.5915 7.74854 41.9017 8.3068 42.6992 9.42334C43.4967 10.5285 43.8955 11.9242 43.8955 13.6104C43.8955 15.1143 43.7189 16.5669 43.3657 17.9683C43.0125 19.3582 42.5739 20.8109 42.0498 22.3262C42.0726 22.2692 41.9928 22.4914 41.8105 22.9927L41.8447 23.0269L44.374 21.9673C45.2627 22.7306 45.7811 23.7446 45.9292 25.0093C45.9292 25.089 45.6729 25.4194 45.1602 26.0005C44.6475 26.5701 43.9696 27.1056 43.1265 27.6069C42.2948 28.0968 41.3377 28.3418 40.2554 28.3418C39.173 28.3418 38.29 28.0513 37.6064 27.4702C36.9229 26.8892 36.5811 25.8979 36.5811 24.4966C36.5811 23.38 36.6266 21.8875 36.7178 20.019C36.8089 18.1506 36.9001 16.6466 36.9912 15.5073C36.695 15.1883 36.3304 15.0174 35.8975 14.9946C35.4987 15.5073 34.9119 16.5327 34.1372 18.0708C33.3625 19.6089 32.8156 20.7596 32.4966 21.5229C32.4738 21.6825 32.4624 21.8363 32.4624 21.9844C32.4624 22.554 32.5479 23.3231 32.7188 24.2915C32.8896 25.2485 33.1004 26.1429 33.3511 26.9746C33.146 27.362 32.7244 27.6867 32.0864 27.9487C31.4484 28.2108 30.6623 28.3418 29.728 28.3418C28.8849 28.3418 28.207 28.2734 27.6943 28.1367C27.193 28 26.8398 27.8576 26.6348 27.7095C26.4297 27.55 26.3271 27.4531 26.3271 27.4189C26.3158 27.3164 26.2873 27.0487 26.2417 26.6157C26.1961 26.1714 26.1506 25.5562 26.105 24.77C26.0594 23.9725 26.0366 23.0667 26.0366 22.0527L26.0195 16.8916ZM52.6968 16.7378C53.369 16.7378 54.1095 16.8062 54.9185 16.9429C55.7388 17.0796 56.4907 17.2448 57.1743 17.4385V16.9087C57.1743 16.5555 57.1629 16.1624 57.1401 15.7295C57.1287 15.2965 57.106 15.0117 57.0718 14.875C56.9692 14.6813 56.673 14.4819 56.1831 14.2769C55.7046 14.0718 54.9185 13.9692 53.8247 13.9692C53.1525 13.9692 52.4575 14.0547 51.7397 14.2256C51.0334 14.3851 50.2472 14.6016 49.3813 14.875C48.9142 14.1003 48.5382 13.3654 48.2534 12.6704C47.98 11.964 47.8433 11.2576 47.8433 10.5513C47.8433 10.3348 47.8604 10.1183 47.8945 9.90186C49.7402 8.46631 52.1271 7.74854 55.0552 7.74854C56.673 7.74854 58.1086 7.93083 59.3618 8.29541C60.6151 8.65999 61.6462 9.36637 62.4551 10.4146C63.264 11.4627 63.6685 12.9495 63.6685 14.875C63.6685 16.7549 63.4463 18.5778 63.002 20.3438C62.569 22.0983 62.3468 22.9927 62.3354 23.0269L64.8135 21.9673C65.1439 22.3205 65.4344 22.7534 65.6851 23.2661C65.9471 23.7674 66.1123 24.3485 66.1807 25.0093C66.0212 25.3511 65.6737 25.7897 65.1382 26.3252C64.6027 26.8493 63.9476 27.3164 63.1729 27.7266C62.3981 28.1367 61.5892 28.3418 60.7461 28.3418C59.8005 28.3418 59.0827 28.0627 58.5928 27.5044C58.1143 26.9461 57.875 26.2227 57.875 25.334C57.875 24.8327 57.9491 24.3257 58.0972 23.813L57.5845 23.6592C57.2655 25.4593 56.5876 26.6898 55.5508 27.3506C54.514 28.0114 53.369 28.3418 52.1157 28.3418C51.2954 28.3418 50.5036 28.1139 49.7402 27.6582C48.9769 27.1911 48.356 26.5189 47.8774 25.6416C47.3989 24.7529 47.1597 23.7161 47.1597 22.5312C47.1597 20.64 47.6325 19.2044 48.5781 18.2246C49.5238 17.2334 50.8966 16.7378 52.6968 16.7378ZM54.645 23.249C54.9299 23.1921 55.266 23.0326 55.6533 22.7705C56.0521 22.5085 56.4053 22.1951 56.7129 21.8306C57.0205 21.466 57.2028 21.1185 57.2598 20.7881L57.1572 20.3779C56.5534 20.2982 55.9097 20.2583 55.2261 20.2583C54.645 20.2583 54.2463 20.3039 54.0298 20.395C53.6652 20.8052 53.4829 21.2609 53.4829 21.7622C53.4829 22.1268 53.5741 22.4572 53.7563 22.7534C53.95 23.0496 54.2463 23.2148 54.645 23.249ZM68.7612 23.4199C68.7612 22.93 68.7726 21.728 68.7954 19.814C68.8296 16.0542 68.8467 13.9977 68.8467 13.6445L67.2744 13.3882C67.0579 12.7388 66.9041 12.1292 66.813 11.5596C66.7218 10.9899 66.6763 10.4146 66.6763 9.8335C66.6763 9.59424 66.682 9.41195 66.6934 9.28662C66.887 9.11572 67.189 8.91064 67.5991 8.67139C68.0093 8.43213 68.4935 8.22135 69.0518 8.03906C69.61 7.84538 70.1797 7.74854 70.7607 7.74854C72.1165 7.74854 73.0964 8.05046 73.7002 8.6543C74.3154 9.25814 74.623 10.1411 74.623 11.3032C74.623 12.0096 74.5319 12.9154 74.3496 14.0205C74.1787 15.1143 74.0021 15.8947 73.8198 16.3618L74.4351 16.4644L75.4604 12.6021C75.9162 10.8589 76.4858 9.61702 77.1694 8.87646C77.853 8.12451 78.6221 7.74854 79.4766 7.74854C80.0348 7.74854 80.5874 7.83398 81.1343 8.00488C81.6925 8.17578 82.1198 8.38656 82.416 8.63721C82.735 9.34359 82.8945 10.2835 82.8945 11.457C82.8945 12.2773 82.8148 13.092 82.6553 13.9009C82.4958 14.6984 82.2907 15.3421 82.04 15.832L78.4512 15.3535C77.722 16.1283 76.9473 17.2049 76.127 18.5835C75.3066 19.9507 74.6515 21.2096 74.1616 22.3604L74.1445 23.249L77.46 22.4629C78.0182 23.3174 78.3429 24.3314 78.4341 25.5049C78.4341 25.5732 78.1777 25.8524 77.665 26.3423C77.1523 26.8322 76.4744 27.2879 75.6313 27.7095C74.7996 28.1196 73.8426 28.3247 72.7603 28.3247C71.6437 28.3247 70.7095 28.0285 69.9575 27.436C69.217 26.8322 68.8239 25.8182 68.7783 24.394C68.7669 24.2231 68.7612 23.8984 68.7612 23.4199ZM85.7656 22.0527C85.7656 20.1956 85.7884 18.7943 85.834 17.8486C85.8796 16.8916 85.9992 15.4902 86.1929 13.6445L84.2275 13.3882C83.9883 12.6476 83.8288 11.9868 83.749 11.4058C83.6807 10.8247 83.6465 10.0728 83.6465 9.1499C83.8288 8.9904 84.1307 8.80241 84.5522 8.58594C84.9852 8.35807 85.4922 8.16439 86.0732 8.00488C86.6657 7.83398 87.2638 7.74854 87.8677 7.74854C89.2463 7.74854 90.2204 8.04476 90.79 8.63721C91.3711 9.22965 91.6616 10.1183 91.6616 11.3032C91.6616 11.964 91.5648 12.8584 91.3711 13.9863C91.0521 15.7979 90.8926 16.7492 90.8926 16.8403C90.8926 16.8973 90.9325 16.9543 91.0122 17.0112C91.092 17.0568 91.1774 17.0796 91.2686 17.0796C91.3711 17.0796 91.4395 17.0397 91.4736 16.96C91.4622 17.0055 91.5933 16.4302 91.8667 15.2339C92.1971 13.6616 92.5332 12.3799 92.875 11.3887C93.2282 10.3975 93.7865 9.54867 94.5498 8.84229C95.3132 8.1359 96.3499 7.78271 97.6602 7.78271C99.278 7.78271 100.446 8.24984 101.164 9.18408C101.881 10.1069 102.24 11.3374 102.24 12.8755C102.24 14.0946 102.035 15.4504 101.625 16.9429C101.625 16.9998 101.665 17.0568 101.745 17.1138C101.824 17.1593 101.91 17.1821 102.001 17.1821C102.104 17.1821 102.172 17.1423 102.206 17.0625L102.445 16.1055C102.855 14.4193 103.26 13.0179 103.659 11.9014C104.069 10.7848 104.678 9.8221 105.487 9.01318C106.308 8.19287 107.373 7.78271 108.683 7.78271C110.403 7.78271 111.64 8.33529 112.392 9.44043C113.155 10.5456 113.537 11.9355 113.537 13.6104C113.537 14.7952 113.423 15.9858 113.195 17.1821C112.978 18.3784 112.745 19.381 112.494 20.1899C112.255 20.9989 111.959 21.9331 111.605 22.9927L111.64 23.0269L114.169 21.9673C115.058 22.7306 115.576 23.7446 115.724 25.0093C115.724 25.089 115.468 25.4194 114.955 26.0005C114.442 26.5701 113.764 27.1056 112.921 27.6069C112.09 28.0968 111.133 28.3418 110.05 28.3418C108.968 28.3418 108.085 28.0513 107.401 27.4702C106.718 26.8892 106.376 25.8979 106.376 24.4966C106.376 22.9357 106.404 21.335 106.461 19.6943C106.53 18.0423 106.627 16.5612 106.752 15.251C106.558 15.0915 106.291 15.006 105.949 14.9946C105.607 15.325 105.18 16.0485 104.667 17.165C104.154 18.2702 103.681 19.4551 103.249 20.7197C102.816 21.973 102.542 22.9528 102.428 23.6592C102.588 24.7757 102.833 25.8809 103.163 26.9746C102.958 27.362 102.536 27.6867 101.898 27.9487C101.26 28.2108 100.474 28.3418 99.54 28.3418C98.6969 28.3418 98.0361 28.2734 97.5576 28.1367C97.0791 28 96.7487 27.8576 96.5664 27.7095C96.3955 27.5614 96.3101 27.4645 96.3101 27.4189C96.2987 27.3164 96.2702 27.0487 96.2246 26.6157C96.179 26.1714 96.1335 25.5562 96.0879 24.77C96.0423 23.9725 96.0195 23.0667 96.0195 22.0527C96.0195 21.0843 96.0936 19.8709 96.2417 18.4126C96.2531 18.2303 96.2873 17.7974 96.3442 17.1138C96.4012 16.4302 96.4297 15.8092 96.4297 15.251C96.236 15.0915 95.9683 15.006 95.6265 14.9946C95.4328 15.1427 94.8916 16.0884 94.0029 17.8315C93.1143 19.5747 92.5218 20.8052 92.2256 21.5229C92.2028 21.6825 92.1914 21.8363 92.1914 21.9844C92.1914 22.554 92.2769 23.3231 92.4478 24.2915C92.6187 25.2485 92.8294 26.1429 93.0801 26.9746C92.875 27.362 92.4535 27.6867 91.8154 27.9487C91.1774 28.2108 90.3913 28.3418 89.457 28.3418C88.6139 28.3418 87.936 28.2734 87.4233 28.1367C86.922 28 86.5688 27.8576 86.3638 27.7095C86.1587 27.55 86.0562 27.4531 86.0562 27.4189C86.0448 27.3164 86.0163 27.0487 85.9707 26.6157C85.9251 26.1714 85.8796 25.5562 85.834 24.77C85.7884 23.9725 85.7656 23.0667 85.7656 22.0527Z" fill="black"/>
<path d="M124.542 14.9434C124.542 12.3457 124.918 10.0443 125.67 8.03906C126.422 6.02246 127.607 4.43311 129.225 3.271C130.854 2.09749 132.922 1.51074 135.429 1.51074C136.317 1.51074 137.28 1.56771 138.317 1.68164C139.354 1.78418 140.368 1.94938 141.359 2.17725C141.974 2.54183 142.51 2.9235 142.965 3.32227C143.432 3.70964 143.877 4.18245 144.298 4.74072C144.298 5.54964 144.19 6.62061 143.974 7.95361C143.757 9.28662 143.484 10.5285 143.153 11.6792C142.834 12.8299 142.527 13.5762 142.23 13.918C141.934 14.0661 141.684 14.1686 141.479 14.2256C141.273 14.2712 140.954 14.2939 140.521 14.2939C139.986 14.2939 139.485 14.2541 139.018 14.1743C138.55 14.0946 138.197 13.9863 137.958 13.8496L137.36 8.09033C136.551 7.86247 135.258 7.74854 133.48 7.74854C133.093 7.74854 132.808 7.75423 132.626 7.76562C132.136 9.33789 131.863 11.4513 131.806 14.106V14.7725C131.806 16.4701 131.914 17.9683 132.13 19.2671C132.278 20.1216 132.404 20.7767 132.506 21.2324C132.62 21.6882 132.757 22.0413 132.917 22.292C133.087 22.5312 133.298 22.6509 133.549 22.6509C134.438 22.6509 135.229 22.3433 135.924 21.728C136.631 21.1128 137.235 20.3267 137.736 19.3696L137.274 16.9258C138.767 16.4245 140.242 16.1681 141.701 16.1567C142.407 16.1567 143.022 16.2365 143.546 16.396C144.07 16.5555 144.424 16.8688 144.606 17.3359C144.389 19.0221 144.042 21.09 143.563 23.5396C143.085 25.9891 142.726 27.4759 142.487 28C141.758 28.2279 141.051 28.3418 140.368 28.3418C140.014 28.3418 139.639 28.3133 139.24 28.2563C138.852 28.1994 138.511 28.1139 138.214 28C138.214 27.624 138.18 26.7297 138.112 25.3169L138.061 24.0522L137.599 23.9155C136.813 25.2371 135.93 26.3081 134.95 27.1284C133.97 27.9373 132.905 28.3418 131.754 28.3418C130.273 28.3418 128.992 27.7949 127.909 26.7012C126.827 25.6074 125.995 24.0522 125.414 22.0356C124.833 20.0076 124.542 17.6436 124.542 14.9434ZM152.655 25.8638C152.439 25.0207 152.034 23.8016 151.442 22.2065C150.849 20.6001 150.229 19.0563 149.579 17.5752C148.93 16.0941 148.417 15.0744 148.041 14.5161L146.469 14.2427C146.309 13.7983 146.184 13.3084 146.093 12.7729C146.013 12.2261 145.945 11.5938 145.888 10.876C146.081 10.3405 146.378 9.8335 146.776 9.35498C147.175 8.87646 147.654 8.4891 148.212 8.19287C148.782 7.89665 149.397 7.74854 150.058 7.74854C151.14 7.74854 152.034 8.05615 152.741 8.67139C153.458 9.27523 154.011 10.0386 154.398 10.9614C154.797 11.8729 155.145 12.9495 155.441 14.1914C156.045 16.5954 156.432 19.5747 156.603 23.1294L156.979 23.061C157.423 22.0698 157.799 20.6514 158.107 18.8057C158.426 16.96 158.597 15.1883 158.62 13.4907L156.483 13.166C156.233 12.209 156.107 11.0868 156.107 9.79932C156.358 9.4917 156.717 9.18408 157.184 8.87646C157.663 8.55745 158.227 8.28971 158.876 8.07324C159.525 7.85677 160.215 7.74854 160.944 7.74854C163.883 7.74854 165.353 9.22396 165.353 12.1748C165.353 14.499 164.931 16.7549 164.088 18.9424C163.257 21.1299 162.003 23.1066 160.329 24.8726C158.654 26.6385 156.614 28.0285 154.21 29.0425L154.347 29.6064C154.655 29.6406 154.957 29.6577 155.253 29.6577C156.221 29.6577 157.389 29.4982 158.756 29.1792C159.531 30.0451 159.918 30.9907 159.918 32.0161C159.918 32.3237 159.884 32.637 159.816 32.9561C159.132 33.6169 158.278 34.1865 157.252 34.665C156.227 35.1436 155.099 35.3828 153.869 35.3828C152.08 35.3828 150.633 34.9784 149.528 34.1694C148.423 33.3605 147.87 32.13 147.87 30.478C147.87 29.7375 148.092 29.0881 148.537 28.5298C148.992 27.9829 149.516 27.5386 150.109 27.1968C150.713 26.8436 151.562 26.3993 152.655 25.8638ZM172.702 16.7378C173.374 16.7378 174.114 16.8062 174.923 16.9429C175.744 17.0796 176.496 17.2448 177.179 17.4385V16.9087C177.179 16.5555 177.168 16.1624 177.145 15.7295C177.134 15.2965 177.111 15.0117 177.077 14.875C176.974 14.6813 176.678 14.4819 176.188 14.2769C175.709 14.0718 174.923 13.9692 173.83 13.9692C173.157 13.9692 172.462 14.0547 171.745 14.2256C171.038 14.3851 170.252 14.6016 169.386 14.875C168.919 14.1003 168.543 13.3654 168.258 12.6704C167.985 11.964 167.848 11.2576 167.848 10.5513C167.848 10.3348 167.865 10.1183 167.899 9.90186C169.745 8.46631 172.132 7.74854 175.06 7.74854C176.678 7.74854 178.113 7.93083 179.367 8.29541C180.62 8.65999 181.651 9.36637 182.46 10.4146C183.269 11.4627 183.673 12.9495 183.673 14.875C183.673 16.7549 183.451 18.5778 183.007 20.3438C182.574 22.0983 182.352 22.9927 182.34 23.0269L184.818 21.9673C185.149 22.3205 185.439 22.7534 185.69 23.2661C185.952 23.7674 186.117 24.3485 186.186 25.0093C186.026 25.3511 185.679 25.7897 185.143 26.3252C184.608 26.8493 183.952 27.3164 183.178 27.7266C182.403 28.1367 181.594 28.3418 180.751 28.3418C179.805 28.3418 179.088 28.0627 178.598 27.5044C178.119 26.9461 177.88 26.2227 177.88 25.334C177.88 24.8327 177.954 24.3257 178.102 23.813L177.589 23.6592C177.27 25.4593 176.592 26.6898 175.556 27.3506C174.519 28.0114 173.374 28.3418 172.121 28.3418C171.3 28.3418 170.508 28.1139 169.745 27.6582C168.982 27.1911 168.361 26.5189 167.882 25.6416C167.404 24.7529 167.165 23.7161 167.165 22.5312C167.165 20.64 167.637 19.2044 168.583 18.2246C169.529 17.2334 170.902 16.7378 172.702 16.7378ZM174.65 23.249C174.935 23.1921 175.271 23.0326 175.658 22.7705C176.057 22.5085 176.41 22.1951 176.718 21.8306C177.025 21.466 177.208 21.1185 177.265 20.7881L177.162 20.3779C176.558 20.2982 175.915 20.2583 175.231 20.2583C174.65 20.2583 174.251 20.3039 174.035 20.395C173.67 20.8052 173.488 21.2609 173.488 21.7622C173.488 22.1268 173.579 22.4572 173.761 22.7534C173.955 23.0496 174.251 23.2148 174.65 23.249ZM188.664 22.0527C188.664 20.1956 188.686 18.7943 188.732 17.8486C188.778 16.8916 188.897 15.4902 189.091 13.6445L187.108 13.3882C186.869 12.6476 186.71 11.9868 186.63 11.4058C186.562 10.8247 186.527 10.0728 186.527 9.1499C186.71 8.9904 187.012 8.80241 187.433 8.58594C187.866 8.35807 188.379 8.16439 188.971 8.00488C189.564 7.83398 190.162 7.74854 190.766 7.74854C192.144 7.74854 193.118 8.04476 193.688 8.63721C194.269 9.22965 194.56 10.1183 194.56 11.3032C194.56 11.964 194.463 12.8584 194.269 13.9863C193.95 15.7979 193.791 16.7492 193.791 16.8403C193.791 16.8973 193.83 16.9543 193.91 17.0112C193.99 17.0568 194.075 17.0796 194.167 17.0796C194.269 17.0796 194.337 17.0397 194.372 16.96C194.827 15.1484 195.283 13.6331 195.739 12.4141C196.194 11.195 196.884 10.1126 197.807 9.16699C198.729 8.22135 199.926 7.74854 201.396 7.74854C203.218 7.74854 204.529 8.3068 205.326 9.42334C206.124 10.5285 206.522 11.9242 206.522 13.6104C206.522 15.1143 206.346 16.5669 205.993 17.9683C205.639 19.3582 205.201 20.8109 204.677 22.3262C204.7 22.2692 204.62 22.4914 204.438 22.9927L204.472 23.0269L206.967 22.0015C207.855 22.7648 208.374 23.7788 208.522 25.0435C208.522 25.1232 208.266 25.4479 207.753 26.0176C207.252 26.5872 206.585 27.117 205.753 27.6069C204.922 28.0968 203.965 28.3418 202.882 28.3418C201.8 28.3418 200.917 28.0513 200.233 27.4702C199.55 26.8892 199.208 25.8979 199.208 24.4966C199.208 23.38 199.254 21.8875 199.345 20.019C199.436 18.1506 199.527 16.6466 199.618 15.5073C199.322 15.1883 198.957 15.0174 198.524 14.9946C198.126 15.5073 197.539 16.5327 196.764 18.0708C195.989 19.6089 195.443 20.7596 195.124 21.5229C195.101 21.6825 195.089 21.8363 195.089 21.9844C195.089 22.554 195.175 23.3231 195.346 24.2915C195.517 25.2485 195.727 26.1429 195.978 26.9746C195.773 27.362 195.351 27.6867 194.713 27.9487C194.075 28.2108 193.289 28.3418 192.355 28.3418C191.512 28.3418 190.834 28.2734 190.321 28.1367C189.82 28 189.467 27.8576 189.262 27.7095C189.057 27.55 188.954 27.4531 188.954 27.4189C188.943 27.3164 188.914 27.0487 188.869 26.6157C188.823 26.1714 188.778 25.5562 188.732 24.77C188.686 23.9725 188.664 23.0667 188.664 22.0527Z" fill="#F62700"/>
</svg>
