<svg width="105" height="105" viewBox="0 0 105 105" fill="none" xmlns="http://www.w3.org/2000/svg">
<path d="M63.7355 26.8755C68.2682 34.8501 67.6474 48.3576 58.9299 57.6335C50.1106 67.0198 36.4247 68.7759 26.7793 63.7687C39.0943 51.476 51.4507 39.138 63.7355 26.8755Z" fill="#FE2B00"/>
<path d="M43.5066 6.30176C31.0852 18.7119 18.7098 31.0729 6.35343 43.4181C1.4874 34.6908 2.58202 21.6335 10.6551 12.7434C19.0091 3.53898 32.1418 0.916643 43.5066 6.30176Z" fill="#FE2B00"/>
<path d="M104.993 100.544C104.895 102.478 104.001 103.875 102.183 104.628C100.343 105.389 98.7263 104.954 97.3515 103.587C92.8832 99.1479 88.426 94.6894 83.9727 90.2348C75.5052 81.7726 67.0568 73.2906 58.5512 64.8658C57.6121 63.9392 57.4455 63.4542 58.6083 62.6182C60.1951 61.475 61.5503 60.0405 62.7394 58.4852C63.353 57.6793 63.7506 57.4444 64.5952 58.2922C77.5389 71.2812 90.5128 84.2361 103.479 97.1988C104.403 98.1222 105.028 99.1741 104.993 100.544Z" fill="#FE2B00"/>
<path d="M10.3938 88.271C10.3938 84.4103 10.3938 80.694 10.3938 76.981C10.3938 73.6998 10.6018 73.4957 13.9611 73.4957C18.9446 73.4957 23.9281 73.4878 28.9116 73.4957C30.9643 73.499 31.4716 73.9951 31.4795 76.0465C31.4946 81.0267 31.551 86.0076 31.4605 90.9845C31.3843 94.9961 28.0861 98.1487 24.3107 98.0201C20.3496 97.8875 17.2482 94.4738 17.4714 90.4923C17.7175 86.0496 22.2048 82.9423 26.5603 84.3762C28.0257 84.8572 28.0789 84.407 28.0369 83.2337C27.9725 81.534 27.9804 79.8271 28.0369 78.1281C28.067 77.212 27.7415 76.9396 26.8405 76.9508C22.993 76.9889 19.1454 77.0151 15.2979 76.9396C14.1009 76.9167 14.0064 77.4351 14.0143 78.3926C14.0484 83.4981 14.0484 88.6037 14.0254 93.7092C14.0064 97.6906 11.9465 100.472 8.50055 101.252C5.59996 101.907 2.69871 100.753 1.10864 98.3042C-0.44797 95.9044 -0.356752 92.5667 1.32782 90.3184C3.1607 87.8733 6.09214 86.9427 9.04194 87.8621C9.39763 87.9717 9.7579 88.0741 10.3938 88.2631V88.271Z" fill="#FE2B00"/>
<path d="M15.6612 55.1807C13.1241 52.6529 10.8023 50.5444 8.894 48.0349C8.30338 47.2592 8.12883 46.7257 8.98129 45.8818C21.3075 33.6271 33.6035 21.3416 45.8614 9.01873C46.7132 8.16365 47.1831 8.41695 47.9935 8.93932C49.9741 10.2183 51.114 11.6982 50.8338 14.3172C50.5266 17.1824 50.7012 20.1079 50.7917 23.0032C50.8298 24.2107 50.417 24.4719 49.2922 24.4568C44.881 24.3958 40.4651 24.4227 36.0532 24.4378C33.694 24.445 33.1946 24.9523 33.1868 27.3521C33.1756 31.7004 33.1303 36.0454 33.2169 40.3936C33.2438 41.7567 32.793 42.0671 31.5055 42.0441C27.1579 41.9686 22.807 42.01 18.4561 42.0178C16.1343 42.0211 15.6723 42.472 15.6612 44.7537C15.6461 48.0841 15.6572 51.4113 15.6572 55.1807H15.6612Z" fill="#FE2B00"/>
<path d="M54.223 14.7534C56.7647 17.3042 59.1389 19.435 61.0663 22.0049C61.6418 22.7727 61.7856 23.2537 61.0132 24.0222C48.645 36.3333 36.3037 48.668 23.9775 61.0211C23.3226 61.676 22.8829 61.7174 22.1066 61.195C20.1227 59.8556 18.8352 58.3948 19.1377 55.6734C19.4599 52.8121 19.2631 49.8827 19.1837 46.9874C19.1495 45.833 19.4599 45.4885 20.6451 45.5115C25.057 45.583 29.4683 45.5456 33.8841 45.5377C36.1941 45.5344 36.7847 44.951 36.7887 42.6614C36.7959 38.4418 36.8608 34.2182 36.7545 30.0018C36.7165 28.4991 36.9967 27.9583 38.6517 28.0108C42.9344 28.1473 47.2216 28.0679 51.5082 28.0528C53.6626 28.0449 54.2119 27.5035 54.2197 25.3996C54.2348 22.0009 54.2197 18.6023 54.2197 14.7567L54.223 14.7534Z" fill="#FE2B00"/>
<path d="M80.4205 11.241C80.4205 8.34176 80.4133 5.58292 80.4205 2.82342C80.4317 0.50361 80.8753 0.0534281 83.1702 0.0343971C85.3778 0.0193036 87.5893 0.113799 89.7929 0.00420656C91.5084 -0.0791361 90.9105 1.09423 90.9781 1.90009C91.0542 2.78602 91.1678 3.67128 89.7214 3.54266C88.2823 3.41797 86.8169 3.58794 85.3699 3.49344C84.253 3.42126 84.018 3.84913 84.0292 4.88271C84.0823 8.91663 84.1014 12.9512 84.0371 16.9858C83.9498 22.4359 79.0837 25.9218 74.3654 23.98C70.84 22.5264 69.1167 18.6513 70.4154 15.0787C71.6689 11.623 75.3989 9.76449 78.9932 10.8092C79.406 10.9306 79.8148 11.0593 80.4133 11.241H80.4205Z" fill="#FE2B00"/>
</svg>
