<svg width="451" height="507" viewBox="0 0 451 507" fill="none" xmlns="http://www.w3.org/2000/svg">
<g clip-path="url(#clip0_2053_111)">
<path d="M340.754 202.142C330.463 173.551 299.111 167.482 296.154 166.975C291.356 165.237 268.295 156.446 261.845 145.698C254.641 133.691 253.83 107.287 253.83 107.287C241.277 110.952 227.942 110.952 215.39 107.287C215.39 107.287 214.593 133.691 207.389 145.698C200.185 157.706 172.152 167.308 172.152 167.308C172.152 167.308 138.119 172.508 127.306 202.519C116.493 232.53 90.0694 323.764 104.477 342.361C112.536 352.775 144.279 341.767 173.529 329.108C172.5 381.221 148.932 416.186 148.932 416.186L234.624 442.59L320.316 416.186C320.316 416.186 296.777 381.279 295.719 329.239C324.636 341.68 355.64 352.254 363.583 341.985C378.005 323.373 351.567 232.153 340.754 202.142ZM139.568 304.37L140.293 304.008C140.293 304.008 140.061 304.066 139.641 304.167L156.948 249.722C164.369 266.277 168.862 282.209 171.283 297.229C160.339 301.488 149.004 304.746 139.337 305.137L139.583 304.37H139.568ZM297.966 297.316C300.314 282.702 304.648 267.233 311.707 251.17L328.433 303.805C328.013 303.704 327.781 303.646 327.781 303.646L328.506 304.008L328.752 304.775C319.432 304.399 308.547 301.357 297.966 297.316Z" fill="#2F003F"/>
<path d="M148.932 416.186C148.932 416.186 62.4428 393.779 14.3931 429.786C-33.6565 465.793 46.4262 520.209 139.322 503.408C232.218 486.607 291.487 510.491 359.553 506.551C427.62 502.611 472.466 464.997 440.433 432.987C408.4 400.978 334.594 411.783 320.302 416.186C306.01 420.589 232.204 440.2 148.918 416.186H148.932Z" fill="#2F003F"/>
<path d="M128.828 435.623C128.611 433.306 128.524 430.93 129.031 428.628C129.51 426.325 130.524 424.138 132.061 422.342C132.466 421.921 132.814 421.415 133.278 421.067L134.641 419.937C135.133 419.619 135.655 419.329 136.148 419.025C136.641 418.692 137.177 418.445 137.728 418.243L139.366 417.562L141.062 417.084C142.192 416.722 143.352 416.533 144.512 416.36C149.15 415.476 154.078 416.027 158.412 417.938C162.789 419.792 166.543 422.747 170.152 425.716C173.776 428.656 177.313 431.828 181.574 433.596C183.69 434.494 185.981 434.914 188.256 434.754C190.575 434.58 192.924 434.363 195.272 434.276C199.953 434.059 204.766 434.233 209.331 435.594C213.926 436.912 218.028 439.49 221.753 442.344L221.695 442.3C224.928 444.096 228.479 445.371 232.146 445.632C233.059 445.704 233.972 445.704 234.885 445.632L237.683 445.371L243.292 444.792C250.757 443.952 258.222 442.981 265.658 441.938C280.543 439.809 295.357 437.202 310.055 434.03C313.736 433.262 317.389 432.408 321.056 431.553C324.709 430.684 328.448 430.018 332.13 429.236C339.595 428.15 347.146 427.527 354.698 427.932C362.235 428.367 369.714 429.743 376.875 432.118C378.687 432.654 380.411 433.436 382.18 434.088C383.89 434.87 385.644 435.58 387.296 436.492C390.645 438.201 393.877 440.186 396.761 442.605C393.833 440.244 390.572 438.317 387.209 436.652C385.543 435.783 383.789 435.087 382.078 434.334C380.31 433.711 378.585 432.958 376.773 432.451C369.613 430.192 362.148 428.99 354.669 428.555C347.161 428.193 339.667 428.859 332.26 429.975C328.593 430.771 324.912 431.437 321.259 432.335C317.592 433.204 313.939 434.088 310.257 434.885C295.56 438.143 280.732 440.837 265.831 443.054C258.381 444.183 250.916 445.125 243.423 445.907L237.799 446.457L234.972 446.703C234.001 446.761 233.03 446.761 232.073 446.674C228.218 446.37 224.522 445.023 221.203 443.155L221.145 443.111C217.477 440.273 213.52 437.752 209.071 436.449C204.65 435.116 199.953 434.914 195.301 435.102C192.967 435.174 190.648 435.377 188.3 435.536C185.894 435.681 183.459 435.232 181.27 434.276C176.849 432.393 173.298 429.163 169.703 426.209C166.123 423.225 162.427 420.299 158.165 418.46C153.933 416.591 149.164 415.954 144.569 416.751C143.41 416.91 142.265 417.069 141.149 417.417L139.467 417.866L137.858 418.518C137.308 418.721 136.786 418.952 136.293 419.271C135.8 419.561 135.278 419.836 134.786 420.154L133.423 421.241C132.945 421.588 132.611 422.066 132.206 422.472C130.669 424.21 129.626 426.368 129.118 428.642C128.567 430.916 128.625 433.291 128.799 435.609L128.828 435.623Z" fill="#870084"/>
<path d="M76.8506 442.59C78.1841 441.373 79.8075 440.519 81.4309 439.765C83.0688 439.012 84.7646 438.404 86.4895 437.868C89.9392 436.782 93.5049 436.13 97.0706 435.594C104.216 434.609 111.464 434.319 118.682 434.508C125.9 434.609 133.133 435.348 140.207 436.854C147.28 438.331 154.223 440.417 161.021 442.821C174.646 447.645 187.734 453.713 201.055 459.174C207.722 461.868 214.433 464.518 221.246 466.763C228.029 468.921 235.161 470.645 242.234 469.877H242.162C247.206 468.501 252.583 467.705 257.859 468.574C263.121 469.414 267.991 471.572 272.673 473.889C275.05 475.034 277.239 476.424 279.761 476.815C282.268 477.279 284.863 477.047 287.385 476.555C292.458 475.526 297.328 473.542 302.445 472.369C307.518 471.152 313.026 470.833 318.07 472.557C323.042 474.266 327.68 477.322 330.593 481.783C332.028 483.999 332.912 486.592 333.028 489.242C333.101 490.56 332.999 491.878 332.739 493.168C332.492 494.457 332.144 495.731 331.666 496.948C330.738 499.396 329.361 501.699 327.463 503.509C326.506 504.407 325.39 505.117 324.172 505.624C322.94 506.102 321.621 506.247 320.317 506.189C321.621 506.218 322.926 506.058 324.143 505.566C325.332 505.044 326.433 504.32 327.376 503.422C329.231 501.597 330.564 499.294 331.434 496.861C331.883 495.644 332.217 494.384 332.434 493.11C332.666 491.835 332.739 490.531 332.666 489.257C332.521 486.679 331.622 484.188 330.188 482.058C328.782 479.915 326.868 478.104 324.752 476.641C322.65 475.15 320.317 473.991 317.867 473.18C312.953 471.529 307.605 471.847 302.604 473.078C297.546 474.252 292.704 476.265 287.53 477.351C284.95 477.873 282.254 478.133 279.601 477.655C278.282 477.409 276.978 477.047 275.775 476.439C274.572 475.874 273.441 475.251 272.267 474.701C267.6 472.427 262.788 470.326 257.7 469.559C252.612 468.748 247.423 469.544 242.452 470.935H242.379C235.03 471.789 227.769 470.051 220.898 467.908C214.013 465.648 207.331 462.94 200.664 460.202C187.343 454.655 174.298 448.514 160.76 443.647C153.991 441.214 147.106 439.099 140.076 437.593C133.046 436.043 125.886 435.275 118.697 435.145C111.507 434.957 104.303 435.044 97.1575 435.942C93.5919 436.42 90.0407 437.013 86.591 438.042C84.8661 438.549 83.1557 439.143 81.5179 439.852C79.88 440.591 78.2566 441.417 76.8941 442.604L76.8506 442.59Z" fill="#870084"/>
<path d="M234.624 210.311C233.9 210.442 233.45 211.094 233.088 211.687C232.726 212.296 232.436 212.947 232.175 213.599C231.653 214.917 231.247 216.279 230.885 217.655C230.146 220.392 229.566 223.188 228.986 225.968C227.826 231.545 226.841 237.15 225.812 242.755C224.754 248.361 223.696 253.951 222.435 259.528C221.797 262.309 221.13 265.09 220.26 267.841C219.825 269.217 219.347 270.579 218.738 271.911C218.434 272.578 218.086 273.23 217.666 273.867C217.231 274.475 216.724 275.156 215.767 275.475L215.912 275.402C212.477 277.502 208.983 279.501 205.461 281.456C201.954 283.412 198.359 285.237 194.764 287.033C191.155 288.814 187.531 290.552 183.85 292.145C180.168 293.768 176.429 295.245 172.689 296.679C176.371 295.086 180.052 293.464 183.647 291.696C187.256 289.944 190.865 288.177 194.402 286.308C197.953 284.455 201.461 282.499 204.954 280.544C208.447 278.574 211.911 276.561 215.303 274.446C215.347 274.417 215.376 274.403 215.419 274.388H215.448C215.883 274.243 216.347 273.751 216.695 273.215C217.057 272.665 217.376 272.056 217.666 271.419C218.231 270.159 218.695 268.826 219.115 267.479C219.956 264.785 220.666 262.033 221.304 259.267C222.594 253.734 223.696 248.143 224.797 242.553C225.928 236.976 227.058 231.385 228.334 225.824C228.972 223.043 229.696 220.276 230.537 217.553C230.972 216.192 231.421 214.83 232.001 213.527C232.291 212.875 232.61 212.223 233.001 211.629C233.392 211.05 233.871 210.413 234.61 210.297L234.624 210.311Z" fill="#870084"/>
<path d="M173.544 329.094L207.2 313.031L215.694 309.15C218.55 307.89 221.362 306.586 224.348 305.558C227.333 304.862 229.145 302.067 230.537 299.387C231.957 296.65 232.943 293.695 233.871 290.726C233.204 293.768 232.334 296.766 231.073 299.634C230.406 301.053 229.653 302.458 228.623 303.689C228.116 304.312 227.522 304.877 226.855 305.355C226.188 305.833 225.348 306.151 224.666 306.412C218.941 308.701 213.346 311.453 207.722 314.089C202.069 316.681 196.445 319.346 190.764 321.852C185.082 324.372 179.356 326.82 173.558 329.065L173.544 329.094Z" fill="#870084"/>
<path d="M139.322 304.022C137.511 304.703 135.699 305.355 133.916 306.065C132.147 306.789 130.379 307.498 128.654 308.31C126.929 309.106 125.248 309.99 123.596 310.931C121.972 311.902 120.407 313.002 118.899 314.219C120.044 312.64 121.508 311.322 123.088 310.149C124.668 308.99 126.393 308.063 128.147 307.209C129.93 306.412 131.742 305.717 133.611 305.181C135.481 304.645 137.38 304.196 139.308 304.008L139.322 304.022Z" fill="#870084"/>
<path d="M233.436 209.935C234.175 210.036 234.654 210.688 235.045 211.267C235.436 211.861 235.755 212.513 236.045 213.164C236.625 214.468 237.074 215.83 237.509 217.191C238.35 219.914 239.074 222.68 239.712 225.461C240.988 231.023 242.118 236.614 243.249 242.19C244.35 247.781 245.452 253.372 246.742 258.905C247.394 261.671 248.09 264.423 248.945 267.117C249.366 268.464 249.829 269.797 250.395 271.057C250.685 271.68 250.989 272.302 251.366 272.853C251.728 273.403 252.192 273.881 252.612 274.026H252.641C252.641 274.026 252.728 274.069 252.772 274.098C259.903 278.516 267.281 282.586 274.731 286.482C278.456 288.437 282.239 290.262 286.037 292.073C289.835 293.898 293.69 295.564 297.589 297.186C293.647 295.723 289.704 294.202 285.834 292.536C281.95 290.885 278.137 289.089 274.354 287.221C266.774 283.513 259.381 279.443 252.163 275.069L252.308 275.141C251.366 274.823 250.844 274.142 250.409 273.533C249.974 272.896 249.641 272.244 249.337 271.578C248.728 270.246 248.25 268.884 247.815 267.508C246.96 264.756 246.278 261.975 245.641 259.194C244.379 253.618 243.321 248.013 242.263 242.422C241.234 236.817 240.248 231.211 239.089 225.635C238.495 222.854 237.929 220.059 237.19 217.321C236.813 215.945 236.422 214.584 235.9 213.266C235.639 212.6 235.349 211.948 234.987 211.354C234.625 210.775 234.175 210.123 233.451 209.978L233.436 209.935Z" fill="#870084"/>
<path d="M295.705 329.238C289.922 327.022 284.225 324.589 278.558 322.083C272.89 319.592 267.281 316.942 261.657 314.364C256.062 311.713 250.482 309.019 244.814 306.6C244.104 306.281 243.394 306.035 242.669 305.76C241.872 305.47 241.191 305.007 240.567 304.485C239.35 303.414 238.451 302.081 237.712 300.705C236.277 297.91 235.32 294.941 234.596 291.942C235.581 294.868 236.654 297.794 238.219 300.415C238.988 301.734 239.901 302.979 241.046 303.906C241.626 304.37 242.249 304.746 242.93 304.963C243.655 305.224 244.423 305.456 245.133 305.746C250.931 308.005 256.512 310.714 262.135 313.277L295.676 329.238H295.705Z" fill="#870084"/>
<path d="M328.738 304.819C330.68 305.007 332.565 305.456 334.435 305.992C336.304 306.528 338.131 307.223 339.899 308.02C341.653 308.86 343.378 309.801 344.958 310.96C346.523 312.133 348.001 313.451 349.147 315.03C347.639 313.799 346.088 312.713 344.45 311.742C342.798 310.801 341.117 309.917 339.392 309.121C337.667 308.309 335.898 307.6 334.13 306.876C332.347 306.166 330.55 305.5 328.724 304.833L328.738 304.819Z" fill="#870084"/>
<path d="M234.624 210.311C234.827 216.93 234.885 223.549 234.943 230.183C235.001 236.802 234.943 243.421 234.943 250.055L234.668 269.912C234.523 276.532 234.364 283.151 234.059 289.77C233.856 283.151 233.784 276.532 233.74 269.898V250.026C233.842 243.407 233.885 236.788 234.03 230.168C234.175 223.549 234.335 216.93 234.639 210.311H234.624Z" fill="#870084"/>
<path d="M182.342 168.655C185.662 170.451 189.082 172.016 192.575 173.377C196.069 174.739 199.576 176.071 203.186 177.114C206.795 178.171 210.476 178.866 214.23 179.301C216.086 179.576 218.028 179.634 219.825 180.431C220.71 180.822 221.478 181.503 221.971 182.343C222.507 183.139 222.826 184.052 223.145 184.935C223.145 184.964 223.145 185.008 223.101 185.008C223.072 185.008 223.029 185.008 223.029 184.964C222.376 183.241 221.434 181.401 219.68 180.749C217.97 180.069 216.042 180.083 214.172 179.895C210.404 179.591 206.621 178.997 202.939 178.041C199.257 177.114 195.605 176.028 192.112 174.492C188.662 172.914 185.241 171.161 182.27 168.771C182.241 168.757 182.241 168.713 182.27 168.684C182.284 168.655 182.328 168.655 182.342 168.684V168.655Z" fill="#870084"/>
<path d="M285.79 168.757C282.819 171.146 279.413 172.899 275.949 174.478C272.47 176.013 268.803 177.099 265.121 178.026C261.439 178.982 257.671 179.576 253.888 179.88C252.018 180.069 250.09 180.054 248.38 180.735C246.611 181.387 245.684 183.226 245.031 184.95C245.031 184.979 244.988 184.993 244.959 184.993C244.93 184.993 244.916 184.95 244.916 184.921C245.234 184.037 245.553 183.125 246.09 182.328C246.582 181.502 247.351 180.822 248.235 180.416C250.032 179.62 251.974 179.576 253.83 179.286C257.569 178.852 261.265 178.157 264.875 177.099C268.484 176.057 272.006 174.738 275.485 173.363C278.978 172.001 282.399 170.437 285.718 168.641C285.747 168.626 285.79 168.641 285.805 168.655C285.819 168.684 285.805 168.713 285.805 168.728L285.79 168.757Z" fill="#870084"/>
<path d="M162.818 260.99C163.253 263.887 163.832 266.755 164.644 269.536C165.441 272.317 166.355 275.083 167.601 277.69C168.833 280.326 170.442 282.76 172.326 284.976C174.138 287.279 176.443 289.104 178.805 290.827C178.834 290.842 178.834 290.871 178.82 290.9C178.805 290.929 178.762 290.929 178.747 290.914C176.298 289.306 173.863 287.568 171.906 285.338C169.906 283.165 168.166 280.732 166.804 278.081C165.412 275.46 164.238 272.693 163.557 269.797C162.919 266.9 162.499 263.931 162.687 260.976C162.687 260.947 162.716 260.918 162.745 260.918C162.774 260.918 162.789 260.947 162.803 260.976L162.818 260.99Z" fill="#870084"/>
<path d="M305.358 260.99C305.561 263.916 305.14 266.842 304.517 269.71C303.85 272.577 302.705 275.3 301.343 277.908C300.024 280.529 298.313 282.948 296.357 285.121C294.443 287.351 292.066 289.089 289.66 290.711C289.631 290.726 289.602 290.711 289.588 290.697C289.573 290.668 289.588 290.639 289.602 290.624C291.907 288.886 294.168 287.047 295.936 284.758C297.777 282.557 299.357 280.124 300.545 277.517C301.763 274.924 302.647 272.186 303.444 269.449C304.256 266.697 304.807 263.873 305.242 261.005C305.242 260.976 305.271 260.947 305.3 260.961C305.329 260.961 305.343 260.99 305.343 261.019L305.358 260.99Z" fill="#870084"/>
<path d="M311.692 251.17C310.721 248.332 310.098 245.42 309.561 242.509C309.068 239.583 308.663 236.643 308.619 233.63C309.605 236.469 310.214 239.38 310.75 242.292C311.243 245.217 311.649 248.158 311.692 251.17Z" fill="#870084"/>
<path d="M156.948 249.722C156.919 246.97 157.238 244.262 157.658 241.582C158.107 238.903 158.644 236.237 159.542 233.63C159.586 236.382 159.252 239.091 158.832 241.77C158.383 244.45 157.846 247.115 156.948 249.722Z" fill="#870084"/>
<path d="M320.317 416.186C315.012 417.735 309.649 419.068 304.271 420.328C298.894 421.574 293.473 422.674 288.037 423.703C282.587 424.644 277.137 425.571 271.644 426.194C266.15 426.817 260.628 427.309 255.091 427.237L259.222 426.875C260.599 426.744 261.961 426.556 263.324 426.397C266.063 426.078 268.788 425.716 271.513 425.281C276.963 424.47 282.399 423.558 287.82 422.53C293.255 421.603 298.662 420.487 304.068 419.444L320.302 416.2L320.317 416.186Z" fill="#870084"/>
<path d="M273.354 36.6491C262.758 -1.4581 204.229 -1.64639 193.575 36.6491C188.314 55.5651 189.488 76.5813 196.663 94.8455C207.896 123.451 233.276 126.218 233.276 126.218C233.276 126.218 258.917 123.437 270.151 94.8455C277.325 76.5813 278.615 55.5506 273.368 36.6491H273.354Z" fill="#2F003F"/>
<path d="M211.694 116.166C213.346 117.31 214.97 118.483 216.723 119.454C218.419 120.497 220.217 121.38 222.028 122.191C223.855 122.988 225.696 123.712 227.594 124.306C229.479 124.9 231.436 125.378 233.334 125.624H233.204C235.146 125.363 237.132 124.885 239.045 124.291C240.973 123.697 242.843 122.959 244.698 122.148C246.539 121.322 248.365 120.424 250.09 119.367C251.873 118.382 253.511 117.194 255.192 116.021C253.685 117.397 252.09 118.701 250.409 119.859C248.728 121.032 246.93 122.046 245.104 122.988C243.278 123.944 241.335 124.668 239.393 125.334C237.422 125.971 235.451 126.522 233.349 126.812C233.305 126.812 233.262 126.812 233.218 126.812C231.146 126.507 229.203 125.971 227.276 125.334C225.348 124.682 223.449 123.958 221.652 123.017C218.028 121.206 214.665 118.889 211.723 116.151L211.694 116.166Z" fill="#870084"/>
<path d="M275.977 60.2289C275.977 60.2289 279.093 55.7679 281.992 57.3321C284.891 58.8964 278.644 70.469 278.977 75.3646C279.311 80.2602 273.078 81.1582 273.078 81.1582L275.977 60.2289Z" fill="#2F003F"/>
<path d="M190.894 60.2289C190.894 60.2289 187.778 55.7679 184.879 57.3321C181.98 58.8964 188.227 70.469 187.894 75.3646C187.56 80.2602 193.793 81.1582 193.793 81.1582L190.894 60.2289Z" fill="#2F003F"/>
<g clip-path="url(#clip1_2053_111)">
<path d="M256.864 470.58C259.672 458.783 252.385 446.942 240.587 444.134C228.79 441.325 216.949 448.612 214.141 460.41C211.332 472.208 218.619 484.048 230.417 486.857C242.215 489.665 254.055 482.378 256.864 470.58Z" fill="url(#paint0_radial_2053_111)"/>
<path d="M227.743 458.28H243.269L235.42 472.526L227.743 458.28Z" stroke="#FC4083" stroke-width="0.41" stroke-miterlimit="10"/>
<path d="M252.728 465.934C252.603 475.44 244.823 483.037 235.351 482.911C225.88 482.786 218.294 474.983 218.42 465.477C218.546 455.972 226.326 448.374 235.797 448.5C245.268 448.626 252.854 456.429 252.728 465.934Z" stroke="#FC4083" stroke-width="0.41" stroke-linecap="round" stroke-linejoin="round"/>
<path d="M247.37 453.618H223.618V477.37H247.37V453.618Z" stroke="#FC4083" stroke-width="0.41" stroke-linecap="round" stroke-linejoin="round"/>
<path d="M234.666 440.229C237.876 443.656 250.169 445.781 249.507 455.663" stroke="#FC4083" stroke-width="0.41" stroke-linecap="round" stroke-linejoin="round"/>
<path d="M234.666 440.229C231.753 443.907 219.414 447.003 220.888 456.806" stroke="#FC4083" stroke-width="0.41" stroke-linecap="round" stroke-linejoin="round"/>
<path d="M210.229 466.334C213.656 463.124 216.169 450.728 226.052 451.39" stroke="#FC4083" stroke-width="0.41" stroke-linecap="round" stroke-linejoin="round"/>
<path d="M210.229 466.334C213.907 469.247 216.683 481.78 226.474 480.318" stroke="#FC4083" stroke-width="0.41" stroke-linecap="round" stroke-linejoin="round"/>
<path d="M236.334 490.771C233.123 487.344 220.636 485.219 221.299 475.336" stroke="#FC4083" stroke-width="0.41" stroke-linecap="round" stroke-linejoin="round"/>
<path d="M236.334 490.771C239.247 487.093 251.78 484.316 250.318 474.525" stroke="#FC4083" stroke-width="0.41" stroke-linecap="round" stroke-linejoin="round"/>
<path d="M260.771 464.666C257.344 467.876 255.607 480.249 245.725 479.587" stroke="#FC4083" stroke-width="0.41" stroke-linecap="round" stroke-linejoin="round"/>
<path d="M260.772 464.666C257.093 461.753 253.917 449.3 244.114 450.774" stroke="#FC4083" stroke-width="0.41" stroke-linecap="round" stroke-linejoin="round"/>
</g>
<g clip-path="url(#clip2_2053_111)">
<path d="M248.434 115.506C257.326 107.579 258.071 93.9862 250.099 85.1453C242.127 76.3045 228.456 75.5636 219.565 83.4904C210.674 91.4173 209.929 105.01 217.901 113.851C225.873 122.692 239.543 123.433 248.434 115.506Z" fill="url(#paint1_radial_2053_111)"/>
<g style="mix-blend-mode:screen" opacity="0.61">
<path d="M249.829 87.9337C244.373 79.9132 234 84.1528 234 84.1528C234 84.1528 223.628 79.902 218.171 87.9337C212.715 95.9655 207.529 99.5003 207.529 99.5003C207.529 99.5003 212.715 103.035 218.171 111.067C223.628 119.087 234 114.848 234 114.848C234 114.848 244.373 119.099 249.829 111.067C255.285 103.046 260.471 99.5003 260.471 99.5003C260.471 99.5003 255.285 95.9655 249.829 87.9337Z" stroke="#83A8EE" stroke-width="0.93" stroke-linecap="round" stroke-linejoin="round"/>
<path d="M246.218 108.427C250.437 102.229 254.43 99.4999 254.43 99.4999C254.43 99.4999 250.425 96.7704 246.218 90.5732" stroke="#83A8EE" stroke-width="0.72" stroke-linecap="round" stroke-linejoin="round"/>
<path d="M221.782 90.5732C217.564 96.7704 213.57 99.4999 213.57 99.4999C213.57 99.4999 217.575 102.229 221.782 108.427" stroke="#83A8EE" stroke-width="0.72" stroke-linecap="round" stroke-linejoin="round"/>
<path d="M244.228 110.919C250.568 105.298 251.125 95.6321 245.473 89.3285C239.82 83.0248 230.099 82.4708 223.76 88.0911C217.42 93.7114 216.863 103.378 222.515 109.681C228.167 115.985 237.889 116.539 244.228 110.919Z" stroke="#83A8EE" stroke-width="0.93" stroke-linecap="round" stroke-linejoin="round"/>
<path d="M221.625 91.6587H246.375L233.73 111.895L221.625 91.6587Z" stroke="#83A8EE" stroke-width="0.93" stroke-linecap="round" stroke-linejoin="round"/>
</g>
</g>
<g clip-path="url(#clip3_2053_111)">
<path d="M255.445 401.881C257.354 390.274 249.301 379.348 237.457 377.476C225.613 375.604 214.464 383.497 212.554 395.104C210.644 406.711 218.697 417.637 230.541 419.509C242.385 421.381 253.535 413.488 255.445 401.881Z" fill="url(#paint2_radial_2053_111)"/>
<path d="M253.213 401.059C251.767 411.492 241.99 418.802 231.378 417.396C220.765 415.978 213.328 406.375 214.775 395.941C216.222 385.508 226.009 378.198 236.622 379.604C247.234 381.022 254.671 390.625 253.224 401.059H253.213Z" stroke="#FEC20E" stroke-width="0.47" stroke-linecap="round" stroke-linejoin="round"/>
<path d="M253.213 401.059C251.767 411.492 241.99 418.802 231.378 417.396C220.765 415.978 213.328 406.375 214.775 395.942C215.012 394.247 215.465 392.641 216.109 391.135C216.052 391.412 216.007 391.689 215.973 391.965C214.617 401.746 221.59 410.75 231.536 412.079C241.493 413.408 250.659 406.552 252.015 396.761C252.286 394.834 252.23 392.94 251.891 391.135C253.191 394.158 253.699 397.57 253.213 401.048V401.059Z" stroke="#FEC20E" stroke-width="0.47" stroke-linecap="round" stroke-linejoin="round"/>
<path d="M233.129 374.255C234.734 375.617 240.849 376.614 240.623 380.568" stroke="#FEC20E" stroke-width="0.47" stroke-linecap="round" stroke-linejoin="round"/>
<path d="M233.13 374.255C231.751 375.728 225.704 377.002 226.518 380.912" stroke="#FEC20E" stroke-width="0.47" stroke-linecap="round" stroke-linejoin="round"/>
<path d="M220.878 377.932C222.958 378.331 228.801 376.249 230.621 379.782" stroke="#FEC20E" stroke-width="0.47" stroke-linecap="round" stroke-linejoin="round"/>
<path d="M220.878 377.932C220.426 379.881 215.894 383.946 218.595 386.926" stroke="#FEC20E" stroke-width="0.47" stroke-linecap="round" stroke-linejoin="round"/>
<path d="M212.142 387.125C214.153 386.45 217.951 381.687 221.319 383.847" stroke="#FEC20E" stroke-width="0.47" stroke-linecap="round" stroke-linejoin="round"/>
<path d="M212.142 387.125C212.752 389.031 210.898 394.823 214.764 396.086" stroke="#FEC20E" stroke-width="0.47" stroke-linecap="round" stroke-linejoin="round"/>
<path d="M209.26 399.353C210.65 397.78 211.735 391.788 215.758 392.009" stroke="#FEC20E" stroke-width="0.47" stroke-linecap="round" stroke-linejoin="round"/>
<path d="M209.26 399.353C210.763 400.704 212.085 406.618 216.075 405.821" stroke="#FEC20E" stroke-width="0.47" stroke-linecap="round" stroke-linejoin="round"/>
<path d="M213.012 411.359C213.419 409.321 211.294 403.65 214.9 401.867" stroke="#FEC20E" stroke-width="0.47" stroke-linecap="round" stroke-linejoin="round"/>
<path d="M213.012 411.359C215.001 411.802 219.16 416.299 222.201 413.652" stroke="#FEC20E" stroke-width="0.47" stroke-linecap="round" stroke-linejoin="round"/>
<path d="M222.392 419.921C221.703 417.95 216.911 414.051 219.126 410.739" stroke="#FEC20E" stroke-width="0.47" stroke-linecap="round" stroke-linejoin="round"/>
<path d="M222.393 419.921C224.337 419.323 230.315 421.184 231.604 417.396" stroke="#FEC20E" stroke-width="0.47" stroke-linecap="round" stroke-linejoin="round"/>
<path d="M234.87 422.734C233.265 421.361 227.151 420.375 227.377 416.421" stroke="#FEC20E" stroke-width="0.47" stroke-linecap="round" stroke-linejoin="round"/>
<path d="M234.87 422.734C236.249 421.261 242.409 419.943 241.595 416.033" stroke="#FEC20E" stroke-width="0.47" stroke-linecap="round" stroke-linejoin="round"/>
<path d="M247.122 419.068C245.042 418.669 239.221 420.807 237.402 417.274" stroke="#FEC20E" stroke-width="0.47" stroke-linecap="round" stroke-linejoin="round"/>
<path d="M247.122 419.068C247.574 417.119 252.117 413.054 249.416 410.063" stroke="#FEC20E" stroke-width="0.47" stroke-linecap="round" stroke-linejoin="round"/>
<path d="M255.858 409.875C253.846 410.551 250.049 415.081 246.669 412.921" stroke="#FEC20E" stroke-width="0.47" stroke-linecap="round" stroke-linejoin="round"/>
<path d="M255.858 409.875C255.248 407.97 257.079 402.321 253.213 401.059" stroke="#FEC20E" stroke-width="0.47" stroke-linecap="round" stroke-linejoin="round"/>
<path d="M258.728 397.636C257.338 399.209 256.253 405.201 252.229 404.98" stroke="#FEC20E" stroke-width="0.47" stroke-linecap="round" stroke-linejoin="round"/>
<path d="M258.728 397.636C253.676 393.073 254.773 390.559 251.891 391.135" stroke="#FEC20E" stroke-width="0.47" stroke-linecap="round" stroke-linejoin="round"/>
<path d="M254.988 385.641C254.581 387.679 256.705 393.35 253.1 395.133" stroke="#FEC20E" stroke-width="0.47" stroke-linecap="round" stroke-linejoin="round"/>
<path d="M254.987 385.641C252.998 385.198 248.76 380.646 245.708 383.293" stroke="#FEC20E" stroke-width="0.47" stroke-linecap="round" stroke-linejoin="round"/>
<path d="M245.607 377.079C246.296 379.051 251.032 382.883 248.817 386.195" stroke="#FEC20E" stroke-width="0.47" stroke-linecap="round" stroke-linejoin="round"/>
<path d="M245.607 377.079C243.663 377.677 237.82 375.816 236.531 379.604" stroke="#FEC20E" stroke-width="0.47" stroke-linecap="round" stroke-linejoin="round"/>
<path d="M240.001 374.964C241.154 376.714 246.714 379.317 245.392 383.049" stroke="#FEC20E" stroke-width="0.47" stroke-linecap="round" stroke-linejoin="round"/>
<path d="M240.001 374.964C238.26 376.005 232.101 375.551 231.773 379.527" stroke="#FEC20E" stroke-width="0.47" stroke-linecap="round" stroke-linejoin="round"/>
<path d="M227.196 375.174C229.083 376.127 235.22 375.64 235.977 379.527" stroke="#FEC20E" stroke-width="0.47" stroke-linecap="round" stroke-linejoin="round"/>
<path d="M227.196 375.174C226.213 376.924 220.709 379.682 222.46 383.282" stroke="#FEC20E" stroke-width="0.47" stroke-linecap="round" stroke-linejoin="round"/>
<path d="M216.21 381.631C218.335 381.532 223.331 378.154 225.964 381.155" stroke="#FEC20E" stroke-width="0.47" stroke-linecap="round" stroke-linejoin="round"/>
<path d="M216.21 381.631C216.256 383.636 212.854 388.687 216.21 390.946" stroke="#FEC20E" stroke-width="0.47" stroke-linecap="round" stroke-linejoin="round"/>
<path d="M209.983 392.619C211.769 391.489 214.504 385.996 218.312 387.303" stroke="#FEC20E" stroke-width="0.47" stroke-linecap="round" stroke-linejoin="round"/>
<path d="M209.983 392.619C211.045 394.325 210.661 400.372 214.718 400.694" stroke="#FEC20E" stroke-width="0.47" stroke-linecap="round" stroke-linejoin="round"/>
<path d="M210.198 405.168C211.17 403.318 210.752 397.238 214.707 396.496" stroke="#FEC20E" stroke-width="0.47" stroke-linecap="round" stroke-linejoin="round"/>
<path d="M210.198 405.168C211.983 406.132 214.549 411.647 218.233 409.931" stroke="#FEC20E" stroke-width="0.47" stroke-linecap="round" stroke-linejoin="round"/>
<path d="M216.787 415.934C216.685 413.851 213.204 408.823 216.267 406.242" stroke="#FEC20E" stroke-width="0.47" stroke-linecap="round" stroke-linejoin="round"/>
<path d="M216.787 415.934C218.832 415.889 223.963 419.29 226.269 416" stroke="#FEC20E" stroke-width="0.47" stroke-linecap="round" stroke-linejoin="round"/>
<path d="M227.987 422.026C226.834 420.276 221.24 417.651 222.573 413.918" stroke="#FEC20E" stroke-width="0.47" stroke-linecap="round" stroke-linejoin="round"/>
<path d="M227.987 422.025C229.739 420.984 235.887 421.416 236.215 417.44" stroke="#FEC20E" stroke-width="0.47" stroke-linecap="round" stroke-linejoin="round"/>
<path d="M240.804 421.815C238.916 420.863 232.779 421.317 232.022 417.429" stroke="#FEC20E" stroke-width="0.47" stroke-linecap="round" stroke-linejoin="round"/>
<path d="M240.804 421.815C241.787 420.065 247.348 417.374 245.596 413.774" stroke="#FEC20E" stroke-width="0.47" stroke-linecap="round" stroke-linejoin="round"/>
<path d="M251.789 415.358C249.664 415.458 244.624 418.858 241.99 415.867" stroke="#FEC20E" stroke-width="0.47" stroke-linecap="round" stroke-linejoin="round"/>
<path d="M251.789 415.358C251.744 413.353 255.112 408.424 251.755 406.154" stroke="#FEC20E" stroke-width="0.47" stroke-linecap="round" stroke-linejoin="round"/>
<path d="M258.005 404.382C256.22 405.512 253.496 410.994 249.687 409.687" stroke="#FEC20E" stroke-width="0.47" stroke-linecap="round" stroke-linejoin="round"/>
<path d="M258.005 404.382C256.943 402.676 257.542 396.64 253.484 396.318" stroke="#FEC20E" stroke-width="0.47" stroke-linecap="round" stroke-linejoin="round"/>
<path d="M257.79 391.833C256.818 393.682 257.259 399.619 253.292 400.35" stroke="#FEC20E" stroke-width="0.47" stroke-linecap="round" stroke-linejoin="round"/>
<path d="M257.79 391.833C256.004 390.869 253.19 385.342 249.517 387.059" stroke="#FEC20E" stroke-width="0.47" stroke-linecap="round" stroke-linejoin="round"/>
<path d="M251.201 381.067C251.303 383.149 254.716 388.045 251.665 390.625" stroke="#FEC20E" stroke-width="0.47" stroke-linecap="round" stroke-linejoin="round"/>
<path d="M251.201 381.067C249.156 381.111 244.002 377.7 241.696 380.989" stroke="#FEC20E" stroke-width="0.47" stroke-linecap="round" stroke-linejoin="round"/>
</g>
<g clip-path="url(#clip4_2053_111)">
<path d="M255.156 334.952C257.889 323.265 250.635 311.574 238.954 308.839C227.272 306.104 215.587 313.362 212.853 325.049C210.12 336.736 217.374 348.427 229.055 351.162C240.737 353.896 252.422 346.639 255.156 334.952Z" fill="url(#paint3_radial_2053_111)"/>
<path d="M250.823 330.22C250.699 339.549 243.07 347.012 233.768 346.888C224.478 346.763 217.041 339.108 217.166 329.78C217.29 320.451 224.919 312.988 234.22 313.112C243.511 313.237 250.948 320.892 250.823 330.22Z" stroke="#FFFF93" stroke-width="0.4" stroke-linecap="round" stroke-linejoin="round"/>
<path d="M231.497 310.5C232.175 311.055 234.526 311.269 234.639 313.101" stroke="#FFFF93" stroke-width="0.4" stroke-linecap="round" stroke-linejoin="round"/>
<path d="M231.497 310.5C231.056 311.247 228.66 312.038 229.18 313.814" stroke="#FFFF93" stroke-width="0.4" stroke-linecap="round" stroke-linejoin="round"/>
<path d="M231.327 308.046C232.582 309.211 237.17 309.81 237.193 313.417" stroke="#FFFF93" stroke-width="0.4" stroke-linecap="round" stroke-linejoin="round"/>
<path d="M231.327 308.046C230.367 309.46 226.117 311.167 226.908 314.684" stroke="#FFFF93" stroke-width="0.4" stroke-linecap="round" stroke-linejoin="round"/>
<path d="M231.079 306.226C232.887 307.888 239.465 308.849 239.487 314.028" stroke="#FFFF93" stroke-width="0.4" stroke-linecap="round" stroke-linejoin="round"/>
<path d="M231.079 306.226C229.7 308.25 223.698 310.772 224.84 315.826" stroke="#FFFF93" stroke-width="0.4" stroke-linecap="round" stroke-linejoin="round"/>
<path d="M215.866 322.418C216.68 322.113 218.104 320.179 219.754 320.993" stroke="#FFFF93" stroke-width="0.4" stroke-linecap="round" stroke-linejoin="round"/>
<path d="M215.866 322.418C216.296 323.176 215.866 325.516 217.652 325.957" stroke="#FFFF93" stroke-width="0.4" stroke-linecap="round" stroke-linejoin="round"/>
<path d="M213.651 321.344C215.278 320.835 218.115 317.194 221.246 318.981" stroke="#FFFF93" stroke-width="0.4" stroke-linecap="round" stroke-linejoin="round"/>
<path d="M213.651 321.344C214.397 322.882 213.741 327.416 217.188 328.49" stroke="#FFFF93" stroke-width="0.4" stroke-linecap="round" stroke-linejoin="round"/>
<path d="M211.967 320.643C214.306 319.919 218.432 314.695 222.93 317.251" stroke="#FFFF93" stroke-width="0.4" stroke-linecap="round" stroke-linejoin="round"/>
<path d="M211.967 320.643C213.029 322.848 212.215 329.305 217.154 330.854" stroke="#FFFF93" stroke-width="0.4" stroke-linecap="round" stroke-linejoin="round"/>
<path d="M218.375 341.912C218.51 341.053 217.583 338.904 219.109 337.875" stroke="#FFFF93" stroke-width="0.4" stroke-linecap="round" stroke-linejoin="round"/>
<path d="M218.375 341.912C219.245 341.923 221.076 343.506 222.342 342.183" stroke="#FFFF93" stroke-width="0.4" stroke-linecap="round" stroke-linejoin="round"/>
<path d="M216.329 343.303C216.702 341.63 214.939 337.333 218.058 335.512" stroke="#FFFF93" stroke-width="0.4" stroke-linecap="round" stroke-linejoin="round"/>
<path d="M216.329 343.303C218.036 343.428 221.63 346.254 224.286 343.812" stroke="#FFFF93" stroke-width="0.4" stroke-linecap="round" stroke-linejoin="round"/>
<path d="M214.882 344.411C215.425 342.014 212.961 335.829 217.425 333.217" stroke="#FFFF93" stroke-width="0.4" stroke-linecap="round" stroke-linejoin="round"/>
<path d="M214.882 344.411C217.324 344.592 222.511 348.527 226.309 345.022" stroke="#FFFF93" stroke-width="0.4" stroke-linecap="round" stroke-linejoin="round"/>
<path d="M236.503 349.5C235.825 348.946 233.474 348.731 233.361 346.899" stroke="#FFFF93" stroke-width="0.4" stroke-linecap="round" stroke-linejoin="round"/>
<path d="M236.503 349.5C236.944 348.754 239.227 347.996 238.707 346.221" stroke="#FFFF93" stroke-width="0.4" stroke-linecap="round" stroke-linejoin="round"/>
<path d="M236.673 351.965C235.418 350.8 230.83 350.201 230.818 346.594" stroke="#FFFF93" stroke-width="0.4" stroke-linecap="round" stroke-linejoin="round"/>
<path d="M236.673 351.965C237.634 350.551 241.883 348.844 241.092 345.327" stroke="#FFFF93" stroke-width="0.4" stroke-linecap="round" stroke-linejoin="round"/>
<path d="M236.91 353.774C235.113 352.112 228.524 351.15 228.501 345.972" stroke="#FFFF93" stroke-width="0.4" stroke-linecap="round" stroke-linejoin="round"/>
<path d="M236.91 353.774C238.289 351.75 244.29 349.228 243.149 344.174" stroke="#FFFF93" stroke-width="0.4" stroke-linecap="round" stroke-linejoin="round"/>
<path d="M252.123 337.581C251.309 337.886 249.919 339.775 248.269 338.961" stroke="#FFFF93" stroke-width="0.4" stroke-linecap="round" stroke-linejoin="round"/>
<path d="M252.123 337.581C251.694 336.824 252.134 334.426 250.349 333.985" stroke="#FFFF93" stroke-width="0.4" stroke-linecap="round" stroke-linejoin="round"/>
<path d="M254.338 338.667C252.711 339.176 249.874 342.817 246.743 341.03" stroke="#FFFF93" stroke-width="0.4" stroke-linecap="round" stroke-linejoin="round"/>
<path d="M254.338 338.667C253.592 337.129 254.191 332.595 250.755 331.521" stroke="#FFFF93" stroke-width="0.4" stroke-linecap="round" stroke-linejoin="round"/>
<path d="M256.033 339.356C253.694 340.08 249.569 345.304 245.07 342.749" stroke="#FFFF93" stroke-width="0.4" stroke-linecap="round" stroke-linejoin="round"/>
<path d="M256.033 339.357C254.971 337.152 255.785 330.695 250.846 329.146" stroke="#FFFF93" stroke-width="0.4" stroke-linecap="round" stroke-linejoin="round"/>
<path d="M249.625 318.087C249.489 318.947 250.427 321.106 248.89 322.135" stroke="#FFFF93" stroke-width="0.4" stroke-linecap="round" stroke-linejoin="round"/>
<path d="M249.625 318.087C248.754 318.087 246.924 316.493 245.658 317.816" stroke="#FFFF93" stroke-width="0.4" stroke-linecap="round" stroke-linejoin="round"/>
<path d="M251.671 316.708C251.298 318.382 253.208 322.577 250.088 324.397" stroke="#FFFF93" stroke-width="0.4" stroke-linecap="round" stroke-linejoin="round"/>
<path d="M251.671 316.708C249.964 316.584 246.37 313.757 243.714 316.199" stroke="#FFFF93" stroke-width="0.4" stroke-linecap="round" stroke-linejoin="round"/>
<path d="M253.117 315.588C252.575 317.986 255.039 324.171 250.574 326.783" stroke="#FFFF93" stroke-width="0.4" stroke-linecap="round" stroke-linejoin="round"/>
<path d="M253.117 315.588C250.676 315.408 245.488 311.473 241.691 314.978" stroke="#FFFF93" stroke-width="0.4" stroke-linecap="round" stroke-linejoin="round"/>
<path d="M241.623 311.891C241.928 312.705 243.838 314.096 243.025 315.747" stroke="#FFFF93" stroke-width="0.4" stroke-linecap="round" stroke-linejoin="round"/>
<path d="M241.623 311.891C240.866 312.309 238.526 311.835 238.085 313.621" stroke="#FFFF93" stroke-width="0.4" stroke-linecap="round" stroke-linejoin="round"/>
<path d="M242.72 309.675C243.228 311.314 246.879 314.164 245.082 317.285" stroke="#FFFF93" stroke-width="0.4" stroke-linecap="round" stroke-linejoin="round"/>
<path d="M242.72 309.675C241.183 310.41 236.65 309.754 235.565 313.191" stroke="#FFFF93" stroke-width="0.4" stroke-linecap="round" stroke-linejoin="round"/>
<path d="M243.42 307.979C244.144 310.319 249.354 314.469 246.777 318.958" stroke="#FFFF93" stroke-width="0.4" stroke-linecap="round" stroke-linejoin="round"/>
<path d="M243.42 307.979C241.205 309.041 234.752 308.205 233.203 313.135" stroke="#FFFF93" stroke-width="0.4" stroke-linecap="round" stroke-linejoin="round"/>
<path d="M222.139 314.334C222.998 314.481 225.145 313.519 226.162 315.046" stroke="#FFFF93" stroke-width="0.4" stroke-linecap="round" stroke-linejoin="round"/>
<path d="M222.139 314.333C222.127 315.204 220.556 317.013 221.879 318.291" stroke="#FFFF93" stroke-width="0.4" stroke-linecap="round" stroke-linejoin="round"/>
<path d="M220.76 312.287C222.421 312.671 226.693 310.919 228.502 314.04" stroke="#FFFF93" stroke-width="0.4" stroke-linecap="round" stroke-linejoin="round"/>
<path d="M220.76 312.287C220.624 313.995 217.787 317.579 220.229 320.236" stroke="#FFFF93" stroke-width="0.4" stroke-linecap="round" stroke-linejoin="round"/>
<path d="M219.652 310.828C222.048 311.371 228.23 308.94 230.83 313.406" stroke="#FFFF93" stroke-width="0.4" stroke-linecap="round" stroke-linejoin="round"/>
<path d="M219.652 310.828C219.46 313.271 215.516 318.449 219.008 322.26" stroke="#FFFF93" stroke-width="0.4" stroke-linecap="round" stroke-linejoin="round"/>
<path d="M214.51 332.448C215.064 331.77 215.357 329.429 217.2 329.305" stroke="#FFFF93" stroke-width="0.4" stroke-linecap="round" stroke-linejoin="round"/>
<path d="M214.51 332.448C215.256 332.901 216.069 335.207 217.833 334.71" stroke="#FFFF93" stroke-width="0.4" stroke-linecap="round" stroke-linejoin="round"/>
<path d="M212.046 332.606C213.21 331.351 213.877 326.76 217.482 326.76" stroke="#FFFF93" stroke-width="0.4" stroke-linecap="round" stroke-linejoin="round"/>
<path d="M212.046 332.606C213.459 333.567 215.143 337.83 218.669 337.05" stroke="#FFFF93" stroke-width="0.4" stroke-linecap="round" stroke-linejoin="round"/>
<path d="M210.226 332.844C211.899 331.046 212.882 324.465 218.047 324.454" stroke="#FFFF93" stroke-width="0.4" stroke-linecap="round" stroke-linejoin="round"/>
<path d="M210.226 332.844C212.249 334.235 214.747 340.239 219.799 339.119" stroke="#FFFF93" stroke-width="0.4" stroke-linecap="round" stroke-linejoin="round"/>
<path d="M226.365 348.109C226.06 347.295 224.15 345.904 224.964 344.253" stroke="#FFFF93" stroke-width="0.4" stroke-linecap="round" stroke-linejoin="round"/>
<path d="M226.365 348.109C227.122 347.691 229.462 348.165 229.903 346.379" stroke="#FFFF93" stroke-width="0.4" stroke-linecap="round" stroke-linejoin="round"/>
<path d="M225.28 350.325C224.772 348.685 221.121 345.836 222.918 342.715" stroke="#FFFF93" stroke-width="0.4" stroke-linecap="round" stroke-linejoin="round"/>
<path d="M225.28 350.325C226.817 349.59 231.349 350.246 232.434 346.808" stroke="#FFFF93" stroke-width="0.4" stroke-linecap="round" stroke-linejoin="round"/>
<path d="M224.58 352.021C223.856 349.68 218.646 345.531 221.223 341.042" stroke="#FFFF93" stroke-width="0.4" stroke-linecap="round" stroke-linejoin="round"/>
<path d="M224.58 352.021C226.795 350.958 233.237 351.795 234.797 346.865" stroke="#FFFF93" stroke-width="0.4" stroke-linecap="round" stroke-linejoin="round"/>
<path d="M245.862 345.666C245.003 345.519 242.833 346.492 241.815 344.965" stroke="#FFFF93" stroke-width="0.4" stroke-linecap="round" stroke-linejoin="round"/>
<path d="M245.862 345.666C245.873 344.796 247.467 342.975 246.144 341.697" stroke="#FFFF93" stroke-width="0.4" stroke-linecap="round" stroke-linejoin="round"/>
<path d="M247.24 347.713C245.568 347.328 241.307 349.081 239.499 345.96" stroke="#FFFF93" stroke-width="0.4" stroke-linecap="round" stroke-linejoin="round"/>
<path d="M247.24 347.713C247.376 346.005 250.201 342.421 247.771 339.764" stroke="#FFFF93" stroke-width="0.4" stroke-linecap="round" stroke-linejoin="round"/>
<path d="M248.348 349.171C245.952 348.629 239.77 351.06 237.17 346.593" stroke="#FFFF93" stroke-width="0.4" stroke-linecap="round" stroke-linejoin="round"/>
<path d="M248.348 349.172C248.54 346.729 252.485 341.55 248.992 337.74" stroke="#FFFF93" stroke-width="0.4" stroke-linecap="round" stroke-linejoin="round"/>
<path d="M253.491 327.552C252.937 328.23 252.665 330.616 250.823 330.74" stroke="#FFFF93" stroke-width="0.4" stroke-linecap="round" stroke-linejoin="round"/>
<path d="M253.491 327.552C252.745 327.099 251.942 324.827 250.179 325.336" stroke="#FFFF93" stroke-width="0.4" stroke-linecap="round" stroke-linejoin="round"/>
<path d="M255.954 327.394C254.79 328.649 254.123 333.239 250.518 333.239" stroke="#FFFF93" stroke-width="0.4" stroke-linecap="round" stroke-linejoin="round"/>
<path d="M255.955 327.394C254.542 326.433 252.858 322.181 249.332 322.961" stroke="#FFFF93" stroke-width="0.4" stroke-linecap="round" stroke-linejoin="round"/>
<path d="M257.763 327.156C256.09 328.954 255.062 335.535 249.896 335.546" stroke="#FFFF93" stroke-width="0.4" stroke-linecap="round" stroke-linejoin="round"/>
<path d="M257.763 327.156C255.74 325.765 253.242 319.761 248.19 320.88" stroke="#FFFF93" stroke-width="0.4" stroke-linecap="round" stroke-linejoin="round"/>
<path d="M220.138 320.88H247.704L233.78 346.198L220.138 320.88Z" stroke="#FFFF93" stroke-width="0.4" stroke-linecap="round" stroke-linejoin="round"/>
</g>
<g clip-path="url(#clip5_2053_111)">
<path d="M234.5 271.807C246.252 271.807 255.778 262.044 255.778 250C255.778 237.956 246.252 228.193 234.5 228.193C222.748 228.193 213.221 237.956 213.221 250C213.221 262.044 222.748 271.807 234.5 271.807Z" fill="url(#paint4_radial_2053_111)"/>
<path d="M234.577 230.587C235.208 231.313 237.655 231.982 237.478 234.025" stroke="#86FF3E" stroke-width="0.39" stroke-linecap="round" stroke-linejoin="round"/>
<path d="M234.577 230.587C233.968 231.336 231.455 231.96 231.699 233.979" stroke="#86FF3E" stroke-width="0.39" stroke-linecap="round" stroke-linejoin="round"/>
<path d="M227.68 231.88C228.521 232.323 231.045 232.051 231.599 234.013" stroke="#86FF3E" stroke-width="0.39" stroke-linecap="round" stroke-linejoin="round"/>
<path d="M227.68 231.88C227.381 232.799 225.244 234.32 226.196 236.112" stroke="#86FF3E" stroke-width="0.39" stroke-linecap="round" stroke-linejoin="round"/>
<path d="M221.69 235.636C222.631 235.738 224.89 234.547 226.097 236.169" stroke="#86FF3E" stroke-width="0.39" stroke-linecap="round" stroke-linejoin="round"/>
<path d="M221.69 235.636C221.735 236.601 220.284 238.802 221.801 240.129" stroke="#86FF3E" stroke-width="0.39" stroke-linecap="round" stroke-linejoin="round"/>
<path d="M217.439 241.355C218.347 241.094 220.03 239.153 221.735 240.22" stroke="#86FF3E" stroke-width="0.39" stroke-linecap="round" stroke-linejoin="round"/>
<path d="M217.439 241.354C217.816 242.239 217.24 244.838 219.122 245.507" stroke="#86FF3E" stroke-width="0.39" stroke-linecap="round" stroke-linejoin="round"/>
<path d="M215.491 248.264C216.255 247.685 217.129 245.246 219.1 245.62" stroke="#86FF3E" stroke-width="0.39" stroke-linecap="round" stroke-linejoin="round"/>
<path d="M215.491 248.264C216.155 248.945 216.531 251.577 218.524 251.509" stroke="#86FF3E" stroke-width="0.39" stroke-linecap="round" stroke-linejoin="round"/>
<path d="M216.1 255.423C216.609 254.607 216.565 252.008 218.535 251.623" stroke="#86FF3E" stroke-width="0.39" stroke-linecap="round" stroke-linejoin="round"/>
<path d="M216.1 255.423C216.963 255.82 218.236 258.135 220.074 257.329" stroke="#86FF3E" stroke-width="0.39" stroke-linecap="round" stroke-linejoin="round"/>
<path d="M219.2 261.868C219.377 260.915 218.436 258.51 220.129 257.42" stroke="#86FF3E" stroke-width="0.39" stroke-linecap="round" stroke-linejoin="round"/>
<path d="M219.2 261.868C220.141 261.914 222.145 263.604 223.584 262.175" stroke="#86FF3E" stroke-width="0.39" stroke-linecap="round" stroke-linejoin="round"/>
<path d="M224.359 266.736C224.192 265.783 222.465 263.888 223.661 262.254" stroke="#86FF3E" stroke-width="0.39" stroke-linecap="round" stroke-linejoin="round"/>
<path d="M224.358 266.736C225.255 266.429 227.724 267.258 228.554 265.397" stroke="#86FF3E" stroke-width="0.39" stroke-linecap="round" stroke-linejoin="round"/>
<path d="M230.891 269.368C230.404 268.539 228.112 267.416 228.654 265.442" stroke="#86FF3E" stroke-width="0.39" stroke-linecap="round" stroke-linejoin="round"/>
<path d="M230.891 269.367C231.621 268.755 234.212 268.607 234.323 266.565" stroke="#86FF3E" stroke-width="0.39" stroke-linecap="round" stroke-linejoin="round"/>
<path d="M237.91 269.402C237.157 268.812 234.633 268.608 234.444 266.577" stroke="#86FF3E" stroke-width="0.39" stroke-linecap="round" stroke-linejoin="round"/>
<path d="M237.91 269.402C238.375 268.562 240.733 267.473 240.124 265.521" stroke="#86FF3E" stroke-width="0.39" stroke-linecap="round" stroke-linejoin="round"/>
<path d="M244.464 266.837C243.556 266.565 241.131 267.314 240.234 265.487" stroke="#86FF3E" stroke-width="0.39" stroke-linecap="round" stroke-linejoin="round"/>
<path d="M244.463 266.838C244.596 265.885 246.423 263.99 245.161 262.401" stroke="#86FF3E" stroke-width="0.39" stroke-linecap="round" stroke-linejoin="round"/>
<path d="M249.667 262.016C248.726 262.095 246.722 263.695 245.25 262.322" stroke="#86FF3E" stroke-width="0.39" stroke-linecap="round" stroke-linejoin="round"/>
<path d="M249.667 262.016C249.457 261.074 250.486 258.634 248.759 257.613" stroke="#86FF3E" stroke-width="0.39" stroke-linecap="round" stroke-linejoin="round"/>
<path d="M252.823 255.594C251.97 256.014 250.664 258.249 248.804 257.511" stroke="#86FF3E" stroke-width="0.39" stroke-linecap="round" stroke-linejoin="round"/>
<path d="M252.822 255.594C252.291 254.799 252.391 252.133 250.42 251.827" stroke="#86FF3E" stroke-width="0.39" stroke-linecap="round" stroke-linejoin="round"/>
<path d="M253.509 248.446C252.866 249.161 252.435 251.713 250.442 251.725" stroke="#86FF3E" stroke-width="0.39" stroke-linecap="round" stroke-linejoin="round"/>
<path d="M253.509 248.446C252.734 247.901 251.892 245.382 249.944 245.825" stroke="#86FF3E" stroke-width="0.39" stroke-linecap="round" stroke-linejoin="round"/>
<path d="M251.616 241.513C251.261 242.41 251.771 244.962 249.911 245.7" stroke="#86FF3E" stroke-width="0.39" stroke-linecap="round" stroke-linejoin="round"/>
<path d="M251.616 241.513C250.697 241.286 249.025 239.255 247.364 240.39" stroke="#86FF3E" stroke-width="0.39" stroke-linecap="round" stroke-linejoin="round"/>
<path d="M247.42 235.761C247.42 236.725 248.782 238.915 247.309 240.299" stroke="#86FF3E" stroke-width="0.39" stroke-linecap="round" stroke-linejoin="round"/>
<path d="M247.42 235.761C246.479 235.897 244.209 234.615 243.058 236.283" stroke="#86FF3E" stroke-width="0.39" stroke-linecap="round" stroke-linejoin="round"/>
<path d="M241.475 231.948C241.807 232.856 243.855 234.388 242.969 236.226" stroke="#86FF3E" stroke-width="0.39" stroke-linecap="round" stroke-linejoin="round"/>
<path d="M241.474 231.948C240.655 232.413 238.076 232.062 237.6 234.047" stroke="#86FF3E" stroke-width="0.39" stroke-linecap="round" stroke-linejoin="round"/>
<path d="M247.597 258.68L221.436 258.895L234.456 234.184L247.597 258.68Z" stroke="#86FF3E" stroke-width="0.39" stroke-miterlimit="10"/>
<path d="M234.577 230.587C235.208 231.313 237.655 231.982 237.478 234.025" stroke="#86FF3E" stroke-width="0.39" stroke-linecap="round" stroke-linejoin="round"/>
<path d="M234.577 230.587C233.968 231.336 231.455 231.96 231.699 233.979" stroke="#86FF3E" stroke-width="0.39" stroke-linecap="round" stroke-linejoin="round"/>
<path d="M227.68 231.88C228.521 232.323 231.045 232.051 231.599 234.013" stroke="#86FF3E" stroke-width="0.39" stroke-linecap="round" stroke-linejoin="round"/>
<path d="M227.68 231.88C227.381 232.799 225.244 234.32 226.196 236.112" stroke="#86FF3E" stroke-width="0.39" stroke-linecap="round" stroke-linejoin="round"/>
<path d="M221.691 235.636C222.632 235.738 224.89 234.547 226.097 236.169" stroke="#86FF3E" stroke-width="0.39" stroke-linecap="round" stroke-linejoin="round"/>
<path d="M221.691 235.636C221.735 236.601 220.285 238.802 221.801 240.129" stroke="#86FF3E" stroke-width="0.39" stroke-linecap="round" stroke-linejoin="round"/>
<path d="M217.439 241.355C218.347 241.094 220.03 239.153 221.735 240.22" stroke="#86FF3E" stroke-width="0.39" stroke-linecap="round" stroke-linejoin="round"/>
<path d="M217.439 241.354C217.816 242.239 217.24 244.838 219.122 245.507" stroke="#86FF3E" stroke-width="0.39" stroke-linecap="round" stroke-linejoin="round"/>
<path d="M215.491 248.264C216.255 247.685 217.129 245.246 219.1 245.62" stroke="#86FF3E" stroke-width="0.39" stroke-linecap="round" stroke-linejoin="round"/>
<path d="M215.491 248.264C216.155 248.945 216.531 251.577 218.524 251.509" stroke="#86FF3E" stroke-width="0.39" stroke-linecap="round" stroke-linejoin="round"/>
<path d="M216.1 255.423C216.609 254.607 216.565 252.008 218.535 251.623" stroke="#86FF3E" stroke-width="0.39" stroke-linecap="round" stroke-linejoin="round"/>
<path d="M216.1 255.423C216.963 255.82 218.236 258.135 220.074 257.329" stroke="#86FF3E" stroke-width="0.39" stroke-linecap="round" stroke-linejoin="round"/>
<path d="M219.2 261.868C219.377 260.915 218.436 258.51 220.129 257.42" stroke="#86FF3E" stroke-width="0.39" stroke-linecap="round" stroke-linejoin="round"/>
<path d="M219.2 261.868C220.141 261.914 222.145 263.604 223.584 262.175" stroke="#86FF3E" stroke-width="0.39" stroke-linecap="round" stroke-linejoin="round"/>
<path d="M224.359 266.736C224.192 265.783 222.465 263.888 223.661 262.254" stroke="#86FF3E" stroke-width="0.39" stroke-linecap="round" stroke-linejoin="round"/>
<path d="M224.358 266.736C225.255 266.429 227.724 267.258 228.554 265.397" stroke="#86FF3E" stroke-width="0.39" stroke-linecap="round" stroke-linejoin="round"/>
<path d="M230.891 269.368C230.404 268.539 228.112 267.416 228.654 265.442" stroke="#86FF3E" stroke-width="0.39" stroke-linecap="round" stroke-linejoin="round"/>
<path d="M230.891 269.367C231.621 268.755 234.212 268.607 234.323 266.565" stroke="#86FF3E" stroke-width="0.39" stroke-linecap="round" stroke-linejoin="round"/>
<path d="M237.91 269.402C237.157 268.812 234.633 268.608 234.444 266.577" stroke="#86FF3E" stroke-width="0.39" stroke-linecap="round" stroke-linejoin="round"/>
<path d="M237.91 269.402C238.375 268.562 240.733 267.473 240.124 265.521" stroke="#86FF3E" stroke-width="0.39" stroke-linecap="round" stroke-linejoin="round"/>
<path d="M244.464 266.837C243.556 266.565 241.131 267.314 240.234 265.487" stroke="#86FF3E" stroke-width="0.39" stroke-linecap="round" stroke-linejoin="round"/>
<path d="M244.463 266.838C244.596 265.885 246.423 263.99 245.161 262.401" stroke="#86FF3E" stroke-width="0.39" stroke-linecap="round" stroke-linejoin="round"/>
<path d="M249.667 262.016C248.726 262.095 246.722 263.695 245.25 262.322" stroke="#86FF3E" stroke-width="0.39" stroke-linecap="round" stroke-linejoin="round"/>
<path d="M249.668 262.016C249.457 261.074 250.487 258.634 248.76 257.613" stroke="#86FF3E" stroke-width="0.39" stroke-linecap="round" stroke-linejoin="round"/>
<path d="M252.823 255.594C251.97 256.014 250.664 258.249 248.804 257.511" stroke="#86FF3E" stroke-width="0.39" stroke-linecap="round" stroke-linejoin="round"/>
<path d="M252.822 255.594C252.291 254.799 252.391 252.133 250.42 251.827" stroke="#86FF3E" stroke-width="0.39" stroke-linecap="round" stroke-linejoin="round"/>
<path d="M253.509 248.446C252.866 249.161 252.435 251.713 250.442 251.725" stroke="#86FF3E" stroke-width="0.39" stroke-linecap="round" stroke-linejoin="round"/>
<path d="M253.509 248.446C252.734 247.901 251.892 245.382 249.944 245.825" stroke="#86FF3E" stroke-width="0.39" stroke-linecap="round" stroke-linejoin="round"/>
<path d="M251.616 241.513C251.261 242.41 251.771 244.962 249.911 245.7" stroke="#86FF3E" stroke-width="0.39" stroke-linecap="round" stroke-linejoin="round"/>
<path d="M251.616 241.513C250.697 241.286 249.025 239.255 247.364 240.39" stroke="#86FF3E" stroke-width="0.39" stroke-linecap="round" stroke-linejoin="round"/>
<path d="M247.42 235.761C247.42 236.725 248.782 238.915 247.309 240.299" stroke="#86FF3E" stroke-width="0.39" stroke-linecap="round" stroke-linejoin="round"/>
<path d="M247.42 235.761C246.479 235.897 244.209 234.615 243.058 236.283" stroke="#86FF3E" stroke-width="0.39" stroke-linecap="round" stroke-linejoin="round"/>
<path d="M241.475 231.949C241.807 232.856 243.855 234.388 242.969 236.226" stroke="#86FF3E" stroke-width="0.39" stroke-linecap="round" stroke-linejoin="round"/>
<path d="M241.474 231.949C240.655 232.414 238.076 232.062 237.6 234.048" stroke="#86FF3E" stroke-width="0.39" stroke-linecap="round" stroke-linejoin="round"/>
<path d="M234.588 228.227C235.297 229.033 238.031 229.793 237.832 232.085" stroke="#86FF3E" stroke-width="0.39" stroke-linecap="round" stroke-linejoin="round"/>
<path d="M234.588 228.227C233.913 229.067 231.09 229.759 231.367 232.039" stroke="#86FF3E" stroke-width="0.39" stroke-linecap="round" stroke-linejoin="round"/>
<path d="M226.86 229.668C227.801 230.156 230.625 229.85 231.244 232.062" stroke="#86FF3E" stroke-width="0.39" stroke-linecap="round" stroke-linejoin="round"/>
<path d="M226.861 229.668C226.517 230.7 224.137 232.402 225.2 234.422" stroke="#86FF3E" stroke-width="0.39" stroke-linecap="round" stroke-linejoin="round"/>
<path d="M220.163 233.877C221.214 233.991 223.739 232.652 225.089 234.479" stroke="#86FF3E" stroke-width="0.39" stroke-linecap="round" stroke-linejoin="round"/>
<path d="M220.163 233.877C220.207 234.966 218.58 237.44 220.285 238.926" stroke="#86FF3E" stroke-width="0.39" stroke-linecap="round" stroke-linejoin="round"/>
<path d="M215.402 240.299C216.421 240.015 218.303 237.826 220.207 239.028" stroke="#86FF3E" stroke-width="0.39" stroke-linecap="round" stroke-linejoin="round"/>
<path d="M215.402 240.299C215.834 241.298 215.181 244.202 217.284 244.963" stroke="#86FF3E" stroke-width="0.39" stroke-linecap="round" stroke-linejoin="round"/>
<path d="M213.221 248.048C214.074 247.402 215.059 244.667 217.262 245.087" stroke="#86FF3E" stroke-width="0.39" stroke-linecap="round" stroke-linejoin="round"/>
<path d="M213.221 248.048C213.974 248.82 214.384 251.77 216.62 251.69" stroke="#86FF3E" stroke-width="0.39" stroke-linecap="round" stroke-linejoin="round"/>
<path d="M213.908 256.082C214.472 255.163 214.439 252.247 216.631 251.815" stroke="#86FF3E" stroke-width="0.39" stroke-linecap="round" stroke-linejoin="round"/>
<path d="M213.908 256.082C214.871 256.524 216.299 259.122 218.358 258.215" stroke="#86FF3E" stroke-width="0.39" stroke-linecap="round" stroke-linejoin="round"/>
<path d="M217.373 263.32C217.572 262.254 216.52 259.553 218.413 258.339" stroke="#86FF3E" stroke-width="0.39" stroke-linecap="round" stroke-linejoin="round"/>
<path d="M217.373 263.32C218.424 263.377 220.672 265.26 222.277 263.661" stroke="#86FF3E" stroke-width="0.39" stroke-linecap="round" stroke-linejoin="round"/>
<path d="M223.152 268.789C222.964 267.723 221.026 265.59 222.366 263.751" stroke="#86FF3E" stroke-width="0.39" stroke-linecap="round" stroke-linejoin="round"/>
<path d="M223.152 268.789C224.159 268.449 226.916 269.379 227.846 267.292" stroke="#86FF3E" stroke-width="0.39" stroke-linecap="round" stroke-linejoin="round"/>
<path d="M230.459 271.739C229.905 270.809 227.348 269.549 227.957 267.337" stroke="#86FF3E" stroke-width="0.39" stroke-linecap="round" stroke-linejoin="round"/>
<path d="M230.459 271.739C231.267 271.047 234.179 270.888 234.301 268.596" stroke="#86FF3E" stroke-width="0.39" stroke-linecap="round" stroke-linejoin="round"/>
<path d="M238.319 271.774C237.478 271.116 234.655 270.877 234.433 268.597" stroke="#86FF3E" stroke-width="0.39" stroke-linecap="round" stroke-linejoin="round"/>
<path d="M238.319 271.773C238.828 270.82 241.485 269.606 240.799 267.417" stroke="#86FF3E" stroke-width="0.39" stroke-linecap="round" stroke-linejoin="round"/>
<path d="M245.649 268.891C244.63 268.585 241.918 269.424 240.91 267.371" stroke="#86FF3E" stroke-width="0.39" stroke-linecap="round" stroke-linejoin="round"/>
<path d="M245.648 268.891C245.792 267.813 247.841 265.691 246.434 263.91" stroke="#86FF3E" stroke-width="0.39" stroke-linecap="round" stroke-linejoin="round"/>
<path d="M251.483 263.491C250.431 263.581 248.184 265.374 246.534 263.831" stroke="#86FF3E" stroke-width="0.39" stroke-linecap="round" stroke-linejoin="round"/>
<path d="M251.483 263.491C251.239 262.436 252.402 259.701 250.464 258.555" stroke="#86FF3E" stroke-width="0.39" stroke-linecap="round" stroke-linejoin="round"/>
<path d="M255.014 256.286C254.062 256.762 252.601 259.258 250.52 258.441" stroke="#86FF3E" stroke-width="0.39" stroke-linecap="round" stroke-linejoin="round"/>
<path d="M255.014 256.286C254.417 255.389 254.538 252.405 252.324 252.065" stroke="#86FF3E" stroke-width="0.39" stroke-linecap="round" stroke-linejoin="round"/>
<path d="M255.778 248.253C255.059 249.047 254.571 251.918 252.346 251.929" stroke="#86FF3E" stroke-width="0.39" stroke-linecap="round" stroke-linejoin="round"/>
<path d="M255.778 248.253C254.904 247.64 253.963 244.815 251.782 245.314" stroke="#86FF3E" stroke-width="0.39" stroke-linecap="round" stroke-linejoin="round"/>
<path d="M253.664 240.481C253.276 241.491 253.83 244.35 251.749 245.19" stroke="#86FF3E" stroke-width="0.39" stroke-linecap="round" stroke-linejoin="round"/>
<path d="M253.664 240.481C252.634 240.231 250.763 237.951 248.903 239.222" stroke="#86FF3E" stroke-width="0.39" stroke-linecap="round" stroke-linejoin="round"/>
<path d="M248.959 234.024C248.959 235.114 250.475 237.564 248.826 239.119" stroke="#86FF3E" stroke-width="0.39" stroke-linecap="round" stroke-linejoin="round"/>
<path d="M248.959 234.025C247.907 234.172 245.36 232.743 244.076 234.615" stroke="#86FF3E" stroke-width="0.39" stroke-linecap="round" stroke-linejoin="round"/>
<path d="M242.305 229.748C242.681 230.769 244.973 232.493 243.976 234.547" stroke="#86FF3E" stroke-width="0.39" stroke-linecap="round" stroke-linejoin="round"/>
<path d="M242.305 229.748C241.386 230.281 238.496 229.884 237.965 232.108" stroke="#86FF3E" stroke-width="0.39" stroke-linecap="round" stroke-linejoin="round"/>
<path d="M234.588 228.227C235.297 229.033 238.031 229.793 237.832 232.085" stroke="#86FF3E" stroke-width="0.39" stroke-linecap="round" stroke-linejoin="round"/>
<path d="M234.588 228.227C233.913 229.067 231.09 229.759 231.367 232.039" stroke="#86FF3E" stroke-width="0.39" stroke-linecap="round" stroke-linejoin="round"/>
<path d="M226.86 229.668C227.801 230.156 230.625 229.85 231.244 232.062" stroke="#86FF3E" stroke-width="0.39" stroke-linecap="round" stroke-linejoin="round"/>
<path d="M226.861 229.668C226.517 230.7 224.137 232.402 225.2 234.422" stroke="#86FF3E" stroke-width="0.39" stroke-linecap="round" stroke-linejoin="round"/>
<path d="M220.163 233.877C221.214 233.991 223.739 232.652 225.089 234.479" stroke="#86FF3E" stroke-width="0.39" stroke-linecap="round" stroke-linejoin="round"/>
<path d="M220.163 233.877C220.207 234.966 218.58 237.44 220.285 238.926" stroke="#86FF3E" stroke-width="0.39" stroke-linecap="round" stroke-linejoin="round"/>
<path d="M215.402 240.299C216.421 240.015 218.303 237.826 220.207 239.028" stroke="#86FF3E" stroke-width="0.39" stroke-linecap="round" stroke-linejoin="round"/>
<path d="M215.402 240.299C215.834 241.298 215.181 244.202 217.284 244.963" stroke="#86FF3E" stroke-width="0.39" stroke-linecap="round" stroke-linejoin="round"/>
<path d="M213.221 248.048C214.074 247.402 215.059 244.667 217.262 245.087" stroke="#86FF3E" stroke-width="0.39" stroke-linecap="round" stroke-linejoin="round"/>
<path d="M213.221 248.048C213.974 248.82 214.384 251.77 216.62 251.69" stroke="#86FF3E" stroke-width="0.39" stroke-linecap="round" stroke-linejoin="round"/>
<path d="M213.908 256.082C214.472 255.163 214.439 252.247 216.631 251.815" stroke="#86FF3E" stroke-width="0.39" stroke-linecap="round" stroke-linejoin="round"/>
<path d="M213.908 256.082C214.871 256.524 216.299 259.122 218.358 258.215" stroke="#86FF3E" stroke-width="0.39" stroke-linecap="round" stroke-linejoin="round"/>
<path d="M217.373 263.32C217.572 262.254 216.52 259.553 218.413 258.339" stroke="#86FF3E" stroke-width="0.39" stroke-linecap="round" stroke-linejoin="round"/>
<path d="M217.373 263.32C218.424 263.377 220.672 265.26 222.277 263.661" stroke="#86FF3E" stroke-width="0.39" stroke-linecap="round" stroke-linejoin="round"/>
<path d="M223.152 268.789C222.964 267.723 221.026 265.59 222.366 263.751" stroke="#86FF3E" stroke-width="0.39" stroke-linecap="round" stroke-linejoin="round"/>
<path d="M223.152 268.789C224.159 268.449 226.916 269.379 227.846 267.292" stroke="#86FF3E" stroke-width="0.39" stroke-linecap="round" stroke-linejoin="round"/>
<path d="M230.459 271.739C229.905 270.809 227.348 269.549 227.957 267.337" stroke="#86FF3E" stroke-width="0.39" stroke-linecap="round" stroke-linejoin="round"/>
<path d="M230.459 271.739C231.267 271.047 234.179 270.888 234.301 268.596" stroke="#86FF3E" stroke-width="0.39" stroke-linecap="round" stroke-linejoin="round"/>
<path d="M238.319 271.774C237.478 271.116 234.655 270.877 234.433 268.597" stroke="#86FF3E" stroke-width="0.39" stroke-linecap="round" stroke-linejoin="round"/>
<path d="M238.319 271.773C238.828 270.82 241.485 269.606 240.799 267.417" stroke="#86FF3E" stroke-width="0.39" stroke-linecap="round" stroke-linejoin="round"/>
<path d="M245.649 268.891C244.63 268.585 241.918 269.424 240.91 267.371" stroke="#86FF3E" stroke-width="0.39" stroke-linecap="round" stroke-linejoin="round"/>
<path d="M245.648 268.891C245.792 267.813 247.841 265.691 246.434 263.91" stroke="#86FF3E" stroke-width="0.39" stroke-linecap="round" stroke-linejoin="round"/>
<path d="M251.483 263.491C250.431 263.581 248.184 265.374 246.534 263.831" stroke="#86FF3E" stroke-width="0.39" stroke-linecap="round" stroke-linejoin="round"/>
<path d="M251.483 263.491C251.239 262.436 252.402 259.701 250.464 258.555" stroke="#86FF3E" stroke-width="0.39" stroke-linecap="round" stroke-linejoin="round"/>
<path d="M255.014 256.286C254.062 256.762 252.601 259.258 250.52 258.441" stroke="#86FF3E" stroke-width="0.39" stroke-linecap="round" stroke-linejoin="round"/>
<path d="M255.014 256.286C254.417 255.389 254.538 252.405 252.324 252.065" stroke="#86FF3E" stroke-width="0.39" stroke-linecap="round" stroke-linejoin="round"/>
<path d="M255.778 248.253C255.059 249.047 254.571 251.918 252.346 251.929" stroke="#86FF3E" stroke-width="0.39" stroke-linecap="round" stroke-linejoin="round"/>
<path d="M255.778 248.253C254.904 247.64 253.963 244.815 251.782 245.314" stroke="#86FF3E" stroke-width="0.39" stroke-linecap="round" stroke-linejoin="round"/>
<path d="M253.664 240.481C253.276 241.491 253.83 244.35 251.749 245.19" stroke="#86FF3E" stroke-width="0.39" stroke-linecap="round" stroke-linejoin="round"/>
<path d="M253.664 240.481C252.634 240.231 250.763 237.951 248.903 239.222" stroke="#86FF3E" stroke-width="0.39" stroke-linecap="round" stroke-linejoin="round"/>
<path d="M248.959 234.024C248.959 235.114 250.475 237.564 248.826 239.119" stroke="#86FF3E" stroke-width="0.39" stroke-linecap="round" stroke-linejoin="round"/>
<path d="M248.959 234.025C247.907 234.172 245.36 232.743 244.076 234.615" stroke="#86FF3E" stroke-width="0.39" stroke-linecap="round" stroke-linejoin="round"/>
<path d="M242.305 229.748C242.681 230.769 244.973 232.493 243.976 234.547" stroke="#86FF3E" stroke-width="0.39" stroke-linecap="round" stroke-linejoin="round"/>
<path d="M242.305 229.748C241.386 230.281 238.496 229.884 237.965 232.108" stroke="#86FF3E" stroke-width="0.39" stroke-linecap="round" stroke-linejoin="round"/>
<path d="M250.453 250.374C250.331 259.44 243.091 266.69 234.278 266.577C225.466 266.463 218.402 259.009 218.524 249.943C218.646 240.878 225.886 233.628 234.699 233.741C243.511 233.866 250.575 241.309 250.453 250.374Z" stroke="#86FF3E" stroke-width="0.39" stroke-linecap="round" stroke-linejoin="round"/>
<path d="M221.336 241.74H247.497L234.278 266.338L221.336 241.74Z" stroke="#86FF3E" stroke-width="0.39" stroke-miterlimit="10"/>
<path d="M247.596 258.68L221.436 258.895L234.455 234.184L247.596 258.68Z" stroke="#86FF3E" stroke-width="0.39" stroke-miterlimit="10"/>
</g>
<g clip-path="url(#clip6_2053_111)">
<path d="M234.5 197.691C246.24 197.691 255.757 188.203 255.757 176.5C255.757 164.796 246.24 155.309 234.5 155.309C222.76 155.309 213.243 164.796 213.243 176.5C213.243 188.203 222.76 197.691 234.5 197.691Z" fill="url(#paint5_radial_2053_111)"/>
<path d="M234.655 155.243C235.34 156.037 238.094 156.764 237.851 158.98" stroke="#8EFFFF" stroke-width="0.44" stroke-linecap="round" stroke-linejoin="round"/>
<path d="M234.655 155.243C233.969 156.037 231.171 156.731 231.414 158.936" stroke="#8EFFFF" stroke-width="0.44" stroke-linecap="round" stroke-linejoin="round"/>
<path d="M226.935 156.632C227.864 157.128 230.695 156.819 231.27 158.958" stroke="#8EFFFF" stroke-width="0.44" stroke-linecap="round" stroke-linejoin="round"/>
<path d="M226.935 156.632C226.581 157.624 224.225 159.267 225.254 161.241" stroke="#8EFFFF" stroke-width="0.44" stroke-linecap="round" stroke-linejoin="round"/>
<path d="M220.244 160.7C221.295 160.822 223.816 159.521 225.133 161.318" stroke="#8EFFFF" stroke-width="0.44" stroke-linecap="round" stroke-linejoin="round"/>
<path d="M220.244 160.7C220.277 161.748 218.674 164.14 220.344 165.607" stroke="#8EFFFF" stroke-width="0.44" stroke-linecap="round" stroke-linejoin="round"/>
<path d="M215.488 166.908C216.517 166.643 218.386 164.526 220.266 165.717" stroke="#8EFFFF" stroke-width="0.44" stroke-linecap="round" stroke-linejoin="round"/>
<path d="M215.488 166.908C215.897 167.878 215.267 170.678 217.357 171.45" stroke="#8EFFFF" stroke-width="0.44" stroke-linecap="round" stroke-linejoin="round"/>
<path d="M213.288 174.405C214.15 173.799 215.124 171.13 217.313 171.571" stroke="#8EFFFF" stroke-width="0.44" stroke-linecap="round" stroke-linejoin="round"/>
<path d="M213.288 174.405C214.018 175.166 214.449 177.999 216.672 177.966" stroke="#8EFFFF" stroke-width="0.44" stroke-linecap="round" stroke-linejoin="round"/>
<path d="M213.962 182.189C214.548 181.307 214.493 178.474 216.694 178.099" stroke="#8EFFFF" stroke-width="0.44" stroke-linecap="round" stroke-linejoin="round"/>
<path d="M213.962 182.189C214.924 182.63 216.351 185.122 218.408 184.284" stroke="#8EFFFF" stroke-width="0.44" stroke-linecap="round" stroke-linejoin="round"/>
<path d="M217.413 189.201C217.634 188.176 216.561 185.552 218.475 184.405" stroke="#8EFFFF" stroke-width="0.44" stroke-linecap="round" stroke-linejoin="round"/>
<path d="M217.413 189.202C218.463 189.268 220.697 191.076 222.323 189.554" stroke="#8EFFFF" stroke-width="0.44" stroke-linecap="round" stroke-linejoin="round"/>
<path d="M223.163 194.505C222.998 193.469 221.051 191.407 222.422 189.654" stroke="#8EFFFF" stroke-width="0.44" stroke-linecap="round" stroke-linejoin="round"/>
<path d="M223.164 194.505C224.17 194.185 226.902 195.067 227.864 193.061" stroke="#8EFFFF" stroke-width="0.44" stroke-linecap="round" stroke-linejoin="round"/>
<path d="M230.463 197.372C229.932 196.456 227.367 195.244 228.008 193.116" stroke="#8EFFFF" stroke-width="0.44" stroke-linecap="round" stroke-linejoin="round"/>
<path d="M230.463 197.371C231.282 196.71 234.157 196.556 234.323 194.339" stroke="#8EFFFF" stroke-width="0.44" stroke-linecap="round" stroke-linejoin="round"/>
<path d="M238.293 197.427C237.464 196.765 234.633 196.556 234.467 194.34" stroke="#8EFFFF" stroke-width="0.44" stroke-linecap="round" stroke-linejoin="round"/>
<path d="M238.293 197.427C238.824 196.523 241.445 195.332 240.793 193.204" stroke="#8EFFFF" stroke-width="0.44" stroke-linecap="round" stroke-linejoin="round"/>
<path d="M245.626 194.648C244.619 194.329 241.899 195.156 240.937 193.149" stroke="#8EFFFF" stroke-width="0.44" stroke-linecap="round" stroke-linejoin="round"/>
<path d="M245.626 194.648C245.792 193.612 247.805 191.561 246.433 189.808" stroke="#8EFFFF" stroke-width="0.44" stroke-linecap="round" stroke-linejoin="round"/>
<path d="M251.443 189.422C250.392 189.488 248.147 191.241 246.521 189.72" stroke="#8EFFFF" stroke-width="0.44" stroke-linecap="round" stroke-linejoin="round"/>
<path d="M251.443 189.422C251.222 188.397 252.35 185.761 250.437 184.615" stroke="#8EFFFF" stroke-width="0.44" stroke-linecap="round" stroke-linejoin="round"/>
<path d="M254.983 182.454C254.02 182.895 252.572 185.332 250.503 184.494" stroke="#8EFFFF" stroke-width="0.44" stroke-linecap="round" stroke-linejoin="round"/>
<path d="M254.983 182.454C254.407 181.572 254.507 178.716 252.306 178.341" stroke="#8EFFFF" stroke-width="0.44" stroke-linecap="round" stroke-linejoin="round"/>
<path d="M255.756 174.681C255.027 175.441 254.551 178.231 252.317 178.198" stroke="#8EFFFF" stroke-width="0.44" stroke-linecap="round" stroke-linejoin="round"/>
<path d="M255.756 174.681C254.894 174.074 253.954 171.362 251.775 171.803" stroke="#8EFFFF" stroke-width="0.44" stroke-linecap="round" stroke-linejoin="round"/>
<path d="M253.666 167.15C253.257 168.121 253.832 170.899 251.742 171.671" stroke="#8EFFFF" stroke-width="0.44" stroke-linecap="round" stroke-linejoin="round"/>
<path d="M253.666 167.15C252.649 166.886 250.78 164.703 248.911 165.904" stroke="#8EFFFF" stroke-width="0.44" stroke-linecap="round" stroke-linejoin="round"/>
<path d="M248.977 160.888C248.943 161.935 250.481 164.328 248.822 165.794" stroke="#8EFFFF" stroke-width="0.44" stroke-linecap="round" stroke-linejoin="round"/>
<path d="M248.977 160.888C247.926 161.009 245.404 159.642 244.088 161.439" stroke="#8EFFFF" stroke-width="0.44" stroke-linecap="round" stroke-linejoin="round"/>
<path d="M242.341 156.731C242.695 157.723 244.996 159.388 243.967 161.362" stroke="#8EFFFF" stroke-width="0.44" stroke-linecap="round" stroke-linejoin="round"/>
<path d="M242.341 156.731C241.412 157.227 238.559 156.863 237.984 159.002" stroke="#8EFFFF" stroke-width="0.44" stroke-linecap="round" stroke-linejoin="round"/>
<path d="M238.448 155.606C238.979 156.511 241.556 157.723 240.915 159.851" stroke="#8EFFFF" stroke-width="0.44" stroke-linecap="round" stroke-linejoin="round"/>
<path d="M238.448 155.606C237.63 156.268 234.754 156.444 234.6 158.661" stroke="#8EFFFF" stroke-width="0.44" stroke-linecap="round" stroke-linejoin="round"/>
<path d="M230.618 155.584C231.447 156.235 234.278 156.444 234.466 158.65" stroke="#8EFFFF" stroke-width="0.44" stroke-linecap="round" stroke-linejoin="round"/>
<path d="M230.618 155.584C230.087 156.5 227.477 157.69 228.129 159.818" stroke="#8EFFFF" stroke-width="0.44" stroke-linecap="round" stroke-linejoin="round"/>
<path d="M223.296 158.396C224.303 158.705 227.023 157.878 227.997 159.873" stroke="#8EFFFF" stroke-width="0.44" stroke-linecap="round" stroke-linejoin="round"/>
<path d="M223.297 158.396C223.131 159.432 221.129 161.494 222.511 163.236" stroke="#8EFFFF" stroke-width="0.44" stroke-linecap="round" stroke-linejoin="round"/>
<path d="M217.49 163.644C218.541 163.567 220.775 161.814 222.401 163.336" stroke="#8EFFFF" stroke-width="0.44" stroke-linecap="round" stroke-linejoin="round"/>
<path d="M217.49 163.645C217.711 164.67 216.594 167.316 218.508 168.441" stroke="#8EFFFF" stroke-width="0.44" stroke-linecap="round" stroke-linejoin="round"/>
<path d="M213.984 170.635C214.936 170.182 216.384 167.746 218.452 168.573" stroke="#8EFFFF" stroke-width="0.44" stroke-linecap="round" stroke-linejoin="round"/>
<path d="M213.984 170.634C214.571 171.516 214.482 174.372 216.672 174.736" stroke="#8EFFFF" stroke-width="0.44" stroke-linecap="round" stroke-linejoin="round"/>
<path d="M213.243 178.407C213.973 177.647 214.438 174.846 216.661 174.879" stroke="#8EFFFF" stroke-width="0.44" stroke-linecap="round" stroke-linejoin="round"/>
<path d="M213.243 178.407C214.106 179.014 215.057 181.715 217.247 181.263" stroke="#8EFFFF" stroke-width="0.44" stroke-linecap="round" stroke-linejoin="round"/>
<path d="M215.367 185.927C215.776 184.957 215.19 182.179 217.28 181.407" stroke="#8EFFFF" stroke-width="0.44" stroke-linecap="round" stroke-linejoin="round"/>
<path d="M215.367 185.927C216.395 186.181 218.264 188.364 220.133 187.151" stroke="#8EFFFF" stroke-width="0.44" stroke-linecap="round" stroke-linejoin="round"/>
<path d="M220.078 192.178C220.1 191.131 218.552 188.749 220.222 187.272" stroke="#8EFFFF" stroke-width="0.44" stroke-linecap="round" stroke-linejoin="round"/>
<path d="M220.078 192.178C221.129 192.046 223.661 193.402 224.966 191.605" stroke="#8EFFFF" stroke-width="0.44" stroke-linecap="round" stroke-linejoin="round"/>
<path d="M226.736 196.302C226.382 195.31 224.071 193.656 225.088 191.671" stroke="#8EFFFF" stroke-width="0.44" stroke-linecap="round" stroke-linejoin="round"/>
<path d="M226.736 196.302C227.665 195.806 230.519 196.159 231.083 194.009" stroke="#8EFFFF" stroke-width="0.44" stroke-linecap="round" stroke-linejoin="round"/>
<path d="M234.434 197.757C233.737 196.964 230.994 196.247 231.215 194.031" stroke="#8EFFFF" stroke-width="0.44" stroke-linecap="round" stroke-linejoin="round"/>
<path d="M234.434 197.757C235.119 196.964 237.906 196.258 237.663 194.053" stroke="#8EFFFF" stroke-width="0.44" stroke-linecap="round" stroke-linejoin="round"/>
<path d="M242.142 196.335C241.213 195.85 238.382 196.17 237.795 194.02" stroke="#8EFFFF" stroke-width="0.44" stroke-linecap="round" stroke-linejoin="round"/>
<path d="M242.142 196.335C242.496 195.343 244.841 193.689 243.801 191.715" stroke="#8EFFFF" stroke-width="0.44" stroke-linecap="round" stroke-linejoin="round"/>
<path d="M248.811 192.245C247.761 192.124 245.25 193.447 243.923 191.649" stroke="#8EFFFF" stroke-width="0.44" stroke-linecap="round" stroke-linejoin="round"/>
<path d="M248.811 192.245C248.778 191.197 250.371 188.805 248.689 187.338" stroke="#8EFFFF" stroke-width="0.44" stroke-linecap="round" stroke-linejoin="round"/>
<path d="M253.556 186.016C252.538 186.28 250.658 188.419 248.778 187.228" stroke="#8EFFFF" stroke-width="0.44" stroke-linecap="round" stroke-linejoin="round"/>
<path d="M253.556 186.015C253.147 185.045 253.755 182.245 251.665 181.484" stroke="#8EFFFF" stroke-width="0.44" stroke-linecap="round" stroke-linejoin="round"/>
<path d="M255.712 178.506C254.861 179.124 253.888 181.781 251.698 181.351" stroke="#8EFFFF" stroke-width="0.44" stroke-linecap="round" stroke-linejoin="round"/>
<path d="M255.713 178.507C254.983 177.757 254.54 174.923 252.306 174.967" stroke="#8EFFFF" stroke-width="0.44" stroke-linecap="round" stroke-linejoin="round"/>
<path d="M255.005 170.723C254.429 171.605 254.485 174.438 252.295 174.824" stroke="#8EFFFF" stroke-width="0.44" stroke-linecap="round" stroke-linejoin="round"/>
<path d="M255.004 170.723C254.042 170.282 252.616 167.801 250.547 168.65" stroke="#8EFFFF" stroke-width="0.44" stroke-linecap="round" stroke-linejoin="round"/>
<path d="M251.532 163.721C251.311 164.747 252.394 167.371 250.492 168.517" stroke="#8EFFFF" stroke-width="0.44" stroke-linecap="round" stroke-linejoin="round"/>
<path d="M251.532 163.721C250.481 163.655 248.236 161.858 246.621 163.39" stroke="#8EFFFF" stroke-width="0.44" stroke-linecap="round" stroke-linejoin="round"/>
<path d="M245.748 158.451C245.913 159.488 247.882 161.538 246.511 163.302" stroke="#8EFFFF" stroke-width="0.44" stroke-linecap="round" stroke-linejoin="round"/>
<path d="M245.748 158.451C244.741 158.771 241.998 157.9 241.047 159.907" stroke="#8EFFFF" stroke-width="0.44" stroke-linecap="round" stroke-linejoin="round"/>
<path d="M252.35 176.732C252.218 186.578 244.133 194.461 234.279 194.329C224.425 194.196 216.55 186.115 216.683 176.258C216.816 166.412 224.9 158.529 234.754 158.661C244.597 158.793 252.483 166.875 252.35 176.732Z" stroke="#8EFFFF" stroke-width="0.44" stroke-linecap="round" stroke-linejoin="round"/>
<path d="M219.824 167.36H249.043L234.279 194.086L219.824 167.36Z" stroke="#8EFFFF" stroke-width="0.44" stroke-miterlimit="10"/>
<path d="M234.433 184.229C239.051 184.229 242.794 180.497 242.794 175.894C242.794 171.29 239.051 167.559 234.433 167.559C229.816 167.559 226.072 171.29 226.072 175.894C226.072 180.497 229.816 184.229 234.433 184.229Z" stroke="#8EFFFF" stroke-width="0.44" stroke-miterlimit="10"/>
</g>
</g>
<g clip-path="url(#clip7_2053_111)">
<path d="M250.835 28.5057C252.842 19.3092 247.014 10.227 237.817 8.2201C228.621 6.21324 219.539 12.0417 217.532 21.2383C215.525 30.4348 221.353 39.517 230.55 41.5239C239.746 43.5307 248.829 37.7023 250.835 28.5057Z" fill="url(#paint6_radial_2053_111)" stroke="#E941E3" stroke-width="1.16" stroke-miterlimit="10"/>
<path d="M239.667 8.0774C239.667 8.3024 239.645 8.51615 239.6 8.7299C237.969 8.17865 236.225 7.86365 234.414 7.84115C234.009 7.84115 233.604 7.84115 233.21 7.8749C233.311 6.17615 234.717 4.8374 236.427 4.8374C238.137 4.8374 239.667 6.28865 239.667 8.0774Z" stroke="#E941E3" stroke-width="0.99" stroke-linecap="round" stroke-linejoin="round"/>
<path d="M237.733 0.5625C237.429 2.7225 229.981 2.75625 230.499 8.24625C234.369 7.47 238.734 7.84125 242.244 9.8775C242.559 3.16125 237.541 3.2175 237.733 0.5625Z" stroke="#E941E3" stroke-width="0.99" stroke-linecap="round" stroke-linejoin="round"/>
<path d="M227.54 8.50493C227.687 8.67368 227.81 8.85368 227.912 9.04493C226.314 9.67493 224.773 10.5524 223.367 11.6999C223.052 11.9587 222.748 12.2174 222.467 12.4987C221.454 11.1374 221.668 9.21368 222.984 8.09993C224.357 6.95243 226.393 7.13243 227.54 8.49368V8.50493Z" stroke="#E941E3" stroke-width="0.99" stroke-linecap="round" stroke-linejoin="round"/>
<path d="M221.229 3.98242C222.376 5.82742 216.695 10.6424 220.633 14.5124C223.096 11.4299 226.685 8.90992 230.668 8.21242C226.595 2.86867 222.793 6.14242 221.229 3.98242Z" stroke="#E941E3" stroke-width="0.99" stroke-linecap="round" stroke-linejoin="round"/>
<path d="M218.529 16.6275C218.743 16.6613 218.956 16.7288 219.159 16.8075C218.338 18.315 217.73 19.98 217.381 21.7688C217.303 22.1625 217.246 22.5675 217.201 22.9613C215.548 22.5675 214.479 20.9475 214.771 19.26C215.086 17.505 216.763 16.3238 218.518 16.6388L218.529 16.6275Z" stroke="#E941E3" stroke-width="0.99" stroke-linecap="round" stroke-linejoin="round"/>
<path d="M210.777 17.2126C212.847 17.8876 211.587 25.2338 217.089 25.6613C216.999 21.7238 218.124 17.4826 220.734 14.3776C214.175 12.9038 213.365 17.8538 210.777 17.2013" stroke="#E941E3" stroke-width="0.99" stroke-linecap="round" stroke-linejoin="round"/>
<path d="M216.841 28.6313C217.032 28.5188 217.235 28.4288 217.437 28.3613C217.775 30.0488 218.382 31.7138 219.271 33.3001C219.474 33.6488 219.676 33.9976 219.901 34.3238C218.382 35.0888 216.526 34.5376 215.66 33.0526C214.771 31.5001 215.3 29.5201 216.841 28.6313Z" stroke="#E941E3" stroke-width="0.99" stroke-linecap="round" stroke-linejoin="round"/>
<path d="M211.284 34.0652C213.309 33.2552 217.066 39.6789 221.555 36.4839C218.956 33.5252 217.089 29.5539 217.089 25.5039C211.115 28.5864 213.68 32.9064 211.284 34.0652Z" stroke="#E941E3" stroke-width="0.99" stroke-linecap="round" stroke-linejoin="round"/>
<path d="M223.265 38.9248C223.344 38.7111 223.434 38.5198 223.546 38.3398C224.885 39.4198 226.426 40.3086 228.125 40.9498C228.496 41.0961 228.879 41.2198 229.272 41.3323C228.597 42.8961 226.82 43.6723 225.211 43.0761C223.535 42.4686 222.669 40.6123 223.276 38.9248H223.265Z" stroke="#E941E3" stroke-width="0.99" stroke-linecap="round" stroke-linejoin="round"/>
<path d="M222.511 46.6536C223.535 44.7299 230.544 47.2386 231.939 41.9061C228.046 41.3099 224.064 39.4649 221.465 36.3599C218.877 42.5586 223.602 44.2236 222.522 46.6536" stroke="#E941E3" stroke-width="0.99" stroke-linecap="round" stroke-linejoin="round"/>
<path d="M234.807 42.6715C234.729 42.4577 234.684 42.244 234.65 42.0415C236.371 42.0077 238.115 41.6927 239.825 41.0965C240.207 40.9615 240.579 40.8152 240.95 40.6577C241.434 42.2777 240.567 44.0215 238.959 44.6065C237.282 45.214 235.426 44.3477 234.807 42.6715Z" stroke="#E941E3" stroke-width="0.99" stroke-linecap="round" stroke-linejoin="round"/>
<path d="M239.195 49.0837C238.745 46.9575 245.731 44.37 243.358 39.3862C239.994 41.4337 235.753 42.5812 231.77 41.8725C233.773 48.285 238.464 46.5187 239.195 49.0837Z" stroke="#E941E3" stroke-width="0.99" stroke-linecap="round" stroke-linejoin="round"/>
<path d="M246.058 38.1262C245.866 38.0137 245.686 37.89 245.529 37.7437C246.823 36.6075 247.959 35.2575 248.893 33.6937C249.095 33.345 249.286 32.9962 249.466 32.6362C250.884 33.57 251.334 35.46 250.479 36.945C249.579 38.4975 247.61 39.0262 246.058 38.1262Z" stroke="#E941E3" stroke-width="0.99" stroke-linecap="round" stroke-linejoin="round"/>
<path d="M253.528 40.2187C251.818 38.88 255.508 32.4112 250.49 30.1162C249.23 33.8512 246.721 37.4512 243.211 39.4762C248.87 43.0987 251.323 38.7337 253.528 40.23" stroke="#E941E3" stroke-width="0.99" stroke-linecap="round" stroke-linejoin="round"/>
<path d="M251.75 27.4164C251.536 27.4501 251.311 27.4726 251.098 27.4614C251.356 25.7626 251.356 23.9851 251.064 22.1964C250.996 21.8026 250.918 21.4089 250.828 21.0151C252.515 20.8126 254.079 21.9714 254.371 23.6589C254.675 25.4251 253.505 27.1014 251.75 27.4051V27.4164Z" stroke="#E941E3" stroke-width="0.99" stroke-linecap="round" stroke-linejoin="round"/>
<path d="M258.826 24.2099C256.655 24.2774 255.316 16.9537 250.006 18.4274C251.435 22.0949 251.829 26.4712 250.445 30.2737C257.105 29.4187 256.183 24.4912 258.826 24.2099Z" stroke="#E941E3" stroke-width="0.99" stroke-linecap="round" stroke-linejoin="round"/>
<path d="M249.23 15.5476C249.084 15.7164 248.926 15.8739 248.769 15.9976C247.88 14.5239 246.733 13.1626 245.36 11.9814C245.056 11.7226 244.741 11.4639 244.415 11.2276C245.574 9.99013 247.52 9.87763 248.836 10.9801C250.209 12.1276 250.389 14.1751 249.23 15.5364V15.5476Z" stroke="#E941E3" stroke-width="0.99" stroke-linecap="round" stroke-linejoin="round"/>
<path d="M252.583 8.55019C250.963 10.0014 245.236 5.24269 242.109 9.78769C245.563 11.6777 248.679 14.7714 250.063 18.5852C254.619 13.6464 250.738 10.4627 252.594 8.55019" stroke="#E941E3" stroke-width="0.99" stroke-linecap="round" stroke-linejoin="round"/>
<path d="M244.843 10.5752C244.775 10.789 244.674 10.9802 244.573 11.1715C243.211 10.1252 241.659 9.25897 239.949 8.65147C239.566 8.51647 239.184 8.39272 238.801 8.29147C239.443 6.71647 241.209 5.91772 242.829 6.46897C244.516 7.05397 245.416 8.88772 244.843 10.5865V10.5752Z" stroke="#E941E3" stroke-width="0.99" stroke-linecap="round" stroke-linejoin="round"/>
<path d="M245.461 2.82373C244.471 4.75873 237.417 2.37373 236.124 7.73998C240.027 8.26873 244.044 10.035 246.699 13.095C249.174 6.85123 244.415 5.27623 245.461 2.82373Z" stroke="#E941E3" stroke-width="0.99" stroke-linecap="round" stroke-linejoin="round"/>
<path d="M233.233 7.03113C233.311 7.23363 233.368 7.44738 233.401 7.66113C231.68 7.72863 229.936 8.06613 228.238 8.69613C227.855 8.83113 227.484 8.98863 227.124 9.15738C226.606 7.53738 227.439 5.78238 229.048 5.17488C230.713 4.53363 232.591 5.36613 233.233 7.03113Z" stroke="#E941E3" stroke-width="0.99" stroke-linecap="round" stroke-linejoin="round"/>
<path d="M228.733 0.697285C229.216 2.82354 222.286 5.52354 224.739 10.4623C228.069 8.34729 232.276 7.13229 236.281 7.76229C234.166 1.38354 229.509 3.23979 228.733 0.686035" stroke="#E941E3" stroke-width="0.99" stroke-linecap="round" stroke-linejoin="round"/>
<path d="M222.072 11.7788C222.264 11.8913 222.444 12.015 222.612 12.15C221.341 13.3088 220.227 14.6813 219.327 16.2675C219.125 16.6163 218.945 16.9763 218.776 17.3363C217.336 16.4363 216.852 14.5463 217.685 13.05C218.551 11.4863 220.52 10.9238 222.084 11.79L222.072 11.7788Z" stroke="#E941E3" stroke-width="0.99" stroke-linecap="round" stroke-linejoin="round"/>
<path d="M214.558 9.82147C216.29 11.1377 212.724 17.6627 217.775 19.8677C218.968 16.1102 221.409 12.4652 224.885 10.384C219.159 6.86272 216.785 11.2727 214.558 9.82147Z" stroke="#E941E3" stroke-width="0.99" stroke-linecap="round" stroke-linejoin="round"/>
<path d="M216.571 22.5899C216.785 22.5449 217.01 22.5224 217.224 22.5336C216.999 24.2436 217.021 26.0099 217.347 27.7986C217.426 28.1924 217.505 28.5861 217.606 28.9686C215.93 29.1936 214.344 28.0686 214.017 26.3924C213.68 24.6374 214.816 22.9386 216.571 22.6011V22.5899Z" stroke="#E941E3" stroke-width="0.99" stroke-linecap="round" stroke-linejoin="round"/>
<path d="M209.562 25.9312C211.734 25.8187 213.196 33.1199 218.495 31.5562C216.999 27.9112 216.526 23.5462 217.843 19.7212C211.194 20.6999 212.206 25.6049 209.562 25.9312Z" stroke="#E941E3" stroke-width="0.99" stroke-linecap="round" stroke-linejoin="round"/>
<path d="M219.305 34.4139C219.44 34.2451 219.598 34.0876 219.766 33.9526C220.689 35.4039 221.848 36.7426 223.243 37.9014C223.558 38.1601 223.873 38.4076 224.199 38.6326C223.063 39.8926 221.128 40.0389 219.789 38.9701C218.405 37.8451 218.18 35.8089 219.305 34.4139Z" stroke="#E941E3" stroke-width="0.99" stroke-linecap="round" stroke-linejoin="round"/>
<path d="M216.076 41.4677C217.674 39.9827 223.479 44.6402 226.527 40.0389C223.04 38.2164 219.879 35.1677 218.416 31.3877C213.95 36.4164 217.887 39.5214 216.065 41.4677" stroke="#E941E3" stroke-width="0.99" stroke-linecap="round" stroke-linejoin="round"/>
<path d="M229.002 41.7038C229.002 41.4788 229.014 41.265 229.059 41.0513C230.701 41.5688 232.445 41.85 234.267 41.8388C234.672 41.8388 235.077 41.8163 235.471 41.7825C235.404 43.4813 234.02 44.8425 232.31 44.8763C230.521 44.91 229.047 43.4813 229.014 41.7038H229.002Z" stroke="#E941E3" stroke-width="0.99" stroke-linecap="round" stroke-linejoin="round"/>
<path d="M231.073 49.1962C231.343 47.0362 238.79 46.8675 238.16 41.3775C234.313 42.2212 229.936 41.9287 226.393 39.96C226.201 46.6762 231.219 46.53 231.073 49.185" stroke="#E941E3" stroke-width="0.99" stroke-linecap="round" stroke-linejoin="round"/>
<path d="M241.119 41.0622C240.973 40.8935 240.849 40.7135 240.748 40.5335C242.334 39.881 243.864 38.9697 245.248 37.7997C245.551 37.541 245.855 37.271 246.136 36.9897C247.171 38.3285 246.991 40.2635 245.698 41.3885C244.348 42.5585 242.3 42.4235 241.13 41.0735L241.119 41.0622Z" stroke="#E941E3" stroke-width="0.99" stroke-linecap="round" stroke-linejoin="round"/>
<path d="M247.509 45.4724C246.327 43.6499 251.919 38.7224 247.914 34.9312C245.506 38.0474 241.962 40.6349 237.991 41.4112C242.165 46.6762 245.911 43.3462 247.509 45.4724Z" stroke="#E941E3" stroke-width="0.99" stroke-linecap="round" stroke-linejoin="round"/>
<path d="M249.984 32.7825C249.759 32.7487 249.556 32.6925 249.354 32.6137C250.152 31.095 250.726 29.4187 251.041 27.63C251.109 27.2362 251.165 26.8312 251.199 26.4375C252.852 26.7975 253.955 28.395 253.696 30.0938C253.415 31.86 251.761 33.0637 249.995 32.7825H249.984Z" stroke="#E941E3" stroke-width="0.99" stroke-linecap="round" stroke-linejoin="round"/>
<path d="M257.712 32.0511C255.631 31.4098 256.756 24.0523 251.244 23.7148C251.412 27.6523 250.355 31.9161 247.812 35.0548C254.394 36.4048 255.114 31.4436 257.712 32.0511Z" stroke="#E941E3" stroke-width="0.99" stroke-linecap="round" stroke-linejoin="round"/>
<path d="M251.458 20.7337C251.266 20.8462 251.064 20.9362 250.873 21.0149C250.501 19.3387 249.871 17.6737 248.96 16.1099C248.758 15.7612 248.544 15.4237 248.308 15.0974C249.804 14.3099 251.683 14.8274 252.571 16.2899C253.494 17.8199 252.999 19.8112 251.469 20.7337H251.458Z" stroke="#E941E3" stroke-width="0.99" stroke-linecap="round" stroke-linejoin="round"/>
<path d="M256.903 15.2098C254.9 16.0535 251.03 9.69726 246.586 12.9823C249.241 15.896 251.176 19.8335 251.244 23.8835C257.161 20.6885 254.518 16.4248 256.891 15.221" stroke="#E941E3" stroke-width="0.99" stroke-linecap="round" stroke-linejoin="round"/>
<path d="M251.233 25.1776C251.109 34.6276 243.369 42.1763 233.953 42.0526C224.536 41.9288 216.999 34.1663 217.123 24.7276C217.246 15.2776 224.986 7.72882 234.403 7.85257C243.819 7.97632 251.356 15.7388 251.221 25.1776H251.233Z" stroke="#E941E3" stroke-width="0.99" stroke-linecap="round" stroke-linejoin="round"/>
</g>
<defs>
<radialGradient id="paint0_radial_2053_111" cx="0" cy="0" r="1" gradientUnits="userSpaceOnUse" gradientTransform="translate(235.503 465.501) scale(21.9583)">
<stop stop-color="#FC2A33"/>
<stop offset="0.25" stop-color="#FC2A33" stop-opacity="0.9801"/>
<stop offset="0.38" stop-color="#FC2A33" stop-opacity="0.9216"/>
<stop offset="0.49" stop-color="#FC2A33" stop-opacity="0.81"/>
<stop offset="0.59" stop-color="#FC2A33" stop-opacity="0.6889"/>
<stop offset="0.68" stop-color="#FC2A33" stop-opacity="0.5184"/>
<stop offset="0.76" stop-color="#FC2A33" stop-opacity="0.36"/>
<stop offset="0.83" stop-color="#FC2A33" stop-opacity="0.2025"/>
<stop offset="0.91" stop-color="#FC2A33" stop-opacity="0.0784"/>
<stop offset="0.97" stop-color="#FC2A33" stop-opacity="0.01"/>
<stop offset="1" stop-color="#FC2A33" stop-opacity="0"/>
</radialGradient>
<radialGradient id="paint1_radial_2053_111" cx="0" cy="0" r="1" gradientUnits="userSpaceOnUse" gradientTransform="translate(234 99.501) scale(21.6225 21.5)">
<stop stop-color="#83A8EE"/>
<stop offset="0.15" stop-color="#83A7EE" stop-opacity="0.9801"/>
<stop offset="0.28" stop-color="#83A4EE" stop-opacity="0.8836"/>
<stop offset="0.41" stop-color="#83A0EE" stop-opacity="0.7396"/>
<stop offset="0.53" stop-color="#839AEE" stop-opacity="0.5776"/>
<stop offset="0.65" stop-color="#8392EE" stop-opacity="0.3844"/>
<stop offset="0.76" stop-color="#8389EE" stop-opacity="0.2025"/>
<stop offset="0.88" stop-color="#837EEE" stop-opacity="0.0625"/>
<stop offset="0.99" stop-color="#8371EE" stop-opacity="0.01"/>
<stop offset="1" stop-color="#8370EE" stop-opacity="0"/>
</radialGradient>
<radialGradient id="paint2_radial_2053_111" cx="0" cy="0" r="1" gradientUnits="userSpaceOnUse" gradientTransform="translate(233.997 398.5) scale(21.7224 21.288)">
<stop stop-color="#FEC20E"/>
<stop offset="0.26" stop-color="#FEC10E" stop-opacity="0.9801"/>
<stop offset="0.4" stop-color="#FEC00E" stop-opacity="0.9216"/>
<stop offset="0.51" stop-color="#FEBE0E" stop-opacity="0.8281"/>
<stop offset="0.6" stop-color="#FEBB0E" stop-opacity="0.6889"/>
<stop offset="0.69" stop-color="#FEB70E" stop-opacity="0.5329"/>
<stop offset="0.76" stop-color="#FEB20E" stop-opacity="0.3721"/>
<stop offset="0.83" stop-color="#FEAC0E" stop-opacity="0.2209"/>
<stop offset="0.9" stop-color="#FEA60E" stop-opacity="0.09"/>
<stop offset="0.96" stop-color="#FE9E0E" stop-opacity="0.0144"/>
<stop offset="1" stop-color="#FE9A0E" stop-opacity="0"/>
</radialGradient>
<radialGradient id="paint3_radial_2053_111" cx="0" cy="0" r="1" gradientUnits="userSpaceOnUse" gradientTransform="translate(233.991 330.002) scale(21.7226 21.7329)">
<stop stop-color="#FFFF93"/>
<stop offset="0.2" stop-color="#FFFE92" stop-opacity="0.9801"/>
<stop offset="0.33" stop-color="#FFFD8F" stop-opacity="0.9025"/>
<stop offset="0.45" stop-color="#FFFC8A" stop-opacity="0.7921"/>
<stop offset="0.55" stop-color="#FFFA84" stop-opacity="0.6561"/>
<stop offset="0.65" stop-color="#FFF77B" stop-opacity="0.49"/>
<stop offset="0.74" stop-color="#FFF471" stop-opacity="0.3249"/>
<stop offset="0.83" stop-color="#FFF064" stop-opacity="0.1681"/>
<stop offset="0.91" stop-color="#FFEC56" stop-opacity="0.0484"/>
<stop offset="0.99" stop-color="#FFE746" stop-opacity="0.01"/>
<stop offset="1" stop-color="#FFE745" stop-opacity="0"/>
</radialGradient>
<radialGradient id="paint4_radial_2053_111" cx="0" cy="0" r="1" gradientUnits="userSpaceOnUse" gradientTransform="translate(234.5 250) scale(21.2786 21.8071)">
<stop stop-color="#86FF3E"/>
<stop offset="0.16" stop-color="#86FE3D" stop-opacity="0.9801"/>
<stop offset="0.29" stop-color="#86FC3B" stop-opacity="0.9025"/>
<stop offset="0.41" stop-color="#86F937" stop-opacity="0.7744"/>
<stop offset="0.52" stop-color="#86F532" stop-opacity="0.6084"/>
<stop offset="0.63" stop-color="#86F02B" stop-opacity="0.4356"/>
<stop offset="0.74" stop-color="#86EA22" stop-opacity="0.2601"/>
<stop offset="0.84" stop-color="#86E219" stop-opacity="0.1089"/>
<stop offset="0.94" stop-color="#86DA0D" stop-opacity="0.0144"/>
<stop offset="1" stop-color="#86D507" stop-opacity="0"/>
</radialGradient>
<radialGradient id="paint5_radial_2053_111" cx="0" cy="0" r="1" gradientUnits="userSpaceOnUse" gradientTransform="translate(234.5 176.5) scale(21.2567 21.1913)">
<stop stop-color="#8EFFFF"/>
<stop offset="0.17" stop-color="#8DFEFF" stop-opacity="0.9801"/>
<stop offset="0.3" stop-color="#8CFCFF" stop-opacity="0.9025"/>
<stop offset="0.42" stop-color="#8AFAFF" stop-opacity="0.7744"/>
<stop offset="0.53" stop-color="#87F6FF" stop-opacity="0.6241"/>
<stop offset="0.63" stop-color="#83F1FF" stop-opacity="0.4489"/>
<stop offset="0.74" stop-color="#7EECFF" stop-opacity="0.2809"/>
<stop offset="0.84" stop-color="#78E5FF" stop-opacity="0.1225"/>
<stop offset="0.93" stop-color="#72DDFF" stop-opacity="0.0256"/>
<stop offset="1" stop-color="#6DD7FF" stop-opacity="0"/>
</radialGradient>
<radialGradient id="paint6_radial_2053_111" cx="0" cy="0" r="1" gradientUnits="userSpaceOnUse" gradientTransform="translate(234.183 24.8697) scale(17.0437 17.0438)">
<stop offset="0.1" stop-color="#FE67D2"/>
<stop offset="0.25" stop-color="#FE67D2" stop-opacity="0.9801"/>
<stop offset="0.38" stop-color="#FE67D2" stop-opacity="0.9025"/>
<stop offset="0.49" stop-color="#FE67D2" stop-opacity="0.7744"/>
<stop offset="0.6" stop-color="#FE67D2" stop-opacity="0.6241"/>
<stop offset="0.7" stop-color="#FE67D2" stop-opacity="0.4356"/>
<stop offset="0.8" stop-color="#FE67D2" stop-opacity="0.2704"/>
<stop offset="0.89" stop-color="#FE67D2" stop-opacity="0.1156"/>
<stop offset="0.98" stop-color="#FE67D2" stop-opacity="0.0196"/>
<stop offset="1" stop-color="#FE67D2" stop-opacity="0.1"/>
</radialGradient>
<clipPath id="clip0_2053_111">
<rect width="451" height="499" fill="white" transform="translate(0 8)"/>
</clipPath>
<clipPath id="clip1_2053_111">
<rect width="51" height="51" fill="white" transform="translate(210 440)"/>
</clipPath>
<clipPath id="clip2_2053_111">
<rect width="54" height="43" fill="white" transform="translate(207 78)"/>
</clipPath>
<clipPath id="clip3_2053_111">
<rect width="50" height="49" fill="white" transform="translate(209 374)"/>
</clipPath>
<clipPath id="clip4_2053_111">
<rect width="48" height="48" fill="white" transform="translate(210 306)"/>
</clipPath>
<clipPath id="clip5_2053_111">
<rect width="43" height="44" fill="white" transform="translate(213 228)"/>
</clipPath>
<clipPath id="clip6_2053_111">
<rect width="43" height="43" fill="white" transform="translate(213 155)"/>
</clipPath>
<clipPath id="clip7_2053_111">
<rect width="50.3775" height="49.7475" fill="white" transform="translate(209)"/>
</clipPath>
</defs>
</svg>
