<svg width="1920" height="1048" viewBox="0 0 1920 1048" fill="none" xmlns="http://www.w3.org/2000/svg">
<rect width="1920" height="1048" fill="url(#paint0_radial_2093_111)"/>
<g opacity="0.1" clip-path="url(#clip0_2093_111)">
<path d="M729.368 276.604C725.335 283.431 714.201 285.4 708.761 275.237L710.051 275.202C714.869 281.294 724.927 278.694 724.927 267.542C724.927 265.538 724.823 263.117 723.016 262.677C716.159 261.019 711.073 274.926 703.175 272.707C706.473 279.865 701.667 287.004 692.432 287.004C683.197 287.004 675.819 278.713 672 270.407L673.472 270.473C676.969 275.817 684.366 280.971 690.435 280.971C697.825 280.971 700.07 273.03 694.425 267.908C692.805 268.687 690.89 269.286 688.671 269.706L685.112 263.743C688.263 262.883 693.722 261.12 695.525 258.111C696.71 256.13 697.017 252.709 694.891 252.23C690.33 251.203 685.68 255.145 682.385 258.477L677.564 253.114C693.524 237.124 708.26 257.364 697.086 266.242C705.269 271.186 708.361 261.474 715.914 258.477C724.325 255.145 735.157 266.799 729.368 276.604Z" fill="white"/>
<path d="M699.352 246.583L701.135 246.042C705.68 252.978 712.122 252.95 717.515 244.551L721.94 248.782C715.988 259.166 704.6 257.345 699.355 246.583H699.352Z" fill="white"/>
<path d="M714.471 242.438L710.043 238.001L705.614 242.438L710.043 246.874L714.471 242.438Z" fill="white"/>
</g>
<g opacity="0.02" clip-path="url(#clip1_2093_111)">
<path d="M1592.58 216.629C1579.18 239.2 1542.19 245.711 1524.12 212.112L1528.41 211.996C1544.41 232.135 1577.83 223.539 1577.83 186.671C1577.83 180.044 1577.48 172.04 1571.48 170.585C1548.7 165.104 1531.8 211.082 1505.56 203.747C1516.52 227.412 1500.55 251.013 1469.88 251.013C1439.2 251.013 1414.69 223.603 1402 196.142L1406.89 196.361C1418.51 214.029 1443.08 231.067 1463.24 231.067C1487.79 231.067 1495.25 204.815 1476.5 187.881C1471.11 190.454 1464.75 192.436 1457.38 193.826L1445.56 174.111C1456.03 171.267 1474.16 165.438 1480.15 155.491C1484.09 148.941 1485.11 137.63 1478.05 136.047C1462.89 132.649 1447.44 145.685 1436.5 156.7L1420.48 138.968C1473.5 86.1046 1522.46 153.02 1485.34 182.373C1512.52 198.716 1522.79 166.609 1547.88 156.7C1575.83 145.685 1611.81 184.213 1592.58 216.629Z" fill="white"/>
<path d="M1492.86 117.375L1498.79 115.586C1513.89 138.518 1535.29 138.428 1553.2 110.658L1567.9 124.646C1548.13 158.978 1510.3 152.956 1492.88 117.375H1492.86Z" fill="white"/>
<path d="M1543.09 103.671L1528.38 89.0029L1513.67 103.671L1528.38 118.339L1543.09 103.671Z" fill="white"/>
</g>
<g opacity="0.05" clip-path="url(#clip2_2093_111)">
<path d="M1705.4 374.451C1698.98 385.318 1681.23 388.454 1672.57 372.276L1674.62 372.22C1682.3 381.917 1698.33 377.778 1698.33 360.027C1698.33 356.836 1698.16 352.982 1695.28 352.282C1684.35 349.642 1676.25 371.78 1663.67 368.249C1668.92 379.643 1661.27 391.006 1646.55 391.006C1631.84 391.006 1620.08 377.809 1614 364.587L1616.35 364.692C1621.92 373.199 1633.7 381.403 1643.37 381.403C1655.14 381.403 1658.72 368.763 1649.73 360.609C1647.15 361.848 1644.1 362.803 1640.56 363.472L1634.89 353.98C1639.91 352.61 1648.61 349.804 1651.48 345.014C1653.37 341.86 1653.86 336.414 1650.47 335.652C1643.2 334.016 1635.79 340.293 1630.55 345.597L1622.86 337.059C1648.29 311.606 1671.77 343.825 1653.97 357.957C1667 365.826 1671.93 350.367 1683.96 345.597C1697.37 340.293 1714.62 358.843 1705.4 374.451Z" fill="white"/>
<path d="M1657.58 326.662L1660.42 325.801C1667.66 336.842 1677.92 336.798 1686.51 323.428L1693.57 330.163C1684.08 346.693 1665.94 343.794 1657.58 326.662H1657.58Z" fill="white"/>
<path d="M1681.67 320.064L1674.61 313.001L1667.56 320.064L1674.61 327.126L1681.67 320.064Z" fill="white"/>
</g>
<g opacity="0.02" clip-path="url(#clip3_2093_111)">
<path d="M314.856 480.326C302.142 501.782 267.039 507.972 249.892 476.032L253.958 475.922C269.146 495.066 300.856 486.895 300.856 451.848C300.856 445.548 300.525 437.939 294.83 436.557C273.212 431.345 257.179 475.053 232.279 468.081C242.678 490.577 227.527 513.012 198.413 513.012C169.299 513.012 146.04 486.956 134 460.851L138.642 461.059C149.665 477.855 172.986 494.051 192.117 494.051C215.413 494.051 222.493 469.096 204.696 452.998C199.589 455.444 193.55 457.328 186.557 458.649L175.337 439.908C185.271 437.205 202.479 431.663 208.162 422.207C211.898 415.981 212.866 405.228 206.166 403.723C191.787 400.494 177.126 412.886 166.739 423.357L151.539 406.5C201.855 356.248 248.312 419.859 213.086 447.762C238.881 463.298 248.63 432.777 272.441 423.357C298.958 412.886 333.105 449.511 314.856 480.326Z" fill="white"/>
<path d="M220.227 385.973L225.848 384.273C240.179 406.072 260.486 405.986 277.487 379.588L291.437 392.885C272.673 425.522 236.774 419.797 220.239 385.973H220.227Z" fill="white"/>
<path d="M267.893 372.947L253.932 359.003L239.971 372.947L253.932 386.89L267.893 372.947Z" fill="white"/>
</g>
<g opacity="0.05" clip-path="url(#clip4_2093_111)">
<path d="M1347.4 308.451C1340.98 319.318 1323.23 322.454 1314.57 306.276L1316.62 306.22C1324.3 315.917 1340.33 311.778 1340.33 294.027C1340.33 290.836 1340.16 286.982 1337.28 286.282C1326.35 283.642 1318.25 305.78 1305.67 302.249C1310.92 313.643 1303.27 325.006 1288.55 325.006C1273.84 325.006 1262.08 311.809 1256 298.587L1258.35 298.692C1263.92 307.199 1275.7 315.403 1285.37 315.403C1297.14 315.403 1300.72 302.763 1291.73 294.609C1289.15 295.848 1286.1 296.803 1282.56 297.472L1276.89 287.98C1281.91 286.61 1290.61 283.804 1293.48 279.014C1295.37 275.86 1295.86 270.414 1292.47 269.652C1285.2 268.016 1277.79 274.293 1272.55 279.597L1264.86 271.059C1290.29 245.606 1313.77 277.825 1295.97 291.957C1309 299.826 1313.93 284.367 1325.96 279.597C1339.37 274.293 1356.62 292.843 1347.4 308.451Z" fill="white"/>
<path d="M1299.58 260.662L1302.42 259.801C1309.66 270.842 1319.92 270.798 1328.51 257.428L1335.57 264.163C1326.08 280.693 1307.94 277.794 1299.58 260.662H1299.58Z" fill="white"/>
<path d="M1323.67 254.064L1316.61 247.001L1309.56 254.064L1316.61 261.126L1323.67 254.064Z" fill="white"/>
</g>
<g opacity="0.05" clip-path="url(#clip5_2093_111)">
<path d="M469.4 271.451C462.975 282.318 445.235 285.454 436.569 269.276L438.624 269.22C446.299 278.917 462.325 274.778 462.325 257.027C462.325 253.836 462.158 249.982 459.28 249.282C448.355 246.642 440.252 268.78 427.668 265.249C432.923 276.643 425.266 288.006 410.553 288.006C395.839 288.006 384.085 274.809 378 261.587L380.346 261.692C385.917 270.199 397.702 278.403 407.371 278.403C419.144 278.403 422.722 265.763 413.728 257.609C411.147 258.848 408.095 259.803 404.561 260.472L398.891 250.98C403.911 249.61 412.608 246.804 415.48 242.014C417.368 238.86 417.857 233.414 414.471 232.652C407.204 231.016 399.795 237.293 394.546 242.597L386.864 234.059C412.292 208.606 435.77 240.825 417.968 254.957C431.004 262.826 435.931 247.367 447.965 242.597C461.366 237.293 478.623 255.843 469.4 271.451Z" fill="white"/>
<path d="M421.577 223.662L424.418 222.801C431.661 233.842 441.923 233.798 450.515 220.428L457.565 227.163C448.082 243.693 429.94 240.794 421.583 223.662H421.577Z" fill="white"/>
<path d="M445.666 217.064L438.611 210.001L431.555 217.064L438.611 224.126L445.666 217.064Z" fill="white"/>
</g>
<g opacity="0.1" clip-path="url(#clip6_2093_111)">
<path d="M305.368 674.604C301.335 681.431 290.201 683.4 284.761 673.237L286.051 673.202C290.869 679.294 300.927 676.694 300.927 665.542C300.927 663.538 300.823 661.117 299.016 660.677C292.159 659.019 287.073 672.926 279.175 670.707C282.473 677.865 277.667 685.004 268.432 685.004C259.197 685.004 251.819 676.713 248 668.407L249.472 668.473C252.969 673.817 260.366 678.971 266.435 678.971C273.825 678.971 276.07 671.03 270.425 665.908C268.805 666.687 266.89 667.286 264.671 667.706L261.112 661.743C264.263 660.883 269.722 659.12 271.525 656.111C272.71 654.13 273.017 650.709 270.891 650.23C266.33 649.203 261.68 653.145 258.385 656.477L253.564 651.114C269.524 635.124 284.26 655.364 273.086 664.242C281.269 669.186 284.361 659.474 291.914 656.477C300.325 653.145 311.157 664.799 305.368 674.604Z" fill="white"/>
<path d="M275.352 644.583L277.135 644.042C281.68 650.978 288.122 650.95 293.515 642.551L297.94 646.782C291.988 657.166 280.6 655.345 275.355 644.583H275.352Z" fill="white"/>
<path d="M290.471 640.438L286.043 636.001L281.614 640.438L286.043 644.874L290.471 640.438Z" fill="white"/>
</g>
<g opacity="0.05" clip-path="url(#clip7_2093_111)">
<path d="M624.4 962.451C617.975 973.318 600.235 976.454 591.569 960.276L593.624 960.22C601.299 969.917 617.325 965.778 617.325 948.027C617.325 944.836 617.158 940.982 614.28 940.282C603.355 937.642 595.252 959.78 582.668 956.249C587.923 967.643 580.266 979.006 565.553 979.006C550.839 979.006 539.085 965.809 533 952.587L535.346 952.692C540.917 961.199 552.702 969.403 562.371 969.403C574.144 969.403 577.722 956.763 568.728 948.609C566.147 949.848 563.095 950.803 559.561 951.472L553.891 941.98C558.911 940.61 567.608 937.804 570.48 933.014C572.368 929.86 572.857 924.414 569.471 923.652C562.204 922.016 554.795 928.293 549.546 933.597L541.864 925.059C567.292 899.606 590.77 931.825 572.968 945.957C586.004 953.826 590.931 938.367 602.965 933.597C616.366 928.293 633.623 946.843 624.4 962.451Z" fill="white"/>
<path d="M576.577 914.662L579.418 913.801C586.661 924.842 596.923 924.798 605.515 911.428L612.565 918.163C603.082 934.693 584.94 931.794 576.583 914.662H576.577Z" fill="white"/>
<path d="M600.666 908.064L593.611 901.001L586.555 908.064L593.611 915.126L600.666 908.064Z" fill="white"/>
</g>
<g opacity="0.02" clip-path="url(#clip8_2093_111)">
<path d="M722.607 669.629C709.278 692.2 672.477 698.711 654.499 665.112L658.763 664.996C674.685 685.135 707.93 676.539 707.93 639.671C707.93 633.044 707.583 625.04 701.612 623.585C678.948 618.104 662.14 664.082 636.034 656.747C646.936 680.412 631.052 704.013 600.53 704.013C570.007 704.013 545.622 676.603 533 649.142L537.867 649.361C549.423 667.029 573.872 684.067 593.929 684.067C618.353 684.067 625.775 657.815 607.117 640.881C601.762 643.454 595.432 645.436 588.1 646.826L576.338 627.111C586.751 624.267 604.793 618.438 610.751 608.491C614.667 601.941 615.682 590.63 608.658 589.047C593.583 585.649 578.212 598.685 567.323 609.7L551.388 591.968C604.138 539.105 652.843 606.02 615.913 635.373C642.956 651.716 653.177 619.609 678.139 609.7C705.94 598.685 741.74 637.213 722.607 669.629Z" fill="white"/>
<path d="M623.399 570.375L629.293 568.586C644.317 591.518 665.607 591.428 683.43 563.658L698.055 577.646C678.383 611.978 640.747 605.956 623.412 570.375H623.399Z" fill="white"/>
<path d="M673.372 556.671L658.735 542.003L644.099 556.671L658.735 571.339L673.372 556.671Z" fill="white"/>
</g>
<g opacity="0.02" clip-path="url(#clip9_2093_111)">
<path d="M1255.55 963.416C1242.09 986.127 1204.91 992.678 1186.75 958.871L1191.05 958.755C1207.14 979.018 1240.72 970.369 1240.72 933.274C1240.72 926.606 1240.37 918.552 1234.34 917.089C1211.45 911.573 1194.46 957.836 1168.09 950.455C1179.1 974.266 1163.06 998.013 1132.22 998.013C1101.39 998.013 1076.75 970.434 1064 942.803L1068.92 943.023C1080.59 960.801 1105.29 977.944 1125.55 977.944C1150.23 977.944 1157.73 951.53 1138.88 934.491C1133.47 937.08 1127.07 939.074 1119.66 940.473L1107.78 920.637C1118.3 917.775 1136.53 911.91 1142.55 901.901C1146.5 895.311 1147.53 883.93 1140.43 882.337C1125.2 878.919 1109.68 892.035 1098.68 903.118L1082.58 885.276C1135.87 832.086 1185.07 899.415 1147.76 928.949C1175.08 945.393 1185.41 913.088 1210.63 903.118C1238.71 892.035 1274.88 930.801 1255.55 963.416Z" fill="white"/>
<path d="M1155.33 863.55L1161.28 861.75C1176.46 884.823 1197.97 884.732 1215.97 856.791L1230.75 870.865C1210.87 905.41 1172.85 899.35 1155.34 863.55H1155.33Z" fill="white"/>
<path d="M1205.81 849.762L1191.02 835.003L1176.24 849.762L1191.02 864.52L1205.81 849.762Z" fill="white"/>
</g>
<g opacity="0.02" clip-path="url(#clip10_2093_111)">
<path d="M1703.66 723.418C1692.93 741.531 1663.3 746.756 1648.82 719.793L1652.25 719.7C1665.07 735.861 1691.84 728.963 1691.84 699.378C1691.84 694.06 1691.56 687.637 1686.75 686.47C1668.51 682.071 1654.97 718.967 1633.96 713.081C1642.73 732.071 1629.94 751.01 1605.37 751.01C1580.8 751.01 1561.16 729.015 1551 706.978L1554.92 707.154C1564.22 721.332 1583.91 735.004 1600.06 735.004C1619.72 735.004 1625.7 713.938 1610.67 700.349C1606.36 702.414 1601.27 704.004 1595.36 705.119L1585.89 689.299C1594.28 687.017 1608.8 682.339 1613.6 674.357C1616.75 669.101 1617.57 660.024 1611.91 658.753C1599.78 656.027 1587.4 666.488 1578.63 675.327L1565.8 661.098C1608.28 618.676 1647.49 672.374 1617.76 695.929C1639.53 709.043 1647.76 683.279 1667.86 675.327C1690.24 666.488 1719.06 697.405 1703.66 723.418Z" fill="white"/>
<path d="M1623.78 643.77L1628.53 642.334C1640.62 660.736 1657.77 660.664 1672.12 638.379L1683.89 649.604C1668.05 677.155 1637.75 672.323 1623.79 643.77H1623.78Z" fill="white"/>
<path d="M1664.02 632.773L1652.23 621.002L1640.45 632.773L1652.23 644.544L1664.02 632.773Z" fill="white"/>
</g>
<g opacity="0.1" clip-path="url(#clip11_2093_111)">
<path d="M1286.84 514.786C1283.97 519.524 1276.04 520.89 1272.17 513.838L1273.09 513.814C1276.52 518.041 1283.68 516.237 1283.68 508.499C1283.68 507.108 1283.6 505.428 1282.32 505.123C1277.44 503.973 1273.81 513.622 1268.19 512.083C1270.54 517.05 1267.12 522.003 1260.54 522.003C1253.97 522.003 1248.72 516.25 1246 510.487L1247.05 510.533C1249.54 514.241 1254.8 517.817 1259.12 517.817C1264.38 517.817 1265.98 512.307 1261.96 508.753C1260.81 509.293 1259.45 509.709 1257.87 510.001L1255.33 505.863C1257.58 505.266 1261.46 504.043 1262.75 501.955C1263.59 500.58 1263.81 498.206 1262.3 497.874C1259.05 497.161 1255.74 499.897 1253.39 502.209L1249.96 498.487C1261.32 487.393 1271.81 501.437 1263.86 507.597C1269.68 511.027 1271.88 504.289 1277.26 502.209C1283.25 499.897 1290.96 507.983 1286.84 514.786Z" fill="white"/>
<path d="M1265.47 493.955L1266.74 493.58C1269.98 498.393 1274.56 498.374 1278.4 492.545L1281.55 495.481C1277.31 502.687 1269.21 501.423 1265.47 493.955H1265.47Z" fill="white"/>
<path d="M1276.23 491.079L1273.08 488L1269.93 491.079L1273.08 494.157L1276.23 491.079Z" fill="white"/>
</g>
<defs>
<radialGradient id="paint0_radial_2093_111" cx="0" cy="0" r="1" gradientUnits="userSpaceOnUse" gradientTransform="translate(960 524) rotate(90) scale(372.5 682.443)">
<stop stop-color="#60005E"/>
<stop offset="1" stop-color="#2F003F"/>
</radialGradient>
<clipPath id="clip0_2093_111">
<rect width="59" height="49" fill="white" transform="translate(672 238)"/>
</clipPath>
<clipPath id="clip1_2093_111">
<rect width="196" height="162" fill="white" transform="translate(1402 89)"/>
</clipPath>
<clipPath id="clip2_2093_111">
<rect width="94" height="78" fill="white" transform="translate(1614 313)"/>
</clipPath>
<clipPath id="clip3_2093_111">
<rect width="186" height="154" fill="white" transform="translate(134 359)"/>
</clipPath>
<clipPath id="clip4_2093_111">
<rect width="94" height="78" fill="white" transform="translate(1256 247)"/>
</clipPath>
<clipPath id="clip5_2093_111">
<rect width="94" height="78" fill="white" transform="translate(378 210)"/>
</clipPath>
<clipPath id="clip6_2093_111">
<rect width="59" height="49" fill="white" transform="translate(248 636)"/>
</clipPath>
<clipPath id="clip7_2093_111">
<rect width="94" height="78" fill="white" transform="translate(533 901)"/>
</clipPath>
<clipPath id="clip8_2093_111">
<rect width="195" height="162" fill="white" transform="translate(533 542)"/>
</clipPath>
<clipPath id="clip9_2093_111">
<rect width="197" height="163" fill="white" transform="translate(1064 835)"/>
</clipPath>
<clipPath id="clip10_2093_111">
<rect width="157" height="130" fill="white" transform="translate(1551 621)"/>
</clipPath>
<clipPath id="clip11_2093_111">
<rect width="42" height="34" fill="white" transform="translate(1246 488)"/>
</clipPath>
</defs>
</svg>
