<svg width="538" height="538" viewBox="0 0 538 538" fill="none" xmlns="http://www.w3.org/2000/svg">
<g opacity="0.5" clip-path="url(#clip0_292_355)">
<g style="mix-blend-mode:overlay">
<path d="M323.605 118.28C326.077 112.98 327.778 107.014 328.364 100.323C332.169 56.1912 286.761 60.9505 267.851 25.5896L267.816 24.1182C267.701 24.3711 267.586 24.6125 267.471 24.8654C267.345 24.624 267.218 24.3826 267.092 24.1412L267.126 25.6126C250.032 61.8931 204.44 59.433 210.476 103.324C210.774 105.485 211.188 107.554 211.706 109.543C213.051 112.451 214.085 115.383 214.844 118.314" stroke="#E941E3" stroke-linecap="round" stroke-linejoin="round"/>
<path d="M302.579 118.28C304.097 112.98 305.143 107.014 305.499 100.323C307.833 56.1912 279.99 60.9505 268.391 25.5896L268.368 24.1182C268.299 24.3711 268.23 24.6125 268.161 24.8654C268.081 24.624 268 24.3826 267.931 24.1412L267.954 25.6126C257.47 61.8931 229.512 59.433 233.214 103.324C233.398 105.485 233.651 107.554 233.961 109.543C234.789 112.451 235.421 115.383 235.881 118.314" stroke="#E941E3" stroke-linecap="round" stroke-linejoin="round"/>
<path d="M283.14 118.28C283.772 114.774 284.209 110.842 284.358 106.428C285.336 77.2745 273.736 80.4243 268.897 57.065V56.0879C268.862 56.2603 268.828 56.4213 268.805 56.5822C268.77 56.4213 268.736 56.2603 268.713 56.0994V57.0765C264.356 81.0451 252.711 79.4242 254.251 108.405C254.332 109.83 254.435 111.198 254.562 112.509C254.906 114.429 255.171 116.371 255.366 118.303H283.151L283.14 118.28Z" fill="#E941E3"/>
<path d="M412.421 190.162C417.72 187.691 422.859 184.219 427.607 179.471C458.898 148.111 421.043 122.567 429.285 83.3211L430.205 82.1715C429.963 82.2979 429.71 82.4014 429.469 82.5279C429.527 82.2634 429.584 81.999 429.642 81.7231L428.722 82.8727C392.303 99.6795 358.954 68.4916 335.377 105.991C334.215 107.83 333.204 109.692 332.319 111.543C331.479 114.635 330.387 117.544 329.088 120.268" stroke="#E941E3" stroke-linecap="round" stroke-linejoin="round"/>
<path d="M396.327 176.655C400.902 173.574 405.524 169.677 410.099 164.78C440.252 132.477 415.858 118.222 429.711 83.6774L430.642 82.5393C430.423 82.6888 430.216 82.8267 429.998 82.9761C430.09 82.7347 430.182 82.5048 430.285 82.2749L429.354 83.413C398.005 104.473 378.164 84.6085 352.793 120.613C351.551 122.383 350.413 124.131 349.367 125.867C348.125 128.626 346.723 131.281 345.206 133.822" stroke="#E941E3" stroke-linecap="round" stroke-linejoin="round"/>
<path d="M381.428 164.159C384.164 161.883 387.027 159.147 389.981 155.859C409.466 134.155 398.557 129.109 409.869 108.106L410.489 107.359C410.363 107.474 410.237 107.577 410.11 107.681C410.191 107.543 410.26 107.393 410.34 107.255L409.719 108.003C390.97 123.556 383.095 114.831 365.645 138.018C364.782 139.156 363.989 140.271 363.242 141.363C362.265 143.053 361.23 144.708 360.138 146.318L381.428 164.159Z" fill="#E941E3"/>
<path d="M434.263 302.326C439.919 303.844 446.081 304.488 452.771 303.89C496.892 299.981 484.315 256.079 515.86 231.317L517.308 231.03C517.044 230.961 516.779 230.892 516.515 230.823C516.733 230.662 516.94 230.49 517.17 230.329L515.722 230.616C477.027 220.086 471.521 174.747 429.354 188.323C427.285 188.99 425.319 189.76 423.446 190.611C420.813 192.439 418.112 193.968 415.353 195.221" stroke="#E941E3" stroke-linecap="round" stroke-linejoin="round"/>
<path d="M430.607 281.634C436.091 282.209 442.137 282.197 448.793 281.393C492.661 276.036 483.131 249.434 515.952 231.869L517.4 231.593C517.136 231.57 516.883 231.547 516.63 231.513C516.86 231.398 517.078 231.271 517.308 231.156L515.86 231.432C478.303 227.409 475.866 199.44 433.297 210.717C431.205 211.269 429.216 211.878 427.296 212.533C424.572 213.855 421.802 214.982 418.997 215.947" stroke="#E941E3" stroke-linecap="round" stroke-linejoin="round"/>
<path d="M427.228 262.482C430.791 262.494 434.734 262.241 439.114 261.62C467.991 257.516 462.876 246.641 485.051 237.824L486.005 237.64C485.833 237.64 485.672 237.64 485.511 237.64C485.66 237.582 485.81 237.525 485.971 237.456L485.017 237.64C460.657 237.502 460.232 225.753 431.952 232.306C430.561 232.628 429.239 232.973 427.963 233.329C426.136 234.007 424.273 234.594 422.399 235.122L427.239 262.482H427.228Z" fill="#E941E3"/>
<path d="M378.888 402.293C382.244 407.087 386.555 411.547 392.05 415.387C428.365 440.758 446.942 399.04 487.028 400.35L488.327 401.052C488.166 400.833 488.005 400.603 487.856 400.385C488.132 400.396 488.396 400.408 488.672 400.419L487.373 399.718C464.496 366.771 489.419 328.514 448.402 311.81C446.391 310.994 444.39 310.316 442.402 309.764C439.206 309.477 436.159 308.902 433.239 308.097" stroke="#E941E3" stroke-linecap="round" stroke-linejoin="round"/>
<path d="M389.395 384.084C393.223 388.05 397.867 391.935 403.477 395.579C440.528 419.674 450.322 393.165 486.752 400.81L488.04 401.523C487.856 401.339 487.683 401.155 487.5 400.971C487.752 401.028 487.994 401.074 488.247 401.132L486.959 400.419C460.783 373.197 476.889 350.206 437.033 331.479C435.079 330.56 433.159 329.743 431.274 329.019C428.343 328.283 425.492 327.364 422.721 326.306" stroke="#E941E3" stroke-linecap="round" stroke-linejoin="round"/>
<path d="M399.109 367.243C401.822 369.542 405.018 371.887 408.765 374.221C433.527 389.636 436.596 378.026 459.243 385.521L460.094 386.004C459.967 385.9 459.841 385.785 459.714 385.682C459.864 385.739 460.025 385.785 460.174 385.843L459.324 385.36C440.758 369.599 447.977 360.322 422.112 347.171C420.836 346.527 419.606 345.93 418.399 345.389C416.559 344.723 414.755 343.987 412.984 343.182L399.109 367.254V367.243Z" fill="#E941E3"/>
<path d="M272.219 443.264C271.713 449.092 272.138 455.277 273.886 461.76C285.404 504.536 326.444 484.522 356.31 511.295L356.85 512.663C356.862 512.387 356.896 512.123 356.919 511.847C357.115 512.031 357.322 512.215 357.529 512.399L356.988 511.031C360.644 471.095 404.328 457.806 383.647 418.628C382.635 416.709 381.532 414.904 380.371 413.202C378.106 410.926 376.14 408.524 374.427 406.041" stroke="#E941E3" stroke-linecap="round" stroke-linejoin="round"/>
<path d="M291.969 436.079C292.36 441.585 293.417 447.54 295.371 453.943C308.27 496.213 332.813 482.211 355.805 511.48L356.333 512.859C356.31 512.595 356.299 512.342 356.276 512.089C356.437 512.296 356.586 512.491 356.747 512.698L356.218 511.319C353.655 473.636 380.773 466.382 362.288 426.411C361.38 424.445 360.426 422.595 359.449 420.824C357.678 418.376 356.08 415.835 354.643 413.249" stroke="#E941E3" stroke-linecap="round" stroke-linejoin="round"/>
<path d="M310.235 429.423C310.844 432.929 311.776 436.78 313.144 440.976C322.202 468.704 332.02 461.772 344.55 482.073L344.895 482.982C344.86 482.821 344.837 482.648 344.803 482.487C344.883 482.625 344.975 482.763 345.056 482.901L344.711 481.993C340.618 457.978 352.114 455.518 340.756 428.814C340.193 427.503 339.63 426.25 339.055 425.055C338.078 423.365 337.17 421.64 336.319 419.893L310.224 429.412L310.235 429.423Z" fill="#E941E3"/>
<path d="M164.159 406.098C160.021 410.237 156.377 415.249 153.549 421.341C134.868 461.508 179.173 472.566 184.851 512.273L184.38 513.675C184.576 513.48 184.759 513.284 184.955 513.089C184.989 513.365 185.035 513.629 185.058 513.905L185.53 512.503C214.005 484.258 256.01 502.156 265.345 458.852C265.804 456.725 266.115 454.633 266.322 452.587C266.057 449.391 266.092 446.287 266.368 443.275" stroke="#E941E3" stroke-linecap="round" stroke-linejoin="round"/>
<path d="M183.909 413.283C180.667 417.744 177.655 422.986 175.034 429.159C157.744 469.831 185.541 474.877 184.345 512.077L183.863 513.468C184.012 513.25 184.162 513.055 184.311 512.836C184.311 513.089 184.288 513.342 184.276 513.595L184.759 512.204C207.015 481.694 232.455 493.569 243.985 451.058C244.549 448.966 245.02 446.943 245.411 444.954C245.629 441.942 246.043 438.965 246.606 436.056" stroke="#E941E3" stroke-linecap="round" stroke-linejoin="round"/>
<path d="M202.187 419.928C200.394 422.997 198.635 426.549 196.991 430.653C186.104 457.714 198.083 458.726 194.634 482.327L194.312 483.246C194.393 483.097 194.485 482.959 194.565 482.809C194.542 482.97 194.519 483.131 194.496 483.292L194.818 482.372C207.119 461.347 217.511 466.853 225.972 439.091C226.386 437.723 226.753 436.401 227.087 435.125C227.42 433.205 227.834 431.297 228.317 429.412L202.21 419.928H202.187Z" fill="#E941E3"/>
<path d="M105.278 308.155C99.4499 308.661 93.4376 310.167 87.3564 313.017C47.2363 331.779 74.0673 368.726 52.8922 402.788L51.6392 403.558C51.9151 403.523 52.1795 403.512 52.4554 403.477C52.3059 403.707 52.168 403.937 52.0185 404.167L53.2716 403.397C93.2422 400.063 113.912 440.781 148.893 413.605C150.617 412.272 152.192 410.869 153.664 409.432C155.515 406.811 157.538 404.454 159.687 402.339" stroke="#E941E3" stroke-linecap="round" stroke-linejoin="round"/>
<path d="M115.785 326.364C110.44 327.697 104.749 329.778 98.7829 332.813C59.3986 352.85 77.4469 374.588 52.6161 402.316L51.3516 403.075C51.6045 403.006 51.8459 402.948 52.0988 402.879C51.9264 403.063 51.7654 403.259 51.5815 403.443L52.846 402.684C89.5059 393.625 101.358 419.065 137.512 393.913C139.294 392.671 140.949 391.418 142.524 390.154C144.628 387.981 146.858 385.969 149.157 384.107" stroke="#E941E3" stroke-linecap="round" stroke-linejoin="round"/>
<path d="M125.522 343.194C122.177 344.401 118.544 345.987 114.647 348.068C88.9195 361.805 97.4378 370.278 79.6195 386.142L78.7803 386.636C78.9412 386.579 79.0907 386.521 79.2516 386.464C79.1251 386.567 79.0102 386.682 78.8837 386.786L79.7229 386.291C102.657 378.095 107.083 388.981 131.408 373.163C132.603 372.381 133.73 371.611 134.81 370.841C136.305 369.577 137.845 368.392 139.42 367.254L125.51 343.205L125.522 343.194Z" fill="#E941E3"/>
<path d="M123.131 195.289C118.337 191.933 112.762 189.22 106.278 187.484C63.4796 176.068 60.2838 221.615 22.164 234.099L20.704 233.88C20.934 234.03 21.1524 234.191 21.3823 234.34C21.1179 234.421 20.865 234.513 20.6006 234.582L22.0605 234.8C54.8234 257.941 44.4887 302.418 88.7472 304.085C90.9199 304.165 93.0352 304.119 95.0814 303.958C98.1852 303.142 101.243 302.636 104.255 302.395" stroke="#E941E3" stroke-linecap="round" stroke-linejoin="round"/>
<path d="M119.476 215.993C114.521 213.579 108.831 211.51 102.301 210.004C59.2494 200.037 59.1 228.294 22.2562 233.57L20.7962 233.34C21.0377 233.455 21.2561 233.559 21.4975 233.674C21.2446 233.708 20.9917 233.743 20.7388 233.777L22.1987 234.007C56.1111 250.63 48.8343 277.748 92.6905 281.714C94.8517 281.91 96.9324 282.013 98.9442 282.059C101.956 281.749 104.945 281.634 107.911 281.691" stroke="#E941E3" stroke-linecap="round" stroke-linejoin="round"/>
<path d="M116.107 235.145C112.773 233.915 108.968 232.8 104.646 231.892C76.102 225.868 77.194 237.847 53.3519 238.536L52.3863 238.376C52.5472 238.433 52.6967 238.49 52.8576 238.548C52.6967 238.548 52.5357 238.548 52.3633 238.559L53.3289 238.72C76.1709 247.181 72.5498 258.367 101.37 261.884C102.784 262.057 104.152 262.195 105.474 262.287C107.428 262.287 109.382 262.356 111.313 262.505L116.119 235.145H116.107Z" fill="#E941E3"/>
<path d="M209.349 120.303C207.832 114.647 205.314 108.991 201.452 103.496C176 67.2389 144.272 100.082 107.06 85.1378L106.083 84.0342C106.164 84.2986 106.232 84.563 106.301 84.8274C106.049 84.7239 105.796 84.6205 105.543 84.517L106.52 85.6206C116.751 124.407 80.2407 151.824 113.072 181.564C114.682 183.024 116.337 184.346 118.016 185.541C120.924 186.909 123.591 188.484 126.051 190.243" stroke="#E941E3" stroke-linecap="round" stroke-linejoin="round"/>
<path d="M193.244 133.811C191.002 128.775 187.967 123.533 183.944 118.188C157.365 82.873 139.099 104.428 107.474 84.7928L106.508 83.6777C106.623 83.9191 106.715 84.1491 106.83 84.379C106.612 84.241 106.405 84.1146 106.187 83.9651L107.152 85.0802C122.441 119.613 99.4385 135.707 130.488 166.941C132.017 168.482 133.535 169.896 135.064 171.218C137.57 172.919 139.938 174.758 142.168 176.701" stroke="#E941E3" stroke-linecap="round" stroke-linejoin="round"/>
<path d="M178.357 146.318C176.587 143.226 174.391 139.938 171.666 136.455C153.676 113.498 146.813 123.361 128.098 108.578L127.465 107.842C127.546 107.991 127.626 108.129 127.718 108.279C127.592 108.175 127.465 108.072 127.339 107.968L127.971 108.704C140.03 129.868 130.063 136.11 149.882 157.319C150.859 158.366 151.813 159.343 152.767 160.262C154.262 161.515 155.71 162.826 157.101 164.182L178.368 146.318H178.357Z" fill="#E941E3"/>
<path d="M296.21 193.887C297.441 191.243 298.291 188.277 298.579 184.943C300.475 162.952 277.84 165.32 268.425 147.697L268.402 146.961C268.345 147.088 268.287 147.214 268.23 147.329C268.172 147.203 268.103 147.088 268.046 146.961L268.069 147.697C259.551 165.78 236.824 164.55 239.835 186.426C239.985 187.495 240.192 188.53 240.445 189.53C241.111 190.979 241.629 192.439 242.008 193.898" stroke="#E941E3" stroke-linecap="round" stroke-linejoin="round"/>
<path d="M285.738 193.887C286.497 191.243 287.014 188.277 287.186 184.943C288.347 162.952 274.472 165.32 268.69 147.697V146.961C268.644 147.088 268.609 147.214 268.575 147.329C268.54 147.203 268.494 147.088 268.46 146.961V147.697C263.252 165.78 249.308 164.55 251.159 186.426C251.251 187.495 251.377 188.53 251.538 189.53C251.952 190.979 252.262 192.439 252.492 193.898" stroke="#E941E3" stroke-linecap="round" stroke-linejoin="round"/>
<path d="M276.047 193.887C276.357 192.14 276.576 190.185 276.656 187.978C277.139 173.448 271.357 175.023 268.954 163.377V162.895C268.931 162.975 268.92 163.055 268.908 163.136C268.897 163.055 268.874 162.975 268.862 162.895V163.377C266.689 175.321 260.884 174.517 261.654 188.955C261.689 189.668 261.746 190.346 261.815 191.002C261.988 191.956 262.114 192.921 262.218 193.887H276.058H276.047Z" fill="#E941E3"/>
<path d="M340.48 229.708C343.124 228.478 345.688 226.742 348.045 224.374C363.633 208.751 344.768 196.014 348.884 176.459L349.344 175.885C349.217 175.942 349.102 176 348.976 176.057C349.01 175.919 349.033 175.793 349.068 175.655L348.608 176.23C330.456 184.61 313.833 169.056 302.085 187.748C301.51 188.668 301.004 189.588 300.556 190.519C300.142 192.059 299.59 193.508 298.946 194.876" stroke="#E941E3" stroke-linecap="round" stroke-linejoin="round"/>
<path d="M332.456 222.983C334.732 221.442 337.043 219.499 339.319 217.062C354.344 200.957 342.193 193.864 349.091 176.643L349.55 176.069C349.447 176.149 349.343 176.218 349.228 176.287C349.274 176.172 349.32 176.057 349.378 175.931L348.918 176.505C333.295 187.001 323.409 177.103 310.764 195.048C310.143 195.933 309.58 196.807 309.062 197.669C308.442 199.049 307.752 200.371 306.993 201.635" stroke="#E941E3" stroke-linecap="round" stroke-linejoin="round"/>
<path d="M325.03 216.752C326.398 215.614 327.824 214.257 329.295 212.613C339.009 201.796 333.572 199.278 339.204 188.817L339.515 188.438C339.446 188.495 339.388 188.541 339.319 188.599C339.354 188.53 339.4 188.461 339.434 188.38L339.124 188.76C329.778 196.508 325.858 192.162 317.156 203.716C316.73 204.279 316.328 204.842 315.96 205.383C315.477 206.222 314.96 207.049 314.408 207.854L325.019 216.752H325.03Z" fill="#E941E3"/>
<path d="M351.367 285.611C354.183 286.37 357.253 286.692 360.587 286.393C382.578 284.439 376.313 262.563 392.027 250.228L392.752 250.078C392.614 250.044 392.487 250.009 392.361 249.975C392.464 249.894 392.579 249.802 392.683 249.722L391.958 249.871C372.668 244.618 369.932 222.029 348.918 228.788C347.884 229.121 346.907 229.501 345.975 229.926C344.665 230.834 343.32 231.593 341.94 232.225" stroke="#E941E3" stroke-linecap="round" stroke-linejoin="round"/>
<path d="M349.539 275.3C352.275 275.587 355.287 275.587 358.598 275.173C380.462 272.506 375.715 259.24 392.062 250.492L392.786 250.354C392.659 250.354 392.533 250.331 392.407 250.32C392.522 250.262 392.625 250.205 392.74 250.147L392.016 250.285C373.301 248.285 372.082 234.34 350.872 239.962C349.826 240.238 348.838 240.548 347.884 240.87C346.527 241.525 345.148 242.089 343.745 242.571" stroke="#E941E3" stroke-linecap="round" stroke-linejoin="round"/>
<path d="M347.861 265.747C349.631 265.747 351.608 265.632 353.781 265.322C368.174 263.275 365.622 257.861 376.669 253.458L377.141 253.366C377.06 253.366 376.98 253.366 376.888 253.366C376.968 253.332 377.037 253.309 377.117 253.274L376.646 253.366C364.507 253.297 364.3 247.446 350.206 250.711C349.516 250.871 348.85 251.044 348.217 251.216C347.309 251.55 346.378 251.849 345.447 252.113L347.861 265.747Z" fill="#E941E3"/>
<path d="M323.766 335.422C325.433 337.814 327.582 340.032 330.33 341.952C348.424 354.597 357.689 333.802 377.669 334.457L378.313 334.813C378.232 334.698 378.152 334.595 378.071 334.48C378.209 334.48 378.347 334.48 378.485 334.503L377.841 334.146C366.438 317.73 378.865 298.659 358.414 290.336C357.414 289.922 356.413 289.589 355.425 289.313C353.838 289.164 352.309 288.888 350.861 288.485" stroke="#E941E3" stroke-linecap="round" stroke-linejoin="round"/>
<path d="M329.008 326.352C330.916 328.33 333.227 330.261 336.032 332.089C354.494 344.09 359.38 330.882 377.531 334.698L378.175 335.055C378.083 334.963 377.991 334.871 377.911 334.779C378.037 334.802 378.152 334.836 378.278 334.859L377.635 334.503C364.587 320.938 372.611 309.477 352.746 300.142C351.769 299.682 350.815 299.28 349.873 298.912C348.413 298.544 346.987 298.084 345.608 297.556" stroke="#E941E3" stroke-linecap="round" stroke-linejoin="round"/>
<path d="M333.847 317.96C335.204 319.11 336.79 320.271 338.664 321.444C350.999 329.123 352.54 323.34 363.817 327.077L364.242 327.318C364.173 327.261 364.116 327.215 364.047 327.157C364.127 327.18 364.196 327.203 364.277 327.238L363.851 326.996C354.597 319.145 358.195 314.523 345.309 307.959C344.676 307.637 344.056 307.338 343.458 307.074C342.538 306.741 341.642 306.373 340.756 305.982L333.836 317.972L333.847 317.96Z" fill="#E941E3"/>
<path d="M270.598 355.85C270.345 358.759 270.564 361.84 271.426 365.07C277.162 386.383 297.625 376.416 312.5 389.751L312.765 390.43C312.765 390.292 312.788 390.154 312.799 390.027C312.902 390.119 313.006 390.211 313.098 390.303L312.833 389.625C314.65 369.714 336.423 363.093 326.123 343.573C325.617 342.619 325.065 341.711 324.49 340.872C323.364 339.733 322.386 338.538 321.524 337.296" stroke="#E941E3" stroke-linecap="round" stroke-linejoin="round"/>
<path d="M280.45 352.264C280.646 355 281.174 357.977 282.14 361.173C288.566 382.244 300.798 375.255 312.259 389.843L312.523 390.533C312.523 390.406 312.5 390.28 312.489 390.154C312.569 390.257 312.638 390.349 312.719 390.452L312.454 389.763C311.178 370.979 324.697 367.369 315.478 347.447C315.029 346.47 314.558 345.539 314.064 344.665C313.179 343.446 312.385 342.182 311.673 340.883" stroke="#E941E3" stroke-linecap="round" stroke-linejoin="round"/>
<path d="M289.555 348.953C289.854 350.701 290.325 352.62 291.003 354.713C295.521 368.531 300.407 365.082 306.66 375.198L306.833 375.658C306.821 375.577 306.81 375.497 306.787 375.416C306.833 375.485 306.867 375.554 306.913 375.623L306.741 375.164C304.706 363.196 310.431 361.966 304.764 348.654C304.488 347.999 304.2 347.378 303.913 346.781C303.419 345.941 302.97 345.079 302.556 344.206L289.555 348.953Z" fill="#E941E3"/>
<path d="M216.752 337.319C214.694 339.377 212.878 341.883 211.464 344.918C202.153 364.932 224.236 370.45 227.064 390.234L226.834 390.935C226.926 390.832 227.029 390.74 227.121 390.648C227.144 390.786 227.156 390.912 227.179 391.05L227.409 390.349C241.594 376.267 262.54 385.199 267.184 363.61C267.414 362.552 267.575 361.506 267.667 360.483C267.529 358.885 267.552 357.345 267.69 355.839" stroke="#E941E3" stroke-linecap="round" stroke-linejoin="round"/>
<path d="M226.592 340.906C224.983 343.124 223.477 345.745 222.167 348.815C213.545 369.082 227.409 371.599 226.811 390.142L226.569 390.832C226.65 390.728 226.719 390.625 226.799 390.521C226.799 390.648 226.799 390.774 226.788 390.901L227.029 390.211C238.123 375.002 250.802 380.922 256.539 359.736C256.826 358.69 257.056 357.678 257.251 356.689C257.366 355.183 257.562 353.701 257.849 352.252" stroke="#E941E3" stroke-linecap="round" stroke-linejoin="round"/>
<path d="M235.708 344.217C234.812 345.746 233.938 347.516 233.122 349.562C227.696 363.047 233.662 363.553 231.949 375.313L231.788 375.773C231.834 375.704 231.869 375.635 231.915 375.554C231.903 375.635 231.892 375.715 231.88 375.796L232.041 375.336C238.169 364.852 243.353 367.599 247.572 353.77C247.779 353.091 247.963 352.436 248.124 351.792C248.285 350.838 248.492 349.884 248.733 348.942L235.72 344.217H235.708Z" fill="#E941E3"/>
<path d="M187.403 288.52C184.495 288.773 181.506 289.52 178.471 290.946C158.469 300.303 171.85 318.708 161.297 335.687L160.676 336.066C160.814 336.055 160.952 336.043 161.078 336.032C161.009 336.147 160.929 336.262 160.86 336.377L161.48 335.997C181.403 334.33 191.703 354.62 209.142 341.078C210.004 340.412 210.786 339.722 211.521 338.998C212.441 337.687 213.453 336.515 214.522 335.457" stroke="#E941E3" stroke-linecap="round" stroke-linejoin="round"/>
<path d="M192.645 297.59C189.978 298.257 187.15 299.292 184.173 300.809C164.538 310.799 173.54 321.628 161.159 335.446L160.526 335.825C160.653 335.791 160.779 335.756 160.906 335.733C160.825 335.825 160.733 335.917 160.653 336.009L161.285 335.63C179.552 331.112 185.461 343.792 203.486 331.261C204.371 330.641 205.199 330.02 205.98 329.388C207.027 328.307 208.142 327.307 209.28 326.376" stroke="#E941E3" stroke-linecap="round" stroke-linejoin="round"/>
<path d="M197.497 305.982C195.83 306.58 194.025 307.373 192.082 308.408C179.253 315.248 183.506 319.478 174.632 327.376L174.218 327.617C174.298 327.583 174.379 327.56 174.448 327.537C174.39 327.594 174.321 327.64 174.264 327.698L174.678 327.456C186.104 323.364 188.312 328.801 200.44 320.915C201.037 320.524 201.601 320.145 202.129 319.754C202.877 319.122 203.647 318.536 204.429 317.961L197.497 305.971V305.982Z" fill="#E941E3"/>
<path d="M196.301 232.26C193.91 230.581 191.14 229.236 187.898 228.374C166.562 222.684 164.975 245.388 145.984 251.607L145.26 251.504C145.375 251.584 145.479 251.653 145.593 251.733C145.467 251.779 145.341 251.814 145.203 251.86L145.927 251.975C162.251 263.505 157.101 285.669 179.161 286.508C180.242 286.554 181.299 286.52 182.322 286.439C183.863 286.025 185.392 285.784 186.898 285.657" stroke="#E941E3" stroke-linecap="round" stroke-linejoin="round"/>
<path d="M194.485 242.583C192.013 241.376 189.185 240.353 185.932 239.594C164.47 234.628 164.401 248.71 146.042 251.343L145.318 251.228C145.433 251.285 145.548 251.343 145.663 251.4C145.536 251.412 145.41 251.435 145.283 251.446L146.007 251.561C162.906 259.85 159.285 273.357 181.138 275.334C182.207 275.426 183.254 275.484 184.254 275.507C185.748 275.357 187.243 275.3 188.726 275.323" stroke="#E941E3" stroke-linecap="round" stroke-linejoin="round"/>
<path d="M192.806 252.124C191.14 251.515 189.243 250.952 187.093 250.504C172.873 247.503 173.413 253.469 161.527 253.814L161.044 253.734C161.124 253.757 161.205 253.791 161.274 253.814C161.193 253.814 161.113 253.814 161.032 253.814L161.515 253.895C172.896 258.114 171.091 263.689 185.461 265.436C186.162 265.517 186.852 265.586 187.507 265.643C188.484 265.643 189.45 265.678 190.415 265.747L192.806 252.113V252.124Z" fill="#E941E3"/>
<path d="M239.272 194.887C238.513 192.071 237.26 189.255 235.341 186.507C222.661 168.436 206.843 184.806 188.3 177.356L187.817 176.805C187.852 176.931 187.886 177.069 187.921 177.196C187.794 177.138 187.668 177.092 187.541 177.035L188.024 177.586C193.117 196.911 174.93 210.579 191.289 225.397C192.094 226.121 192.91 226.777 193.749 227.374C195.197 228.053 196.531 228.846 197.749 229.72" stroke="#E941E3" stroke-linecap="round" stroke-linejoin="round"/>
<path d="M231.248 201.624C230.133 199.118 228.616 196.508 226.615 193.841C213.372 176.241 204.268 186.99 188.507 177.195L188.024 176.644C188.082 176.759 188.128 176.873 188.185 177C188.082 176.931 187.967 176.862 187.863 176.793L188.346 177.345C195.968 194.554 184.507 202.578 199.98 218.143C200.739 218.913 201.497 219.615 202.256 220.281C203.509 221.132 204.682 222.04 205.797 223.017" stroke="#E941E3" stroke-linecap="round" stroke-linejoin="round"/>
<path d="M223.822 207.854C222.936 206.314 221.844 204.67 220.488 202.934C211.521 191.496 208.095 196.416 198.772 189.036L198.462 188.668C198.508 188.737 198.543 188.817 198.588 188.886C198.52 188.84 198.462 188.783 198.393 188.737L198.703 189.105C204.716 199.658 199.75 202.762 209.624 213.338C210.107 213.855 210.59 214.349 211.061 214.809C211.809 215.43 212.533 216.085 213.223 216.764L223.822 207.854Z" fill="#E941E3"/>
<path d="M269.253 432.01C355.281 432.01 425.02 362.27 425.02 276.243C425.02 190.215 355.281 120.476 269.253 120.476C183.225 120.476 113.486 190.215 113.486 276.243C113.486 362.27 183.225 432.01 269.253 432.01Z" stroke="#E941E3" stroke-linecap="round" stroke-linejoin="round"/>
<path d="M269.253 411.329C343.859 411.329 404.339 350.849 404.339 276.243C404.339 201.636 343.859 141.156 269.253 141.156C194.647 141.156 134.167 201.636 134.167 276.243C134.167 350.849 194.647 411.329 269.253 411.329Z" stroke="#E941E3" stroke-linecap="round" stroke-linejoin="round"/>
<path d="M278.438 131.443C278.438 135.018 275.541 137.903 271.978 137.903C268.414 137.903 265.517 135.006 265.517 131.443C265.517 127.879 268.414 124.982 271.978 124.982C275.541 124.982 278.438 127.879 278.438 131.443Z" fill="#E941E3"/>
<path d="M322.478 141.271C321.386 144.674 317.742 146.536 314.339 145.433C310.936 144.341 309.074 140.696 310.178 137.294C311.27 133.891 314.914 132.029 318.317 133.132C321.719 134.224 323.582 137.869 322.478 141.271Z" fill="#E941E3"/>
<path d="M361.357 164.136C359.265 167.033 355.23 167.688 352.333 165.596C349.436 163.504 348.781 159.469 350.873 156.572C352.965 153.675 357 153.02 359.897 155.112C362.794 157.204 363.449 161.239 361.357 164.136Z" fill="#E941E3"/>
<path d="M391.337 197.842C388.464 199.957 384.417 199.336 382.302 196.462C380.187 193.588 380.807 189.542 383.681 187.427C386.555 185.312 390.602 185.932 392.717 188.806C394.832 191.68 394.211 195.727 391.337 197.842Z" fill="#E941E3"/>
<path d="M409.512 239.134C406.121 240.261 402.466 238.433 401.339 235.053C400.212 231.662 402.04 228.007 405.42 226.88C408.811 225.753 412.467 227.581 413.593 230.961C414.72 234.352 412.892 238.008 409.512 239.134Z" fill="#E941E3"/>
<path d="M414.134 284.014C410.559 284.048 407.639 281.186 407.604 277.61C407.57 274.035 410.432 271.115 414.007 271.081C417.583 271.046 420.503 273.909 420.537 277.484C420.571 281.059 417.709 283.979 414.134 284.014Z" fill="#E941E3"/>
<path d="M404.742 328.134C401.339 327.077 399.431 323.444 400.5 320.041C401.557 316.639 405.19 314.73 408.593 315.8C411.995 316.857 413.904 320.49 412.835 323.893C411.777 327.295 408.144 329.204 404.742 328.134Z" fill="#E941E3"/>
<path d="M382.256 367.243C379.336 365.185 378.646 361.15 380.704 358.23C382.762 355.31 386.797 354.62 389.717 356.678C392.637 358.736 393.326 362.771 391.269 365.691C389.211 368.611 385.176 369.301 382.256 367.243Z" fill="#E941E3"/>
<path d="M348.838 397.557C346.7 394.706 347.274 390.648 350.125 388.51C352.976 386.372 357.034 386.946 359.173 389.797C361.311 392.648 360.736 396.706 357.885 398.844C355.034 400.983 350.976 400.408 348.838 397.557Z" fill="#E941E3"/>
<path d="M307.729 416.134C306.568 412.754 308.362 409.076 311.73 407.915C315.11 406.753 318.788 408.547 319.949 411.915C321.11 415.295 319.317 418.973 315.949 420.134C312.569 421.296 308.891 419.502 307.729 416.134Z" fill="#E941E3"/>
<path d="M262.896 421.181C262.827 417.617 265.666 414.663 269.23 414.594C272.794 414.525 275.748 417.364 275.817 420.928C275.886 424.492 273.046 427.446 269.483 427.515C265.919 427.584 262.965 424.745 262.896 421.181Z" fill="#E941E3"/>
<path d="M218.683 412.226C219.718 408.811 223.316 406.868 226.742 407.903C230.156 408.938 232.099 412.536 231.064 415.962C230.03 419.376 226.432 421.319 223.006 420.284C219.592 419.249 217.649 415.651 218.683 412.226Z" fill="#E941E3"/>
<path d="M179.357 390.119C181.391 387.188 185.415 386.452 188.346 388.475C191.278 390.51 192.013 394.534 189.99 397.465C187.955 400.396 183.932 401.132 181 399.109C178.069 397.074 177.333 393.051 179.357 390.119Z" fill="#E941E3"/>
<path d="M148.732 357C151.571 354.827 155.618 355.368 157.79 358.196C159.963 361.035 159.423 365.082 156.595 367.254C153.767 369.427 149.709 368.887 147.536 366.059C145.364 363.219 145.904 359.173 148.732 357Z" fill="#E941E3"/>
<path d="M129.753 316.076C133.121 314.88 136.811 316.639 138.006 319.996C139.202 323.364 137.443 327.054 134.086 328.25C130.718 329.445 127.028 327.686 125.832 324.33C124.637 320.961 126.396 317.271 129.753 316.076Z" fill="#E941E3"/>
<path d="M124.257 271.3C127.821 271.196 130.799 274.001 130.902 277.576C131.005 281.151 128.201 284.117 124.625 284.221C121.062 284.324 118.084 281.519 117.981 277.944C117.877 274.381 120.682 271.403 124.257 271.3Z" fill="#E941E3"/>
<path d="M132.787 227.006C136.213 228.006 138.19 231.593 137.19 235.019C136.19 238.445 132.603 240.422 129.178 239.422C125.752 238.422 123.775 234.835 124.775 231.409C125.775 227.983 129.362 226.006 132.787 227.006Z" fill="#E941E3"/>
<path d="M154.503 187.461C157.457 189.461 158.227 193.485 156.227 196.439C154.227 199.394 150.203 200.164 147.249 198.164C144.294 196.163 143.524 192.14 145.525 189.185C147.525 186.231 151.548 185.461 154.503 187.461Z" fill="#E941E3"/>
<path d="M187.323 156.503C189.519 159.32 189.024 163.378 186.208 165.574C183.392 167.769 179.334 167.275 177.138 164.458C174.942 161.642 175.436 157.584 178.253 155.388C181.069 153.193 185.127 153.687 187.323 156.503Z" fill="#E941E3"/>
<path d="M228.064 137.133C229.294 140.49 227.57 144.203 224.225 145.422C220.868 146.652 217.155 144.927 215.936 141.582C214.706 138.225 216.43 134.512 219.776 133.294C223.132 132.063 226.846 133.788 228.064 137.133Z" fill="#E941E3"/>
<path d="M269.253 351.942C311.061 351.942 344.952 318.05 344.952 276.242C344.952 234.435 311.061 200.543 269.253 200.543C227.445 200.543 193.554 234.435 193.554 276.242C193.554 318.05 227.445 351.942 269.253 351.942Z" stroke="#E941E3" stroke-linecap="round" stroke-linejoin="round"/>
<path d="M269.253 341.895C305.512 341.895 334.905 312.501 334.905 276.242C334.905 239.984 305.512 210.59 269.253 210.59C232.995 210.59 203.601 239.984 203.601 276.242C203.601 312.501 232.995 341.895 269.253 341.895Z" stroke="#E941E3" stroke-linecap="round" stroke-linejoin="round"/>
<path d="M273.725 205.865C273.725 207.601 272.322 209.004 270.587 209.004C268.851 209.004 267.448 207.601 267.448 205.865C267.448 204.13 268.851 202.727 270.587 202.727C272.322 202.727 273.725 204.13 273.725 205.865Z" fill="#E941E3"/>
<path d="M295.119 210.636C294.59 212.291 292.82 213.188 291.164 212.659C289.509 212.13 288.612 210.36 289.141 208.705C289.67 207.049 291.44 206.153 293.095 206.681C294.751 207.21 295.648 208.981 295.119 210.636Z" fill="#E941E3"/>
<path d="M314.017 221.752C313.006 223.155 311.04 223.477 309.637 222.465C308.235 221.453 307.913 219.488 308.925 218.085C309.936 216.683 311.902 216.361 313.305 217.372C314.707 218.384 315.029 220.35 314.017 221.752Z" fill="#E941E3"/>
<path d="M328.594 238.146C327.192 239.169 325.226 238.87 324.203 237.479C323.179 236.076 323.478 234.111 324.869 233.087C326.272 232.064 328.238 232.363 329.261 233.754C330.284 235.157 329.985 237.122 328.594 238.146Z" fill="#E941E3"/>
<path d="M337.423 258.205C335.779 258.757 333.997 257.86 333.445 256.217C332.893 254.573 333.79 252.791 335.434 252.239C337.078 251.687 338.86 252.584 339.411 254.228C339.963 255.872 339.066 257.654 337.423 258.205Z" fill="#E941E3"/>
<path d="M339.665 280.013C337.929 280.024 336.515 278.633 336.492 276.897C336.48 275.162 337.871 273.748 339.607 273.725C341.343 273.713 342.757 275.104 342.78 276.84C342.791 278.576 341.4 279.99 339.665 280.013Z" fill="#E941E3"/>
<path d="M335.101 301.464C333.445 300.947 332.526 299.188 333.043 297.532C333.56 295.877 335.319 294.957 336.975 295.475C338.63 295.992 339.55 297.751 339.032 299.406C338.515 301.062 336.756 301.981 335.101 301.464Z" fill="#E941E3"/>
<path d="M324.18 320.466C322.766 319.466 322.421 317.5 323.421 316.086C324.421 314.672 326.387 314.328 327.801 315.328C329.215 316.328 329.56 318.294 328.56 319.708C327.559 321.122 325.594 321.466 324.18 320.466Z" fill="#E941E3"/>
<path d="M307.936 335.204C306.89 333.813 307.177 331.847 308.557 330.801C309.936 329.755 311.914 330.042 312.96 331.422C314.006 332.813 313.718 334.778 312.339 335.824C310.948 336.871 308.982 336.583 307.936 335.204Z" fill="#E941E3"/>
<path d="M287.957 344.228C287.393 342.584 288.267 340.802 289.9 340.239C291.543 339.676 293.325 340.549 293.889 342.182C294.452 343.826 293.578 345.607 291.946 346.171C290.302 346.734 288.52 345.86 287.957 344.228Z" fill="#E941E3"/>
<path d="M266.173 346.688C266.138 344.952 267.518 343.515 269.253 343.481C270.989 343.446 272.426 344.826 272.461 346.561C272.495 348.297 271.116 349.734 269.38 349.769C267.644 349.803 266.207 348.424 266.173 346.688Z" fill="#E941E3"/>
<path d="M244.675 342.331C245.181 340.664 246.929 339.733 248.584 340.228C250.251 340.733 251.182 342.481 250.688 344.136C250.182 345.792 248.435 346.734 246.779 346.24C245.124 345.734 244.181 343.987 244.675 342.331Z" fill="#E941E3"/>
<path d="M225.569 331.583C226.558 330.157 228.512 329.801 229.938 330.79C231.363 331.778 231.72 333.732 230.731 335.158C229.742 336.583 227.788 336.94 226.363 335.951C224.937 334.962 224.581 333.008 225.569 331.583Z" fill="#E941E3"/>
<path d="M210.683 315.489C212.062 314.431 214.028 314.696 215.085 316.075C216.143 317.455 215.879 319.42 214.499 320.478C213.12 321.536 211.154 321.271 210.096 319.892C209.039 318.512 209.303 316.546 210.683 315.489Z" fill="#E941E3"/>
<path d="M201.451 295.601C203.084 295.015 204.877 295.877 205.463 297.509C206.05 299.142 205.187 300.935 203.555 301.521C201.923 302.108 200.129 301.245 199.543 299.613C198.957 297.981 199.819 296.187 201.451 295.601Z" fill="#E941E3"/>
<path d="M198.784 273.84C200.52 273.794 201.969 275.15 202.015 276.886C202.061 278.622 200.704 280.07 198.968 280.116C197.232 280.162 195.784 278.806 195.738 277.07C195.692 275.334 197.048 273.885 198.784 273.84Z" fill="#E941E3"/>
<path d="M202.923 252.308C204.59 252.791 205.544 254.538 205.061 256.205C204.578 257.872 202.831 258.826 201.164 258.343C199.497 257.86 198.543 256.113 199.026 254.446C199.509 252.779 201.256 251.825 202.923 252.308Z" fill="#E941E3"/>
<path d="M213.488 233.087C214.925 234.064 215.304 236.019 214.327 237.444C213.35 238.869 211.395 239.26 209.97 238.283C208.533 237.306 208.154 235.352 209.131 233.926C210.108 232.501 212.062 232.11 213.488 233.087Z" fill="#E941E3"/>
<path d="M229.432 218.051C230.501 219.419 230.26 221.396 228.892 222.465C227.524 223.534 225.546 223.293 224.477 221.925C223.408 220.557 223.65 218.58 225.018 217.51C226.386 216.441 228.363 216.683 229.432 218.051Z" fill="#E941E3"/>
<path d="M249.239 208.624C249.837 210.257 248.998 212.061 247.365 212.659C245.733 213.257 243.928 212.418 243.33 210.785C242.733 209.153 243.572 207.348 245.204 206.75C246.837 206.153 248.641 206.992 249.239 208.624Z" fill="#E941E3"/>
</g>
<path opacity="0.75" d="M269 538C417.565 538 538 417.565 538 269C538 120.435 417.565 0 269 0C120.435 0 0 120.435 0 269C0 417.565 120.435 538 269 538Z" fill="url(#paint0_radial_292_355)"/>
<g opacity="0.1" clip-path="url(#clip1_292_355)">
<path d="M451.4 221.451C444.975 232.318 427.235 235.454 418.569 219.276L420.624 219.22C428.299 228.917 444.325 224.778 444.325 207.027C444.325 203.836 444.158 199.982 441.28 199.282C430.355 196.642 422.252 218.78 409.668 215.249C414.923 226.643 407.266 238.006 392.553 238.006C377.839 238.006 366.085 224.809 360 211.587L362.346 211.692C367.917 220.199 379.702 228.403 389.371 228.403C401.144 228.403 404.722 215.763 395.728 207.609C393.147 208.848 390.095 209.803 386.561 210.472L380.891 200.98C385.911 199.61 394.608 196.804 397.48 192.014C399.368 188.86 399.857 183.414 396.471 182.652C389.204 181.016 381.795 187.293 376.546 192.597L368.864 184.059C394.292 158.606 417.77 190.825 399.968 204.957C413.004 212.826 417.931 197.367 429.965 192.597C443.366 187.293 460.623 205.843 451.4 221.451Z" fill="white"/>
<path d="M403.577 173.662L406.418 172.801C413.661 183.842 423.923 183.798 432.515 170.428L439.565 177.163C430.082 193.693 411.94 190.794 403.583 173.662H403.577Z" fill="white"/>
<path d="M427.666 167.064L420.611 160.001L413.555 167.064L420.611 174.126L427.666 167.064Z" fill="white"/>
</g>
</g>
<defs>
<radialGradient id="paint0_radial_292_355" cx="0" cy="0" r="1" gradientUnits="userSpaceOnUse" gradientTransform="translate(269 269) scale(269)">
<stop offset="0.1" stop-color="white"/>
<stop offset="0.14" stop-color="#FAF3F9" stop-opacity="0.9604"/>
<stop offset="0.22" stop-color="#EFD3EC" stop-opacity="0.8281"/>
<stop offset="0.32" stop-color="#DD9FD6" stop-opacity="0.6561"/>
<stop offset="0.44" stop-color="#C457B7" stop-opacity="0.4489"/>
<stop offset="0.58" stop-color="#A60092" stop-opacity="0.5"/>
<stop offset="0.76" stop-color="#A60092" stop-opacity="0.0529"/>
<stop offset="0.91" stop-color="#A60092" stop-opacity="0.01"/>
<stop offset="1" stop-color="#A60092" stop-opacity="0"/>
</radialGradient>
<clipPath id="clip0_292_355">
<rect width="538" height="538" fill="white"/>
</clipPath>
<clipPath id="clip1_292_355">
<rect width="94" height="78" fill="white" transform="translate(360 160)"/>
</clipPath>
</defs>
</svg>
