<svg width="36" height="23" viewBox="0 0 36 23" fill="none" xmlns="http://www.w3.org/2000/svg">
<path d="M10.2256 0.456052C10.5321 0.160045 10.9426 -0.00374439 11.3687 -4.21858e-05C11.7947 0.00366002 12.2023 0.17456 12.5036 0.475849C12.8049 0.777138 12.9758 1.18471 12.9795 1.61078C12.9832 2.03685 12.8194 2.44733 12.5234 2.75381L5.54727 9.72993L34.1245 9.72993C34.5555 9.72993 34.9688 9.90114 35.2736 10.2059C35.5783 10.5106 35.7495 10.924 35.7495 11.3549C35.7495 11.7859 35.5783 12.1992 35.2736 12.504C34.9688 12.8087 34.5555 12.9799 34.1245 12.9799L5.54726 12.9799L12.5234 19.9561C12.8194 20.2625 12.9832 20.673 12.9795 21.0991C12.9758 21.5251 12.8049 21.9327 12.5036 22.234C12.2023 22.5353 11.7947 22.7062 11.3687 22.7099C10.9426 22.7136 10.5321 22.5498 10.2256 22.2538L0.47564 12.5038C0.170999 12.1991 -0.000136374 11.7858 -0.000136336 11.3549C-0.000136299 10.924 0.170999 10.5108 0.47564 10.2061L10.2256 0.456052Z" fill="#3F382F"/>
</svg>
