<svg width="793" height="232" viewBox="0 0 793 232" fill="none" xmlns="http://www.w3.org/2000/svg">
<g clip-path="url(#clip0_292_1686)">
<path fill-rule="evenodd" clip-rule="evenodd" d="M35.3516 213.07H22.0947L22.6973 211.862V210.251L23.5008 209.445L23.099 209.042C23.099 208.841 23.2999 208.639 23.7016 208.438V207.431L28.1206 189.105C28.1206 189.105 27.518 188.903 27.518 188.702C27.518 188.702 27.7188 188.299 28.1206 188.299V186.889L29.5266 184.07C29.5266 184.07 29.1249 183.869 29.1249 183.667C29.1249 183.667 29.3257 183.466 29.7275 183.264V181.855L31.5352 178.431C31.5352 178.431 30.9326 178.028 30.9326 177.827C30.9326 177.626 31.1335 177.424 31.5352 177.223V176.619H32.5395L33.5438 172.591C33.5438 172.591 33.1421 172.591 33.1421 172.188C33.1421 172.188 33.343 171.987 33.7447 171.785C33.7447 171.785 33.7447 171.785 33.9455 171.584C33.9455 171.584 34.1464 171.584 34.5481 171.382L35.1507 167.153L35.7533 171.382C35.7533 171.382 36.3559 171.382 36.3559 171.584C36.3559 171.584 36.5567 171.584 36.5567 171.785C36.9585 171.785 37.1593 171.987 37.1593 172.188C37.1593 172.188 37.1593 172.389 36.7576 172.591L37.7619 176.619H38.7662V177.223C38.7662 177.223 39.3688 177.626 39.3688 177.827C39.3688 177.827 39.3688 178.23 38.7662 178.431L40.574 181.855V183.264C40.574 183.264 41.1765 183.466 41.1765 183.667C41.1765 183.667 41.1765 183.869 40.7748 184.07L42.1808 186.889V188.299L42.7834 188.702C42.7834 188.702 42.5826 189.105 42.1808 189.105L46.5998 207.431V208.438C46.5998 208.438 47.2024 208.841 47.2024 209.042C47.2024 209.042 47.2024 209.445 46.8007 209.445L47.6041 210.251V211.862L48.2067 213.07H34.9498H35.3516Z" fill="#470601"/>
<path fill-rule="evenodd" clip-rule="evenodd" d="M43.7878 159.299C41.5783 159.299 41.98 157.89 40.1723 157.89C38.3645 157.89 38.7663 157.688 37.1594 156.883C36.1551 156.48 35.7534 156.279 35.5525 156.077V162.522C35.5525 162.522 37.1594 162.723 38.1637 161.917C39.3689 160.709 40.1723 162.32 41.3775 161.313C42.3818 160.306 42.9844 159.904 44.5912 160.306C46.1981 160.709 47.6042 159.098 47.6042 159.098C45.9973 159.501 46.1981 159.098 43.9887 159.098L43.7878 159.299Z" fill="#FF0700"/>
<path fill-rule="evenodd" clip-rule="evenodd" d="M209.297 213.07H196.041L196.643 211.862V210.251L197.447 209.445L197.045 209.042C197.045 208.841 197.246 208.639 197.647 208.438V207.431L202.066 189.105C202.066 189.105 201.464 188.903 201.464 188.702C201.464 188.702 201.665 188.299 202.066 188.299V186.889L203.472 184.07C203.472 184.07 203.071 183.869 203.071 183.667C203.071 183.667 203.272 183.466 203.673 183.264V181.855L205.481 178.431C205.481 178.431 204.878 178.028 204.878 177.827C204.878 177.626 205.079 177.424 205.481 177.223V176.619H206.485L207.49 172.591C207.49 172.591 207.088 172.591 207.088 172.188C207.088 172.188 207.289 171.987 207.69 171.785C207.69 171.785 207.69 171.785 207.891 171.584C207.891 171.584 208.092 171.584 208.494 171.382L209.096 167.153L209.699 171.382C209.699 171.382 210.302 171.382 210.302 171.584C210.302 171.584 210.503 171.584 210.503 171.785C210.904 171.785 211.105 171.987 211.105 172.188C211.105 172.188 211.105 172.389 210.703 172.591L211.708 176.619H212.712V177.223C212.712 177.223 213.315 177.626 213.315 177.827C213.315 177.827 213.315 178.23 212.712 178.431L214.52 181.855V183.264C214.52 183.264 215.122 183.466 215.122 183.667C215.122 183.667 215.122 183.869 214.721 184.07L216.127 186.889V188.299L216.729 188.702C216.729 188.702 216.528 189.105 216.127 189.105L220.546 207.431V208.438C220.546 208.438 221.148 208.841 221.148 209.042C221.148 209.042 221.148 209.445 220.746 209.445L221.55 210.251V211.862L222.152 213.07H208.896H209.297Z" fill="#470601"/>
<path fill-rule="evenodd" clip-rule="evenodd" d="M217.533 159.299C215.323 159.299 215.725 157.89 213.917 157.89C212.109 157.89 212.511 157.688 210.904 156.883C209.9 156.48 209.498 156.279 209.297 156.077V162.522C209.297 162.522 210.904 162.723 211.909 161.917C213.114 160.709 213.917 162.32 215.122 161.313C216.127 160.306 216.729 159.904 218.336 160.306C219.943 160.709 221.349 159.098 221.349 159.098C219.742 159.501 219.943 159.098 217.734 159.098L217.533 159.299Z" fill="#FF0700"/>
<path d="M224.964 211.861H19.6843C18.4641 211.861 17.4749 212.853 17.4749 214.077V216.493C17.4749 217.717 18.4641 218.709 19.6843 218.709H224.964C226.185 218.709 227.174 217.717 227.174 216.493V214.077C227.174 212.853 226.185 211.861 224.964 211.861Z" fill="#470601"/>
<path d="M234.807 217.903H9.84229C8.62203 217.903 7.63281 218.895 7.63281 220.119V222.535C7.63281 223.759 8.62203 224.751 9.84229 224.751H234.807C236.027 224.751 237.016 223.759 237.016 222.535V220.119C237.016 218.895 236.027 217.903 234.807 217.903Z" fill="#470601"/>
<path d="M242.439 222.736H2.20947C0.989215 222.736 0 223.728 0 224.952V227.368C0 228.592 0.989215 229.584 2.20947 229.584H242.439C243.66 229.584 244.649 228.592 244.649 227.368V224.952C244.649 223.728 243.66 222.736 242.439 222.736Z" fill="#470601"/>
<path fill-rule="evenodd" clip-rule="evenodd" d="M144.62 66.056C138.594 66.056 139.799 62.2296 135.18 62.431C130.56 62.431 131.363 61.8268 126.944 59.6115C124.333 58.4032 123.128 57.799 122.525 57.5977V74.9171C123.931 75.3199 126.944 75.7227 129.355 73.5074C132.769 70.4865 134.778 74.5143 137.791 72.0977C140.804 69.681 142.21 68.2713 146.428 69.4796C150.646 70.6879 154.261 66.2574 154.261 66.2574C150.043 67.4657 150.646 65.8546 144.62 65.8546V66.056Z" fill="#FF0700"/>
<path d="M122.726 57.5977H122.124V95.4588H122.726V57.5977Z" fill="#470601"/>
<path fill-rule="evenodd" clip-rule="evenodd" d="M156.873 207.632C156.873 207.632 158.078 207.229 158.279 206.827C158.279 206.222 157.877 205.618 156.873 204.611C157.074 203.806 157.274 203 157.475 202.195C157.475 185.278 155.668 168.16 152.253 151.042C153.86 151.042 154.864 150.639 154.864 150.236C154.864 149.834 154.061 149.229 152.253 148.424C152.253 147.215 152.655 146.209 152.855 145C151.048 142.181 149.24 139.361 147.432 136.542C148.838 136.542 149.642 136.139 149.642 135.938C149.642 135.535 148.637 134.931 146.83 134.327C146.83 133.118 147.231 131.91 147.231 130.702C144.821 127.278 142.411 124.056 139.599 120.834C141.206 120.632 142.21 120.229 142.21 119.625C142.21 119.021 141.005 118.417 138.996 117.813C138.996 117.209 138.996 116.604 138.996 116C137.389 116 135.782 115.799 134.175 115.597C132.769 111.771 131.162 108.146 129.556 104.521C130.962 104.521 131.765 104.118 131.765 103.716C131.765 103.313 130.56 102.91 128.551 102.507C128.551 102.306 127.949 102.104 126.944 101.903C127.145 101.903 127.346 101.903 127.346 101.702C127.346 101.5 126.342 101.097 124.534 101.097C123.731 97.6738 122.927 94.2502 121.923 90.6252V95.4586H121.722V90.4238C120.718 94.0488 119.914 97.4724 119.111 101.097C117.504 101.097 116.299 101.5 116.299 101.702C116.299 101.702 116.299 101.702 116.7 101.903C115.696 101.903 115.094 102.306 115.094 102.507C113.085 102.91 111.88 103.313 111.88 103.716C111.88 104.118 112.683 104.32 114.089 104.521C112.482 108.146 110.875 111.972 109.469 115.597C107.863 115.597 106.256 115.799 104.649 116C104.649 116.604 104.649 117.209 104.649 117.813C102.64 118.417 101.435 119.021 101.435 119.625C101.435 120.028 102.439 120.431 104.046 120.834C101.435 124.056 98.8238 127.479 96.4135 130.702C96.4135 131.91 96.8152 133.118 96.8152 134.327C95.0075 134.931 94.0032 135.535 94.0032 135.938C94.0032 136.34 94.8066 136.542 96.2126 136.542C94.4049 139.361 92.5971 142.181 90.7894 145C90.7894 146.209 91.1911 147.215 91.392 148.424C89.5842 149.229 88.5799 149.834 88.7808 150.236C88.7808 150.639 89.7851 150.84 91.392 151.042C87.9773 168.16 86.1696 185.278 86.1696 202.195C86.3704 203 86.5713 203.806 86.7722 204.611C85.7678 205.417 85.1653 206.222 85.3661 206.827C85.3661 207.229 85.9687 207.632 86.7722 207.632C86.3704 208.438 85.7678 209.445 85.3661 210.25C85.7678 211.66 86.1696 213.07 86.7722 214.681C86.5713 215.889 86.1696 217.299 85.9687 218.507C93.8023 215.889 101.636 214.681 109.67 213.875V179.438C109.67 172.993 114.893 167.757 121.32 167.757C127.748 167.757 132.97 172.993 132.97 179.438V213.875C141.005 214.681 149.039 216.091 156.672 218.507C156.471 217.299 156.27 215.889 155.868 214.681C156.27 213.271 156.672 211.861 157.274 210.25C156.873 209.445 156.27 208.438 155.868 207.632H156.873Z" fill="#470601"/>
<path fill-rule="evenodd" clip-rule="evenodd" d="M80.1433 119.424C76.3269 119.424 76.9295 117.007 74.1175 117.007C71.1045 117.007 71.7071 116.604 68.8951 115.195C67.2882 114.389 66.4847 113.986 66.083 113.986V125.264C66.083 125.264 68.8951 125.868 70.502 124.459C72.7114 122.445 73.9166 125.063 75.9252 123.452C77.733 121.84 78.7373 121.035 81.3485 121.841C83.9597 122.646 86.37 119.827 86.37 119.827C83.5579 120.632 83.9597 119.625 80.1433 119.424Z" fill="#FF0700"/>
<path d="M66.0831 114.188H65.6814V138.556H66.0831V114.188Z" fill="#470601"/>
<path fill-rule="evenodd" clip-rule="evenodd" d="M88.1779 210.855C88.1779 210.855 88.9814 210.452 89.1823 210.251C89.1823 209.848 88.9814 209.445 88.1779 208.841C88.1779 208.438 88.3788 207.834 88.5797 207.431C88.5797 196.556 87.3745 185.48 85.165 174.403C86.1693 174.403 86.7719 174.202 86.7719 174.001C86.7719 173.799 86.1693 173.195 85.165 172.792C85.165 171.987 85.3659 171.383 85.5668 170.577C84.3616 168.765 83.3573 166.952 82.1521 165.14C83.1564 165.14 83.5581 164.938 83.5581 164.737C83.5581 164.535 82.9556 164.133 81.7504 163.73C81.7504 162.924 81.7504 162.119 81.9512 161.313C80.3444 159.098 78.7375 157.084 77.1306 154.869C78.1349 154.869 78.7375 154.466 78.7375 154.063C78.7375 153.66 77.934 153.258 76.7289 152.855C76.7289 152.452 76.7289 152.049 76.7289 151.646C75.7246 151.646 74.7202 151.646 73.7159 151.445C72.7116 149.028 71.7073 146.612 70.703 144.195C71.5065 144.195 72.1091 143.994 72.1091 143.792C72.1091 143.591 71.3056 143.188 70.1004 142.987C70.1004 142.987 69.6987 142.785 69.0961 142.584H69.297C69.297 142.584 68.4935 142.181 67.4892 142.181C66.8867 139.966 66.4849 137.751 65.8824 135.535V138.556V135.334C65.2798 137.549 64.6772 139.966 64.0746 142.181C63.0703 142.181 62.2669 142.383 62.2669 142.584C62.2669 142.584 62.2669 142.584 62.4677 142.584C61.8651 142.584 61.4634 142.785 61.4634 142.987C60.2582 142.987 59.4548 143.39 59.4548 143.792C59.4548 143.994 60.0574 144.195 60.8608 144.195C59.8565 146.612 58.8522 149.028 57.8479 151.445C56.8436 151.445 55.8393 151.445 54.835 151.646C54.835 152.049 54.835 152.452 54.835 152.855C53.429 153.258 52.8264 153.66 52.8264 154.063C52.8264 154.466 53.429 154.667 54.4333 154.869C52.6255 156.883 51.0186 159.098 49.6126 161.313C49.6126 162.119 49.6126 162.924 49.8135 163.73C48.6083 164.133 48.0057 164.535 48.0057 164.737C48.0057 164.938 48.6083 165.14 49.4117 165.14C48.2066 166.952 47.0014 168.765 45.9971 170.577C45.9971 171.383 46.198 171.987 46.3988 172.792C45.1936 173.195 44.5911 173.598 44.7919 174.001C44.7919 174.202 45.3945 174.403 46.3988 174.403C44.1893 185.48 42.9842 196.556 42.9842 207.431C42.9842 207.834 43.185 208.438 43.3859 208.841C42.7833 209.445 42.3816 209.848 42.3816 210.251C42.3816 210.452 42.7833 210.653 43.3859 210.855C42.9842 211.459 42.7833 211.862 42.3816 212.466C42.5825 213.473 42.9842 214.278 43.185 215.285C43.185 216.091 42.7833 216.896 42.7833 217.702C47.8048 216.091 52.8264 215.285 58.0488 214.681V192.528C58.0488 188.299 61.4634 185.077 65.4806 185.077C69.4979 185.077 72.9125 188.501 72.9125 192.528V214.681C78.1349 215.285 83.1564 216.091 88.1779 217.702C88.1779 216.896 87.7762 216.091 87.7762 215.285C87.9771 214.278 88.3788 213.473 88.5797 212.466C88.3788 211.862 87.9771 211.459 87.5754 210.855H88.1779Z" fill="#470601"/>
<path fill-rule="evenodd" clip-rule="evenodd" d="M193.228 119.424C189.412 119.424 190.014 117.007 187.202 117.007C184.189 117.007 184.792 116.604 181.98 115.195C180.373 114.389 179.57 113.986 179.168 113.986V125.264C179.168 125.264 181.98 125.868 183.587 124.459C185.796 122.445 187.002 125.063 189.01 123.452C190.818 121.84 191.822 121.035 194.433 121.841C197.045 122.646 199.455 119.827 199.455 119.827C196.643 120.632 197.045 119.625 193.228 119.424Z" fill="#FF0700"/>
<path d="M179.168 114.188H178.766V138.556H179.168V114.188Z" fill="#470601"/>
<path fill-rule="evenodd" clip-rule="evenodd" d="M201.062 210.855C201.062 210.855 201.865 210.452 202.066 210.251C202.066 209.848 201.865 209.445 201.062 208.841C201.062 208.438 201.263 207.834 201.464 207.431C201.464 196.556 200.259 185.48 198.049 174.403C199.053 174.403 199.656 174.202 199.656 174.001C199.656 173.799 199.053 173.195 198.049 172.792C198.049 171.987 198.25 171.383 198.451 170.577C197.246 168.765 196.241 166.952 195.036 165.14C196.04 165.14 196.442 164.938 196.442 164.737C196.442 164.535 195.84 164.133 194.634 163.73C194.634 162.924 194.634 162.119 194.835 161.313C193.228 159.098 191.622 157.084 190.015 154.869C191.019 154.869 191.621 154.466 191.621 154.063C191.621 153.66 190.818 153.258 189.613 152.855C189.613 152.452 189.613 152.049 189.613 151.646C188.609 151.646 187.604 151.646 186.6 151.445C185.596 149.028 184.591 146.612 183.587 144.195C184.391 144.195 184.993 143.994 184.993 143.792C184.993 143.591 184.19 143.188 182.984 142.987C182.984 142.987 182.583 142.785 181.98 142.584H182.181C182.181 142.584 181.378 142.181 180.373 142.181C179.771 139.966 179.369 137.751 178.766 135.535V138.556V135.334C178.164 137.549 177.561 139.966 176.959 142.181C175.954 142.181 175.151 142.383 175.151 142.584C175.151 142.584 175.151 142.584 175.352 142.584C174.749 142.584 174.347 142.785 174.347 142.987C173.142 142.987 172.339 143.39 172.339 143.792C172.339 143.994 172.941 144.195 173.745 144.195C172.741 146.612 171.736 149.028 170.732 151.445C169.728 151.445 168.723 151.445 167.719 151.646C167.719 152.049 167.719 152.452 167.719 152.855C166.313 153.258 165.71 153.66 165.71 154.063C165.71 154.466 166.313 154.667 167.317 154.869C165.51 156.883 163.903 159.098 162.497 161.313C162.497 162.119 162.497 162.924 162.697 163.73C161.492 164.133 160.89 164.535 160.89 164.737C160.89 164.938 161.492 165.14 162.296 165.14C161.091 166.952 159.885 168.765 158.881 170.577C158.881 171.383 159.082 171.987 159.283 172.792C158.078 173.195 157.475 173.598 157.676 174.001C157.676 174.202 158.279 174.403 159.283 174.403C157.073 185.48 155.868 196.556 155.868 207.431C155.868 207.834 156.069 208.438 156.27 208.841C155.667 209.445 155.266 209.848 155.266 210.251C155.266 210.452 155.667 210.653 156.27 210.855C155.868 211.459 155.667 211.862 155.266 212.466C155.466 213.473 155.868 214.278 156.069 215.285C156.069 216.091 155.667 216.896 155.667 217.702C160.689 216.091 165.71 215.285 170.933 214.681V192.528C170.933 188.299 174.347 185.077 178.365 185.077C182.382 185.077 185.797 188.501 185.797 192.528V214.681C191.019 215.285 196.04 216.091 201.062 217.702C201.062 216.896 200.66 216.091 200.66 215.285C200.861 214.278 201.263 213.473 201.464 212.466C201.263 211.862 200.861 211.459 200.459 210.855H201.062Z" fill="#470601"/>
<path fill-rule="evenodd" clip-rule="evenodd" d="M583.703 213.07H570.446L571.048 211.862V210.251L571.852 209.445L571.45 209.042C571.45 208.841 571.651 208.639 572.053 208.438V207.431L576.472 189.105C576.472 189.105 575.869 188.903 575.869 188.702C575.869 188.702 576.07 188.299 576.472 188.299V186.889L577.878 184.07C577.878 184.07 577.476 183.869 577.476 183.667C577.476 183.667 577.677 183.466 578.079 183.264V181.855L579.886 178.431C579.886 178.431 579.284 178.028 579.284 177.827C579.284 177.626 579.485 177.424 579.886 177.223V176.619H580.891L581.895 172.591C581.895 172.591 581.493 172.591 581.493 172.188C581.493 172.188 581.694 171.987 582.096 171.785C582.096 171.785 582.096 171.785 582.297 171.584C582.297 171.584 582.497 171.584 582.899 171.382L583.502 167.153L584.104 171.382C584.104 171.382 584.707 171.382 584.707 171.584C584.707 171.584 584.908 171.584 584.908 171.785C585.31 171.785 585.51 171.987 585.51 172.188C585.51 172.188 585.51 172.389 585.109 172.591L586.113 176.619H587.117V177.223C587.117 177.223 587.72 177.626 587.72 177.827C587.72 177.827 587.72 178.23 587.117 178.431L588.925 181.855V183.264C588.925 183.264 589.528 183.466 589.528 183.667C589.528 183.667 589.528 183.869 589.126 184.07L590.532 186.889V188.299L591.135 188.702C591.135 188.702 590.934 189.105 590.532 189.105L594.951 207.431V208.438C594.951 208.438 595.553 208.841 595.553 209.042C595.553 209.042 595.553 209.445 595.152 209.445L595.955 210.251V211.862L596.558 213.07H583.301H583.703Z" fill="#470601"/>
<path fill-rule="evenodd" clip-rule="evenodd" d="M591.938 159.299C589.728 159.299 590.13 157.89 588.322 157.89C586.515 157.89 586.916 157.688 585.31 156.883C584.305 156.48 583.903 156.279 583.703 156.077V162.522C583.703 162.522 585.31 162.723 586.314 161.917C587.519 160.709 588.322 162.32 589.528 161.313C590.532 160.306 591.135 159.904 592.741 160.306C594.348 160.709 595.754 159.098 595.754 159.098C594.147 159.501 594.348 159.098 592.139 159.098L591.938 159.299Z" fill="#FF0700"/>
<path fill-rule="evenodd" clip-rule="evenodd" d="M757.448 213.07H744.191L744.794 211.862V210.251L745.597 209.445L745.195 209.042C745.195 208.841 745.396 208.639 745.798 208.438V207.431L750.217 189.105C750.217 189.105 749.614 188.903 749.614 188.702C749.614 188.702 749.815 188.299 750.217 188.299V186.889L751.623 184.07C751.623 184.07 751.221 183.869 751.221 183.667C751.221 183.667 751.422 183.466 751.824 183.264V181.855L753.631 178.431C753.631 178.431 753.029 178.028 753.029 177.827C753.029 177.626 753.23 177.424 753.631 177.223V176.619H754.636L755.64 172.591C755.64 172.591 755.238 172.591 755.238 172.188C755.238 172.188 755.439 171.987 755.841 171.785C755.841 171.785 755.841 171.785 756.042 171.584C756.042 171.584 756.243 171.584 756.644 171.382L757.247 167.153L757.849 171.382C757.849 171.382 758.452 171.382 758.452 171.584C758.452 171.584 758.653 171.584 758.653 171.785C759.055 171.785 759.256 171.987 759.256 172.188C759.256 172.188 759.255 172.389 758.854 172.591L759.858 176.619H760.862V177.223C760.862 177.223 761.465 177.626 761.465 177.827C761.465 177.827 761.465 178.23 760.862 178.431L762.67 181.855V183.264C762.67 183.264 763.273 183.466 763.273 183.667C763.273 183.667 763.273 183.869 762.871 184.07L764.277 186.889V188.299L764.88 188.702C764.88 188.702 764.679 189.105 764.277 189.105L768.696 207.431V208.438C768.696 208.438 769.299 208.841 769.299 209.042C769.299 209.042 769.299 209.445 768.897 209.445L769.7 210.251V211.862L770.303 213.07H757.046H757.448Z" fill="#470601"/>
<path fill-rule="evenodd" clip-rule="evenodd" d="M765.884 159.299C763.674 159.299 764.076 157.89 762.268 157.89C760.46 157.89 760.862 157.688 759.255 156.883C758.251 156.48 757.849 156.279 757.648 156.077V162.522C757.648 162.522 759.255 162.723 760.26 161.917C761.465 160.709 762.268 162.32 763.473 161.313C764.478 160.306 765.08 159.904 766.687 160.306C768.294 160.709 769.7 159.098 769.7 159.098C768.093 159.501 768.294 159.098 766.085 159.098L765.884 159.299Z" fill="#FF0700"/>
<path d="M773.316 211.861H568.036C566.815 211.861 565.826 212.853 565.826 214.077V216.493C565.826 217.717 566.815 218.709 568.036 218.709H773.316C774.536 218.709 775.525 217.717 775.525 216.493V214.077C775.525 212.853 774.536 211.861 773.316 211.861Z" fill="#470601"/>
<path d="M783.158 217.903H558.193C556.973 217.903 555.984 218.895 555.984 220.119V222.535C555.984 223.759 556.973 224.751 558.193 224.751H783.158C784.378 224.751 785.367 223.759 785.367 222.535V220.119C785.367 218.895 784.378 217.903 783.158 217.903Z" fill="#470601"/>
<path d="M790.59 222.736H550.36C549.14 222.736 548.15 223.728 548.15 224.952V227.368C548.15 228.592 549.14 229.584 550.36 229.584H790.59C791.81 229.584 792.799 228.592 792.799 227.368V224.952C792.799 223.728 791.81 222.736 790.59 222.736Z" fill="#470601"/>
<path fill-rule="evenodd" clip-rule="evenodd" d="M692.971 66.056C686.945 66.056 688.15 62.2296 683.531 62.431C678.911 62.431 679.714 61.8268 675.295 59.6115C672.684 58.4032 671.479 57.799 670.876 57.5977V74.9171C672.282 75.3199 675.295 75.7227 677.706 73.5074C681.12 70.4865 683.129 74.5143 686.142 72.0977C689.155 69.681 690.561 68.2713 694.779 69.4796C698.997 70.6879 702.612 66.2574 702.612 66.2574C698.394 67.4657 698.997 65.8546 692.971 65.8546V66.056Z" fill="#FF0700"/>
<path d="M670.877 57.5977H670.274V95.4588H670.877V57.5977Z" fill="#470601"/>
<path fill-rule="evenodd" clip-rule="evenodd" d="M705.224 207.632C705.224 207.632 706.429 207.229 706.63 206.827C706.63 206.222 706.228 205.618 705.224 204.611C705.425 203.806 705.626 203 705.826 202.195C705.826 185.278 704.019 168.16 700.604 151.042C702.211 151.042 703.215 150.639 703.215 150.236C703.215 149.834 702.412 149.229 700.604 148.424C700.604 147.215 701.006 146.209 701.207 145C699.399 142.181 697.591 139.361 695.783 136.542C697.189 136.542 697.993 136.139 697.993 135.938C697.993 135.535 696.988 134.931 695.181 134.327C695.181 133.118 695.582 131.91 695.582 130.702C693.172 127.278 690.762 124.056 687.95 120.834C689.557 120.632 690.561 120.229 690.561 119.625C690.561 119.021 689.356 118.417 687.347 117.813C687.347 117.209 687.347 116.604 687.347 116C685.74 116 684.133 115.799 682.526 115.597C681.12 111.771 679.514 108.146 677.907 104.521C679.313 104.521 680.116 104.118 680.116 103.716C680.116 103.313 678.911 102.91 676.902 102.507C676.902 102.306 676.3 102.104 675.295 101.903C675.496 101.903 675.697 101.903 675.697 101.702C675.697 101.5 674.693 101.097 672.885 101.097C672.082 97.6738 671.278 94.2502 670.274 90.6252V95.4586H670.073V90.4238C669.069 94.0488 668.265 97.4724 667.462 101.097C665.855 101.097 664.65 101.5 664.65 101.702C664.65 101.702 664.65 101.702 665.052 101.903C664.047 101.903 663.445 102.306 663.445 102.507C661.436 102.91 660.231 103.313 660.231 103.716C660.231 104.118 661.034 104.32 662.44 104.521C660.833 108.146 659.227 111.972 657.821 115.597C656.214 115.597 654.607 115.799 653 116C653 116.604 653 117.209 653 117.813C650.991 118.417 649.786 119.021 649.786 119.625C649.786 120.028 650.79 120.431 652.397 120.834C649.786 124.056 647.175 127.479 644.765 130.702C644.765 131.91 645.166 133.118 645.166 134.327C643.359 134.931 642.354 135.535 642.354 135.938C642.354 136.34 643.158 136.542 644.564 136.542C642.756 139.361 640.948 142.181 639.14 145C639.14 146.209 639.542 147.215 639.743 148.424C637.935 149.229 636.931 149.834 637.132 150.236C637.132 150.639 638.136 150.84 639.743 151.042C636.328 168.16 634.521 185.278 634.521 202.195C634.722 203 634.922 203.806 635.123 204.611C634.119 205.417 633.516 206.222 633.717 206.827C633.717 207.229 634.32 207.632 635.123 207.632C634.722 208.438 634.119 209.445 633.717 210.25C634.119 211.66 634.521 213.07 635.123 214.681C634.922 215.889 634.521 217.299 634.32 218.507C642.153 215.889 649.987 214.681 658.021 213.875V179.438C658.021 172.993 663.244 167.757 669.671 167.757C676.099 167.757 681.321 172.993 681.321 179.438V213.875C689.356 214.681 697.39 216.091 705.023 218.507C704.822 217.299 704.621 215.889 704.22 214.681C704.621 213.271 705.023 211.861 705.626 210.25C705.224 209.445 704.621 208.438 704.22 207.632H705.224Z" fill="#470601"/>
<path fill-rule="evenodd" clip-rule="evenodd" d="M628.495 119.424C624.679 119.424 625.281 117.007 622.469 117.007C619.456 117.007 620.059 116.604 617.247 115.195C615.64 114.389 614.836 113.986 614.435 113.986V125.264C614.435 125.264 617.247 125.868 618.854 124.459C621.063 122.445 622.268 125.063 624.277 123.452C626.085 121.84 627.089 121.035 629.7 121.841C632.311 122.646 634.722 119.827 634.722 119.827C631.909 120.632 632.311 119.625 628.495 119.424Z" fill="#FF0700"/>
<path d="M614.234 114.188H613.832V138.556H614.234V114.188Z" fill="#470601"/>
<path fill-rule="evenodd" clip-rule="evenodd" d="M636.329 210.855C636.329 210.855 637.132 210.452 637.333 210.251C637.333 209.848 637.132 209.445 636.329 208.841C636.329 208.438 636.529 207.834 636.73 207.431C636.73 196.556 635.525 185.48 633.316 174.403C634.32 174.403 634.923 174.202 634.923 174.001C634.923 173.799 634.32 173.195 633.316 172.792C633.316 171.987 633.517 171.383 633.717 170.577C632.512 168.765 631.508 166.952 630.303 165.14C631.307 165.14 631.709 164.938 631.709 164.737C631.709 164.535 631.106 164.133 629.901 163.73C629.901 162.924 629.901 162.119 630.102 161.313C628.495 159.098 626.888 157.084 625.281 154.869C626.286 154.869 626.888 154.466 626.888 154.063C626.888 153.66 626.085 153.258 624.88 152.855C624.88 152.452 624.88 152.049 624.88 151.646C623.875 151.646 622.871 151.646 621.867 151.445C620.862 149.028 619.858 146.612 618.854 144.195C619.657 144.195 620.26 143.994 620.26 143.792C620.26 143.591 619.456 143.188 618.251 142.987C618.251 142.987 617.849 142.785 617.247 142.584H617.448C617.448 142.584 616.644 142.181 615.64 142.181C615.037 139.966 614.636 137.751 614.033 135.535V138.556V135.334C613.43 137.549 612.828 139.966 612.225 142.181C611.221 142.181 610.417 142.383 610.417 142.584C610.417 142.584 610.417 142.584 610.618 142.584C610.016 142.584 609.614 142.785 609.614 142.987C608.409 142.987 607.605 143.39 607.605 143.792C607.605 143.994 608.208 144.195 609.011 144.195C608.007 146.612 607.003 149.028 605.999 151.445C604.994 151.445 603.99 151.445 602.986 151.646C602.986 152.049 602.986 152.452 602.986 152.855C601.58 153.258 600.977 153.66 600.977 154.063C600.977 154.466 601.58 154.667 602.584 154.869C600.776 156.883 599.169 159.098 597.763 161.313C597.763 162.119 597.763 162.924 597.964 163.73C596.759 164.133 596.156 164.535 596.156 164.737C596.156 164.938 596.759 165.14 597.562 165.14C596.357 166.952 595.152 168.765 594.148 170.577C594.148 171.383 594.349 171.987 594.549 172.792C593.344 173.195 592.742 173.598 592.943 174.001C592.943 174.202 593.545 174.403 594.549 174.403C592.34 185.48 591.135 196.556 591.135 207.431C591.135 207.834 591.336 208.438 591.537 208.841C590.934 209.445 590.532 209.848 590.532 210.251C590.532 210.452 590.934 210.653 591.537 210.855C591.135 211.459 590.934 211.862 590.532 212.466C590.733 213.473 591.135 214.278 591.336 215.285C591.336 216.091 590.934 216.896 590.934 217.702C595.955 216.091 600.977 215.285 606.199 214.681V192.528C606.199 188.299 609.614 185.077 613.631 185.077C617.648 185.077 621.063 188.501 621.063 192.528V214.681C626.286 215.285 631.307 216.091 636.329 217.702C636.329 216.896 635.927 216.091 635.927 215.285C636.128 214.278 636.529 213.473 636.73 212.466C636.529 211.862 636.128 211.459 635.726 210.855H636.329Z" fill="#470601"/>
<path fill-rule="evenodd" clip-rule="evenodd" d="M741.58 119.424C737.763 119.424 738.366 117.007 735.554 117.007C732.541 117.007 733.144 116.604 730.332 115.195C728.725 114.389 727.921 113.986 727.52 113.986V125.264C727.52 125.264 730.332 125.868 731.938 124.459C734.148 122.445 735.353 125.063 737.362 123.452C739.169 121.84 740.174 121.035 742.785 121.841C745.396 122.646 747.806 119.827 747.806 119.827C744.994 120.632 745.396 119.625 741.58 119.424Z" fill="#FF0700"/>
<path d="M727.319 114.188H726.917V138.556H727.319V114.188Z" fill="#470601"/>
<path fill-rule="evenodd" clip-rule="evenodd" d="M749.414 210.855C749.414 210.855 750.217 210.452 750.418 210.251C750.418 209.848 750.217 209.445 749.414 208.841C749.414 208.438 749.614 207.834 749.815 207.431C749.815 196.556 748.61 185.48 746.401 174.403C747.405 174.403 748.008 174.202 748.008 174.001C748.008 173.799 747.405 173.195 746.401 172.792C746.401 171.987 746.602 171.383 746.802 170.577C745.597 168.765 744.593 166.952 743.388 165.14C744.392 165.14 744.794 164.938 744.794 164.737C744.794 164.535 744.191 164.133 742.986 163.73C742.986 162.924 742.986 162.119 743.187 161.313C741.58 159.098 739.973 157.084 738.366 154.869C739.37 154.869 739.973 154.466 739.973 154.063C739.973 153.66 739.17 153.258 737.965 152.855C737.965 152.452 737.965 152.049 737.965 151.646C736.96 151.646 735.956 151.646 734.952 151.445C733.947 149.028 732.943 146.612 731.939 144.195C732.742 144.195 733.345 143.994 733.345 143.792C733.345 143.591 732.541 143.188 731.336 142.987C731.336 142.987 730.934 142.785 730.332 142.584H730.533C730.533 142.584 729.729 142.181 728.725 142.181C728.122 139.966 727.721 137.751 727.118 135.535V138.556V135.334C726.515 137.549 725.913 139.966 725.31 142.181C724.306 142.181 723.502 142.383 723.502 142.584C723.502 142.584 723.502 142.584 723.703 142.584C723.101 142.584 722.699 142.785 722.699 142.987C721.494 142.987 720.69 143.39 720.69 143.792C720.69 143.994 721.293 144.195 722.096 144.195C721.092 146.612 720.088 149.028 719.084 151.445C718.079 151.445 717.075 151.445 716.071 151.646C716.071 152.049 716.071 152.452 716.071 152.855C714.665 153.258 714.062 153.66 714.062 154.063C714.062 154.466 714.665 154.667 715.669 154.869C714.062 156.883 712.254 159.098 710.848 161.313C710.848 162.119 710.848 162.924 711.049 163.73C709.844 164.133 709.241 164.535 709.241 164.737C709.241 164.938 709.844 165.14 710.647 165.14C709.442 166.952 708.237 168.765 707.233 170.577C707.233 171.383 707.434 171.987 707.634 172.792C706.429 173.195 705.827 173.598 706.028 174.001C706.028 174.202 706.63 174.403 707.634 174.403C705.425 185.48 704.22 196.556 704.22 207.431C704.22 207.834 704.421 208.438 704.622 208.841C704.019 209.445 703.617 209.848 703.617 210.251C703.617 210.452 704.019 210.653 704.622 210.855C704.22 211.459 704.019 211.862 703.617 212.466C703.818 213.473 704.22 214.278 704.421 215.285C704.421 216.091 704.019 216.896 704.019 217.702C709.04 216.091 714.062 215.285 719.284 214.681V192.528C719.284 188.299 722.699 185.077 726.716 185.077C730.733 185.077 734.148 188.501 734.148 192.528V214.681C739.37 215.285 744.392 216.091 749.414 217.702C749.414 216.896 749.012 216.091 749.012 215.285C749.213 214.278 749.614 213.473 749.815 212.466C749.614 211.862 749.213 211.459 748.811 210.855H749.414Z" fill="#470601"/>
<path fill-rule="evenodd" clip-rule="evenodd" d="M329.211 210.652H296.672L298.279 207.43V203.201L300.086 201.388C300.086 201.388 299.082 200.583 299.082 200.18C299.082 199.576 299.685 199.173 300.689 198.569V196.353L311.736 151.444C311.736 151.444 310.33 150.638 310.33 150.235C310.33 149.833 310.933 149.43 311.937 149.027V145.805L315.553 138.958C315.553 138.958 314.348 138.353 314.348 137.951C314.348 137.548 314.95 137.145 315.955 136.944V133.52L320.373 125.263C320.373 125.263 319.168 124.458 319.168 124.055C319.168 123.451 319.771 123.048 320.775 122.645V121.034H323.186L325.596 110.965C325.596 110.965 324.592 110.562 324.592 110.159C324.592 109.756 325.194 109.555 326.198 109.152C326.198 108.951 326.399 108.749 327.002 108.548C327.002 108.548 327.002 108.548 327.002 108.346C327.002 108.145 327.604 107.944 328.207 107.742L329.412 97.6729L330.617 107.742C330.617 107.742 331.823 108.145 331.823 108.346C331.823 108.346 331.823 108.346 331.823 108.548C332.224 108.548 332.626 108.951 332.626 109.152C333.63 109.353 334.233 109.756 334.233 110.159C334.233 110.36 333.831 110.763 333.229 110.965L335.639 121.034H338.049V122.645C339.054 123.048 339.656 123.451 339.656 124.055C339.656 124.458 339.254 124.86 338.451 125.263L342.87 133.52V136.944C343.874 137.346 344.477 137.548 344.477 137.951C344.477 138.353 344.075 138.555 343.272 138.958L346.887 145.805V149.027C347.891 149.43 348.494 149.833 348.494 150.235C348.494 150.638 348.092 151.041 347.088 151.444L358.135 196.353V198.569C359.14 198.971 359.742 199.576 359.742 200.18C359.742 200.583 359.341 200.985 358.738 201.388L360.546 203.201V207.43L362.153 210.652H329.613H329.211Z" fill="#470601"/>
<path fill-rule="evenodd" clip-rule="evenodd" d="M349.699 78.9438C344.276 78.9438 345.28 75.5202 341.062 75.7216C336.844 75.7216 337.447 75.1174 333.429 73.1035C331.019 71.8952 330.015 71.4924 329.412 71.291V87.2007C330.818 87.6035 333.429 88.0063 335.639 85.9924C338.853 83.173 340.66 86.798 343.272 84.5827C345.883 82.3674 347.289 81.1591 351.105 82.166C354.921 83.173 358.336 79.3466 358.336 79.3466C354.319 80.3535 355.122 78.9438 349.498 78.9438H349.699Z" fill="#FF0700"/>
<path d="M329.412 71.0898H329.211V105.93H329.412V71.0898Z" fill="#470601"/>
<path fill-rule="evenodd" clip-rule="evenodd" d="M463.587 210.652H431.048L432.655 207.43V203.201L434.462 201.388C434.462 201.388 433.458 200.583 433.458 200.18C433.458 199.576 434.061 199.173 435.065 198.569V196.353L446.112 151.444C446.112 151.444 444.706 150.638 444.706 150.235C444.706 149.833 445.309 149.43 446.313 149.027V145.805L449.929 138.958C449.929 138.958 448.724 138.353 448.724 137.951C448.724 137.548 449.326 137.145 450.331 136.944V133.52L454.749 125.263C454.749 125.263 453.544 124.458 453.544 124.055C453.544 123.451 454.147 123.048 455.151 122.645V121.034H457.562L459.972 110.965C459.972 110.965 458.968 110.562 458.968 110.159C458.968 109.756 459.57 109.555 460.574 109.152C460.574 108.951 460.775 108.749 461.378 108.548C461.378 108.548 461.378 108.548 461.378 108.346C461.378 108.145 461.981 107.944 462.583 107.742L463.788 97.6729L464.993 107.742C464.993 107.742 466.199 108.145 466.199 108.346C466.199 108.346 466.199 108.346 466.199 108.548C466.6 108.548 467.002 108.951 467.002 109.152C468.006 109.353 468.609 109.756 468.609 110.159C468.609 110.36 468.207 110.763 467.605 110.965L470.015 121.034H472.425V122.645C473.43 123.048 474.032 123.451 474.032 124.055C474.032 124.458 473.63 124.86 472.827 125.263L477.246 133.52V136.944C478.25 137.346 478.853 137.548 478.853 137.951C478.853 138.353 478.451 138.555 477.648 138.958L481.263 145.805V149.027C482.267 149.43 482.87 149.833 482.87 150.235C482.87 150.638 482.468 151.041 481.464 151.444L492.511 196.353V198.569C493.516 198.971 494.118 199.576 494.118 200.18C494.118 200.583 493.717 200.985 493.114 201.388L494.922 203.201V207.43L496.529 210.652H463.989H463.587Z" fill="#470601"/>
<path fill-rule="evenodd" clip-rule="evenodd" d="M484.075 78.9438C478.652 78.9438 479.656 75.5202 475.438 75.7216C471.22 75.7216 471.823 75.1174 467.805 73.1035C465.395 71.8952 464.391 71.4924 463.788 71.291V87.2007C465.194 87.6035 467.805 88.0063 470.015 85.9924C473.229 83.173 475.036 86.798 477.648 84.5827C480.259 82.3674 481.665 81.1591 485.481 82.166C489.297 83.173 492.712 79.3466 492.712 79.3466C488.695 80.3535 489.498 78.9438 483.874 78.9438H484.075Z" fill="#FF0700"/>
<path d="M463.788 71.0898H463.587V105.93H463.788V71.0898Z" fill="#470601"/>
<path d="M567.433 208.438H225.567C223.903 208.438 222.554 209.79 222.554 211.458V214.479C222.554 216.148 223.903 217.5 225.567 217.5H567.433C569.097 217.5 570.446 216.148 570.446 214.479V211.458C570.446 209.79 569.097 208.438 567.433 208.438Z" fill="#470601"/>
<path d="M580.489 216.694H212.31C210.646 216.694 209.297 218.047 209.297 219.715V222.736C209.297 224.404 210.646 225.757 212.31 225.757H580.489C582.153 225.757 583.502 224.404 583.502 222.736V219.715C583.502 218.047 582.153 216.694 580.489 216.694Z" fill="#470601"/>
<path d="M590.733 222.938H202.066C200.402 222.938 199.053 224.29 199.053 225.958V228.979C199.053 230.648 200.402 232 202.066 232H590.733C592.397 232 593.745 230.648 593.745 228.979V225.958C593.745 224.29 592.397 222.938 590.733 222.938Z" fill="#470601"/>
<path fill-rule="evenodd" clip-rule="evenodd" d="M426.227 11.0764C418.192 11.0764 419.799 6.04167 413.573 6.24306C407.346 6.44444 408.35 5.4375 402.525 2.61806C399.111 1.00694 397.504 0.402778 396.7 0V23.1597C398.709 23.7639 402.525 24.1667 405.94 21.3472C410.56 17.3194 413.171 22.5556 417.188 19.3333C421.004 16.1111 423.013 14.2986 428.637 15.9097C434.06 17.5208 439.082 11.6806 439.082 11.6806C433.257 13.2917 434.261 11.2778 426.227 11.0764Z" fill="#FF0700"/>
<path d="M396.7 0H396.098V50.5486H396.7V0Z" fill="#470601"/>
<path fill-rule="evenodd" clip-rule="evenodd" d="M442.698 200.18C443.702 199.979 444.505 199.576 444.505 198.972C444.706 198.166 444.104 197.159 442.698 196.153C442.899 195.146 443.3 194.139 443.501 193.132C443.501 170.576 441.091 147.618 436.471 124.861C438.68 124.861 439.886 124.458 439.886 123.854C439.886 123.25 438.68 122.444 436.27 121.437C436.471 119.826 436.873 118.416 437.074 116.805C434.864 112.979 432.454 109.354 429.843 105.528C431.65 105.528 432.855 105.125 432.855 104.521C432.855 103.916 431.65 103.312 429.24 102.507C429.441 100.896 429.642 99.2845 429.843 97.6734C426.629 93.2428 423.214 88.8123 419.799 84.3817C422.009 83.9789 423.214 83.5762 423.214 82.972C423.214 82.1664 421.808 81.3609 418.996 80.5553C418.996 79.7498 418.996 78.9442 418.996 78.1387C416.787 78.1387 414.778 77.7359 412.568 77.7359C410.56 72.7012 408.551 67.8678 406.342 62.8331C408.149 62.6317 409.355 62.2289 409.355 61.8262C409.355 61.222 407.748 60.8192 405.137 60.4164C405.137 60.4164 405.337 60.4164 405.337 60.2151C405.337 60.0137 404.534 59.6109 403.329 59.4095C403.53 59.4095 403.731 59.2081 403.731 59.0067C403.731 58.6039 402.325 58.2012 400.115 57.9998C399.111 53.3678 397.906 48.7359 396.7 44.1039V50.5484H396.299V43.7012C395.094 48.5345 393.888 53.1664 392.683 57.9998C390.474 58.2012 389.068 58.6039 389.068 59.0067C389.068 59.0067 389.068 59.2081 389.469 59.4095C388.063 59.6109 387.461 60.0137 387.461 60.2151C387.461 60.2151 387.461 60.2151 387.662 60.4164C385.05 60.8192 383.243 61.4234 383.444 61.8262C383.444 62.2289 384.649 62.6317 386.456 62.8331C384.247 67.8678 382.238 72.7012 380.23 77.7359C378.02 77.7359 376.012 77.9373 373.802 78.1387C373.802 78.9442 373.802 79.7498 373.802 80.5553C370.99 81.3609 369.383 82.1664 369.584 82.972C369.584 83.5762 370.99 84.1803 372.999 84.3817C369.383 88.8123 366.17 93.0414 362.956 97.6734C363.157 99.2845 363.357 100.896 363.558 102.507C361.148 103.312 359.742 103.916 359.943 104.521C359.943 104.923 361.148 105.326 362.956 105.528C360.345 109.153 357.934 112.979 355.725 116.805C355.926 118.416 356.327 119.826 356.528 121.437C354.118 122.444 352.913 123.25 352.913 123.854C352.913 124.458 354.319 124.659 356.327 124.861C351.707 147.618 349.297 170.576 349.297 193.132C349.498 194.139 349.9 195.146 350.101 196.153C348.695 197.361 347.891 198.166 348.293 198.972C348.293 199.576 349.096 199.979 350.101 200.18C349.498 201.389 348.895 202.396 348.293 203.604C348.895 205.618 349.498 207.43 350.101 209.444C349.699 211.055 349.498 212.868 349.096 214.479C359.541 211.055 370.187 209.243 380.832 208.236V162.319C380.832 153.66 387.863 146.812 396.299 146.812C404.735 146.812 411.765 153.861 411.765 162.319V208.236C422.411 209.243 433.056 211.055 443.501 214.479C443.099 212.868 442.899 211.055 442.497 209.444C443.099 207.43 443.702 205.618 444.305 203.604C443.702 202.396 443.099 201.389 442.497 200.18H442.698Z" fill="#470601"/>
<path fill-rule="evenodd" clip-rule="evenodd" d="M524.85 107.945C520.833 107.945 521.436 105.326 518.423 105.528C515.209 105.528 515.812 105.125 512.799 103.715C510.991 102.91 510.187 102.507 509.786 102.306V114.188C510.79 114.389 512.799 114.792 514.606 113.181C517.017 111.167 518.423 113.785 520.431 112.174C522.44 110.563 523.444 109.556 526.256 110.361C529.068 111.167 531.68 108.146 531.68 108.146C528.667 108.951 529.269 107.945 525.051 107.743L524.85 107.945Z" fill="#FF0700"/>
<path d="M509.785 102.104H509.384V128.084H509.785V102.104Z" fill="#470601"/>
<path fill-rule="evenodd" clip-rule="evenodd" d="M533.286 205.215C533.286 205.215 534.09 204.812 534.291 204.611C534.291 204.208 534.09 203.806 533.286 203.201C533.286 202.597 533.487 202.194 533.688 201.59C533.688 189.91 532.483 178.229 530.072 166.347C531.077 166.347 531.88 166.146 531.88 165.743C531.88 165.34 531.278 164.937 530.072 164.535C530.072 163.729 530.273 162.924 530.474 162.118C529.269 160.104 528.064 158.292 526.658 156.278C527.662 156.278 528.265 156.076 528.265 155.875C528.265 155.674 527.662 155.271 526.457 154.868C526.457 154.062 526.658 153.257 526.859 152.451C525.252 150.236 523.444 147.819 521.636 145.604C522.641 145.604 523.444 145.201 523.444 144.799C523.444 144.396 522.641 143.993 521.235 143.59C521.235 143.188 521.235 142.785 521.235 142.382C520.23 142.382 519.025 142.382 517.82 142.181C516.816 139.562 515.811 137.146 514.606 134.528C515.611 134.528 516.213 134.326 516.213 133.924C516.213 133.722 515.41 133.319 514.004 133.118C514.004 133.118 513.602 132.715 512.999 132.715H513.2C513.2 132.715 512.397 132.313 511.392 132.313C510.79 129.896 510.187 127.479 509.585 125.264V128.486V125.062C508.982 127.479 508.38 129.896 507.777 132.514C506.572 132.514 505.969 132.715 505.969 132.917C505.969 132.917 505.969 132.917 506.17 132.917C505.567 132.917 505.166 133.118 505.166 133.319C503.76 133.521 502.956 133.722 502.956 134.125C502.956 134.326 503.559 134.528 504.563 134.729C503.358 137.347 502.354 139.764 501.349 142.382C500.144 142.382 499.14 142.382 498.136 142.583C498.136 142.986 498.136 143.389 498.136 143.792C496.73 144.194 495.926 144.597 495.926 145C495.926 145.403 496.529 145.604 497.734 145.806C495.926 148.021 494.118 150.236 492.511 152.653C492.511 153.458 492.712 154.264 492.913 155.069C491.708 155.472 490.905 155.875 491.105 156.076C491.105 156.278 491.708 156.479 492.712 156.479C491.507 158.292 490.101 160.306 488.896 162.319C488.896 163.125 489.097 163.931 489.298 164.736C488.093 165.139 487.49 165.743 487.49 165.944C487.49 166.146 488.093 166.347 489.298 166.549C486.887 178.229 485.682 190.111 485.682 201.792C485.682 202.396 485.883 202.799 486.084 203.403C485.28 204.007 485.08 204.41 485.08 204.812C485.08 205.014 485.481 205.215 486.084 205.417C485.682 206.021 485.481 206.625 485.08 207.229C485.481 208.236 485.682 209.243 486.084 210.25C486.084 211.056 485.682 212.062 485.481 212.868C490.905 211.056 496.328 210.25 501.751 209.646V185.882C501.751 181.451 505.367 177.826 509.786 177.826C514.204 177.826 517.82 181.451 517.82 185.882V209.646C523.243 210.25 528.867 211.056 534.09 212.868C534.09 212.062 533.688 211.056 533.487 210.25C533.889 209.243 534.09 208.236 534.491 207.229C534.09 206.625 533.889 206.021 533.487 205.417L533.286 205.215Z" fill="#470601"/>
<path fill-rule="evenodd" clip-rule="evenodd" d="M298.881 107.945C294.864 107.945 295.467 105.326 292.454 105.528C289.24 105.528 289.843 105.125 286.83 103.715C285.022 102.91 284.219 102.507 283.817 102.306V114.188C284.821 114.389 286.83 114.792 288.638 113.181C291.048 111.167 292.454 113.785 294.463 112.174C296.471 110.563 297.475 109.556 300.288 110.361C303.1 111.167 305.711 108.146 305.711 108.146C302.698 108.951 303.3 107.945 299.082 107.743L298.881 107.945Z" fill="#FF0700"/>
<path d="M283.817 102.104H283.415V128.084H283.817V102.104Z" fill="#470601"/>
<path fill-rule="evenodd" clip-rule="evenodd" d="M307.318 205.215C307.318 205.215 308.121 204.812 308.322 204.611C308.322 204.208 308.121 203.806 307.318 203.201C307.318 202.597 307.518 202.194 307.719 201.59C307.719 189.91 306.514 178.229 304.104 166.347C305.108 166.347 305.911 166.146 305.911 165.743C305.911 165.34 305.309 164.937 304.104 164.535C304.104 163.729 304.305 162.924 304.505 162.118C303.3 160.104 302.095 158.292 300.689 156.278C301.693 156.278 302.296 156.076 302.296 155.875C302.296 155.674 301.693 155.271 300.488 154.868C300.488 154.062 300.689 153.257 300.89 152.451C299.283 150.236 297.475 147.819 295.668 145.604C296.873 145.604 297.475 145.201 297.475 144.799C297.475 144.396 296.672 143.993 295.266 143.59C295.266 143.188 295.266 142.785 295.266 142.382C294.262 142.382 293.056 142.382 291.851 142.181C290.847 139.562 289.843 137.146 288.637 134.528C289.642 134.528 290.244 134.326 290.244 133.924C290.244 133.722 289.441 133.319 288.035 133.118C288.035 133.118 287.633 132.715 287.031 132.715H287.231C287.231 132.715 286.428 132.313 285.424 132.313C284.821 129.896 284.218 127.479 283.616 125.264V128.486V125.062C283.013 127.479 282.411 129.896 281.808 132.514C280.603 132.514 280 132.715 280 132.917C280 132.917 280 132.917 280.201 132.917C279.599 132.917 279.197 133.118 279.197 133.319C277.791 133.521 276.987 133.722 276.987 134.125C276.987 134.326 277.59 134.528 278.594 134.729C277.389 137.347 276.385 139.764 275.381 142.382C274.376 142.382 273.171 142.382 272.167 142.583C272.167 142.986 272.167 143.389 272.167 143.792C270.761 144.194 269.957 144.597 269.957 145C269.957 145.403 270.56 145.604 271.765 145.806C269.957 148.021 268.15 150.236 266.543 152.653C266.543 153.458 266.744 154.264 266.944 155.069C265.739 155.472 264.936 155.875 265.137 156.076C265.137 156.278 265.739 156.479 266.744 156.479C265.538 158.292 264.132 160.306 262.927 162.319C262.927 163.125 263.128 163.931 263.329 164.736C262.124 165.139 261.521 165.743 261.521 165.944C261.521 166.146 262.124 166.347 263.329 166.549C260.919 178.229 259.713 190.111 259.713 201.792C259.713 202.396 259.914 202.799 260.115 203.403C259.312 204.007 259.111 204.41 259.111 204.812C259.111 205.014 259.513 205.215 260.115 205.417C259.713 206.021 259.513 206.625 259.111 207.229C259.513 208.236 259.713 209.243 260.115 210.25C260.115 211.056 259.713 212.062 259.513 212.868C264.936 211.056 270.359 210.25 275.782 209.646V185.882C275.782 181.451 279.398 177.826 283.817 177.826C288.236 177.826 291.851 181.451 291.851 185.882V209.646C297.274 210.25 302.899 211.056 308.121 212.868C308.121 212.062 307.719 211.056 307.518 210.25L308.523 207.229C308.523 207.229 307.92 206.021 307.518 205.417L307.318 205.215Z" fill="#470601"/>
<path fill-rule="evenodd" clip-rule="evenodd" d="M557.39 181.451H532.081C531.077 181.451 530.073 182.055 530.073 183.062C530.073 184.069 530.876 184.673 532.081 184.673H557.39C558.394 184.673 559.399 184.069 559.399 183.062C559.399 182.055 558.595 181.451 557.39 181.451Z" fill="#470601"/>
<path fill-rule="evenodd" clip-rule="evenodd" d="M531.278 183.062V211.66H539.112V197.965C539.112 195.549 541.522 193.535 544.535 193.535C547.548 193.535 549.958 195.549 549.958 197.965V211.66H557.792V183.062H531.077H531.278Z" fill="#470601"/>
<path fill-rule="evenodd" clip-rule="evenodd" d="M552.167 145.201C550.159 145.201 550.56 143.993 548.953 143.993C547.347 143.993 547.547 143.792 546.141 142.986C545.338 142.583 544.936 142.382 544.735 142.382V148.222C544.735 148.222 546.141 148.424 547.146 147.819C548.351 146.812 548.953 148.222 549.958 147.215C550.962 146.41 551.364 146.007 552.77 146.41C554.176 146.812 555.381 145.403 555.381 145.403C553.975 145.805 554.176 145.403 552.167 145.403V145.201Z" fill="#FF0700"/>
<path fill-rule="evenodd" clip-rule="evenodd" d="M556.386 179.84C556.386 179.84 556.787 179.84 556.787 179.638C556.787 179.638 556.787 179.437 556.386 179.236C556.386 179.236 556.385 178.833 556.586 178.632C556.586 174.805 555.984 170.979 554.779 167.152C555.381 167.152 555.582 167.152 555.582 167.152C555.582 167.152 555.381 166.951 554.779 166.75C554.779 166.548 554.779 166.145 554.779 165.944C554.176 165.34 553.573 164.736 552.971 164.132C553.373 164.132 553.774 164.132 553.774 164.132C553.774 164.132 553.373 163.93 552.77 163.729C552.77 163.527 552.77 163.125 552.77 162.923C551.967 162.118 551.163 161.513 550.159 160.708C550.761 160.708 550.962 160.708 550.962 160.507C550.962 160.507 550.561 160.305 549.958 160.104C549.958 160.104 549.958 159.902 549.958 159.701C549.355 159.701 548.954 159.701 548.351 159.701C547.949 158.895 547.347 158.09 546.744 157.284C547.146 157.284 547.548 157.284 547.548 157.284C547.548 157.284 547.146 157.284 546.543 157.083C546.543 157.083 546.543 157.083 545.941 157.083C545.941 157.083 545.539 157.083 544.936 157.083C544.736 156.277 544.334 155.472 544.133 154.666V155.673V154.465C544.133 154.465 543.53 156.076 543.33 156.882C542.727 156.882 542.325 156.882 542.325 156.882C541.923 156.882 541.723 156.882 541.723 156.882C541.12 156.882 540.718 156.882 540.718 157.083C540.718 157.083 540.919 157.083 541.522 157.083C540.919 157.888 540.517 158.694 539.915 159.5C539.312 159.5 538.911 159.5 538.308 159.5C538.308 159.5 538.308 159.701 538.308 159.902C537.705 159.902 537.304 160.104 537.304 160.305C537.304 160.305 537.705 160.305 538.107 160.507C537.304 161.312 536.299 161.916 535.496 162.722C535.496 162.923 535.496 163.326 535.496 163.527C534.893 163.527 534.492 163.729 534.492 163.93C534.492 163.93 534.692 163.93 535.295 163.93C534.692 164.534 534.09 165.138 533.487 165.743C533.487 165.944 533.487 166.347 533.487 166.548C532.885 166.548 532.483 166.951 532.684 166.951C532.684 166.951 533.086 166.951 533.487 166.951C532.282 170.777 531.68 174.604 531.68 178.43C531.68 178.43 531.68 178.833 531.88 179.034C531.479 179.034 531.278 179.437 531.479 179.437C531.479 179.437 531.68 179.437 531.88 179.638C531.88 179.638 531.479 180.041 531.479 180.243C531.479 180.645 531.68 180.847 531.88 181.25C531.88 181.451 531.88 181.854 531.68 182.055C532.684 181.854 533.688 181.652 534.693 181.451H552.569C552.569 181.451 554.578 181.652 555.582 182.055C555.582 181.854 555.582 181.451 555.381 181.25C555.381 180.847 555.582 180.645 555.783 180.243C555.783 180.243 555.381 179.84 555.381 179.638L556.386 179.84Z" fill="#470601"/>
<path fill-rule="evenodd" clip-rule="evenodd" d="M260.919 181.451H235.61C234.606 181.451 233.602 182.055 233.602 183.062C233.602 184.069 234.405 184.673 235.61 184.673H260.919C261.923 184.673 262.927 184.069 262.927 183.062C262.927 182.055 262.124 181.451 260.919 181.451Z" fill="#470601"/>
<path fill-rule="evenodd" clip-rule="evenodd" d="M234.807 183.062V211.66H242.64V197.965C242.64 195.549 245.051 193.535 248.064 193.535C251.077 193.535 253.487 195.549 253.487 197.965V211.66H261.32V183.062H234.606H234.807Z" fill="#470601"/>
<path fill-rule="evenodd" clip-rule="evenodd" d="M255.696 145.201C253.687 145.201 254.089 143.993 252.482 143.993C250.875 143.993 251.076 143.792 249.67 142.986C248.867 142.583 248.465 142.382 248.264 142.382V148.222C248.264 148.222 249.67 148.424 250.674 147.819C251.88 146.812 252.482 148.222 253.487 147.215C254.491 146.41 254.893 146.007 256.299 146.41C257.705 146.812 258.91 145.403 258.91 145.403C257.504 145.805 257.705 145.403 255.696 145.403V145.201Z" fill="#FF0700"/>
<path fill-rule="evenodd" clip-rule="evenodd" d="M259.914 179.84C259.914 179.84 260.316 179.84 260.316 179.638C260.316 179.638 260.316 179.437 259.914 179.236C259.914 179.236 259.914 178.833 260.115 178.632C260.115 174.805 259.513 170.979 258.307 167.152C258.91 167.152 259.111 167.152 259.111 167.152C259.111 167.152 258.91 166.951 258.307 166.75C258.307 166.548 258.307 166.145 258.307 165.944C257.705 165.34 257.102 164.736 256.5 164.132C256.901 164.132 257.303 164.132 257.303 164.132C257.303 164.132 256.901 163.93 256.299 163.729C256.299 163.527 256.299 163.125 256.299 162.923C255.495 162.118 254.692 161.513 253.688 160.708C254.29 160.708 254.491 160.708 254.491 160.507C254.491 160.507 254.089 160.305 253.487 160.104C253.487 160.104 253.487 159.902 253.487 159.701C252.884 159.701 252.482 159.701 251.88 159.701C251.478 158.895 250.876 158.09 250.273 157.284C250.675 157.284 251.076 157.284 251.076 157.284C251.076 157.284 250.675 157.284 250.072 157.083C250.072 157.083 250.072 157.083 249.47 157.083C249.47 157.083 249.068 157.083 248.465 157.083C248.264 156.277 247.863 155.472 247.662 154.666V155.673V154.465C247.662 154.465 247.059 156.076 246.858 156.882C246.256 156.882 245.854 156.882 245.854 156.882C245.452 156.882 245.251 156.882 245.251 156.882C244.649 156.882 244.247 156.882 244.247 157.083C244.247 157.083 244.448 157.083 245.051 157.083C244.448 157.888 244.046 158.694 243.444 159.5C242.841 159.5 242.439 159.5 241.837 159.5C241.837 159.5 241.837 159.701 241.837 159.902C241.234 159.902 240.832 160.104 240.832 160.305C240.832 160.305 241.234 160.305 241.636 160.507C240.832 161.312 239.828 161.916 239.025 162.722C239.025 162.923 239.025 163.326 239.025 163.527C238.422 163.527 238.02 163.729 238.02 163.93C238.02 163.93 238.221 163.93 238.824 163.93C238.221 164.534 237.619 165.138 237.016 165.743C237.016 165.944 237.016 166.347 237.016 166.548C236.414 166.548 236.012 166.951 236.213 166.951C236.213 166.951 236.614 166.951 237.016 166.951C235.811 170.777 235.208 174.604 235.208 178.43C235.208 178.43 235.208 178.833 235.409 179.034C235.008 179.034 234.807 179.437 235.008 179.437C235.008 179.437 235.208 179.437 235.409 179.638C235.409 179.638 235.008 180.041 235.008 180.243C235.008 180.645 235.208 180.847 235.409 181.25C235.409 181.451 235.409 181.854 235.208 182.055C236.213 181.854 237.217 181.652 238.221 181.451H256.098C256.098 181.451 258.107 181.652 259.111 182.055C259.111 181.854 259.111 181.451 258.91 181.25C258.91 180.847 259.111 180.645 259.312 180.243C259.312 180.243 258.91 179.84 258.91 179.638L259.914 179.84Z" fill="#470601"/>
</g>
<defs>
<clipPath id="clip0_292_1686">
<rect width="793" height="232" fill="white"/>
</clipPath>
</defs>
</svg>
