<svg width="77" height="23" viewBox="0 0 77 23" fill="none" xmlns="http://www.w3.org/2000/svg">
<path d="M66.1489 22.3989C65.8424 22.6949 65.4319 22.8587 65.0058 22.855C64.5798 22.8513 64.1722 22.6804 63.8709 22.3791C63.5696 22.0778 63.3987 21.6703 63.395 21.2442C63.3913 20.8181 63.5551 20.4077 63.8511 20.1012L70.8272 13.1251H2.25C1.81902 13.1251 1.4057 12.9538 1.10095 12.6491C0.796205 12.3444 0.625 11.931 0.625 11.5001C0.625 11.0691 0.796205 10.6557 1.10095 10.351C1.4057 10.0463 1.81902 9.87505 2.25 9.87505H70.8272L63.8511 2.89893C63.5551 2.59245 63.3913 2.18197 63.395 1.7559C63.3987 1.32983 63.5696 0.92226 63.8709 0.620971C64.1722 0.319683 64.5798 0.148783 65.0058 0.145081C65.4319 0.141379 65.8424 0.30517 66.1489 0.601177L75.8989 10.3512C76.2035 10.6559 76.3746 11.0692 76.3746 11.5001C76.3746 11.9309 76.2035 12.3442 75.8989 12.6489L66.1489 22.3989Z" fill="#FE2B00"/>
</svg>
