<svg width="123" height="63" viewBox="0 0 123 63" fill="none" xmlns="http://www.w3.org/2000/svg">
<g clip-path="url(#clip0_292_1889)">
<path d="M61.1309 10.0303V116.201H70.8381C73.9052 113.797 78.5915 112.519 86.3797 112.519C110.159 112.519 105.957 86.9775 105.957 86.9775C113.522 86.9775 115.834 82.6676 115.834 74.0887C115.834 68.1257 120.285 64.642 123 63.0715C120.285 61.5025 115.834 58.0174 115.834 52.0558C115.834 43.4772 113.522 39.1674 105.957 39.1674C105.957 39.1674 110.159 13.6277 86.3797 13.6277C78.6848 13.6277 74.0174 12.3799 70.9484 10.0303H61.1309Z" fill="#821F37"/>
<path d="M19.5879 48.1168H102.377V40.6875C100.502 38.3401 99.5049 34.7535 99.5049 28.793C99.5049 10.5935 79.5887 13.8099 79.5887 13.8099C79.5887 8.02006 76.2281 6.25042 69.5385 6.25042C64.8888 6.25042 62.1722 2.84385 60.9476 0.766113C59.7242 2.84385 57.0066 6.25042 52.3579 6.25042C45.6687 6.25042 42.308 8.02035 42.308 13.8099C42.308 13.8099 22.393 10.5935 22.393 28.793C22.393 34.682 21.4201 38.2543 19.5879 40.603V48.1168Z" fill="#821F37"/>
<path d="M61.1308 116.496V10.0303H51.4235C48.3565 12.4415 43.67 13.7235 35.882 13.7235C12.1024 13.7235 16.3049 39.3354 16.3049 39.3354C8.73983 39.3354 6.42758 43.6572 6.42758 52.26C6.42759 58.2395 1.97652 61.7328 -0.738281 63.3077C1.97652 64.8811 6.42759 68.3759 6.42759 74.3539C6.42759 82.9562 8.74019 87.278 16.3049 87.278C16.3049 87.278 12.1024 112.889 35.882 112.889C43.5768 112.889 48.2442 114.14 51.3131 116.496H61.1308Z" fill="#821F37"/>
</g>
<defs>
<clipPath id="clip0_292_1889">
<rect width="123" height="63" fill="white"/>
</clipPath>
</defs>
</svg>
